<svg xmlns="http://www.w3.org/2000/svg" xmlns:xlink="http://www.w3.org/1999/xlink" width="500" zoomAndPan="magnify" viewBox="0 0 375 374.999991" height="500" preserveAspectRatio="xMidYMid meet" version="1.0"><defs><g/></defs><g fill="#ffffff" fill-opacity="1"><g transform="translate(37.500002, 220.036874)"><g><path d="M 30.046875 -37.046875 C 30.148438 -37.046875 30.203125 -37.007812 30.203125 -36.9375 C 30.203125 -36.832031 30.148438 -36.78125 30.046875 -36.78125 L 24.53125 -36.78125 C 25.28125 -36.5 25.863281 -36.03125 26.28125 -35.375 C 26.707031 -34.71875 26.921875 -34.003906 26.921875 -33.234375 C 26.960938 -32.492188 26.769531 -31.820312 26.34375 -31.21875 L 6.78125 -2.328125 C 6.644531 -2.085938 6.554688 -1.820312 6.515625 -1.53125 C 6.515625 -1.144531 6.65625 -0.816406 6.9375 -0.546875 C 7.21875 -0.285156 7.554688 -0.15625 7.953125 -0.15625 L 16 -0.15625 C 18.6875 -0.15625 20.765625 -0.332031 22.234375 -0.6875 C 23.703125 -1.039062 24.757812 -1.457031 25.40625 -1.9375 C 26.0625 -2.414062 26.476562 -2.847656 26.65625 -3.234375 C 26.695312 -3.265625 26.734375 -3.300781 26.765625 -3.34375 C 26.796875 -3.34375 26.832031 -3.34375 26.875 -3.34375 C 26.90625 -3.300781 26.921875 -3.265625 26.921875 -3.234375 C 26.960938 -3.203125 26.960938 -3.164062 26.921875 -3.125 L 25.390625 0.046875 C 25.390625 0.117188 25.351562 0.15625 25.28125 0.15625 L 1 0.15625 C 0.96875 0.15625 0.9375 0.140625 0.90625 0.109375 C 0.863281 0.0664062 0.84375 0.03125 0.84375 0 C 0.84375 -0.03125 0.863281 -0.0664062 0.90625 -0.109375 C 0.9375 -0.140625 0.96875 -0.15625 1 -0.15625 L 6.515625 -0.15625 C 5.773438 -0.4375 5.191406 -0.894531 4.765625 -1.53125 C 4.347656 -2.164062 4.140625 -2.875 4.140625 -3.65625 C 4.097656 -4.394531 4.269531 -5.082031 4.65625 -5.71875 L 24.21875 -34.5625 C 24.394531 -34.800781 24.5 -35.082031 24.53125 -35.40625 C 24.53125 -35.789062 24.390625 -36.113281 24.109375 -36.375 C 23.828125 -36.644531 23.492188 -36.78125 23.109375 -36.78125 L 15.046875 -36.78125 C 12.367188 -36.78125 10.296875 -36.601562 8.828125 -36.25 C 7.359375 -35.894531 6.296875 -35.46875 5.640625 -34.96875 C 4.984375 -34.476562 4.570312 -34.039062 4.40625 -33.65625 C 4.363281 -33.625 4.304688 -33.609375 4.234375 -33.609375 C 4.234375 -33.609375 4.21875 -33.609375 4.1875 -33.609375 C 4.15625 -33.640625 4.140625 -33.671875 4.140625 -33.703125 C 4.097656 -33.742188 4.097656 -33.78125 4.140625 -33.8125 L 5.671875 -37 C 5.671875 -37.03125 5.707031 -37.046875 5.78125 -37.046875 Z M 30.046875 -37.046875 "/></g></g></g><g fill="#ffffff" fill-opacity="1"><g transform="translate(68.55344, 220.036874)"><g><path d="M 8.0625 -32.015625 C 9.925781 -33.890625 12.023438 -35.289062 14.359375 -36.21875 C 16.691406 -37.15625 19.101562 -37.625 21.59375 -37.625 C 24.082031 -37.625 26.492188 -37.15625 28.828125 -36.21875 C 31.160156 -35.289062 33.265625 -33.890625 35.140625 -32.015625 C 36.941406 -30.210938 38.328125 -28.132812 39.296875 -25.78125 C 40.265625 -23.4375 40.75 -20.988281 40.75 -18.4375 C 40.75 -15.894531 40.265625 -13.445312 39.296875 -11.09375 C 38.328125 -8.75 36.941406 -6.691406 35.140625 -4.921875 C 33.335938 -3.117188 31.257812 -1.734375 28.90625 -0.765625 C 26.5625 0.203125 24.117188 0.6875 21.578125 0.6875 C 19.023438 0.6875 16.582031 0.203125 14.25 -0.765625 C 11.925781 -1.734375 9.863281 -3.117188 8.0625 -4.921875 C 6.1875 -6.796875 4.78125 -8.898438 3.84375 -11.234375 C 2.90625 -13.566406 2.4375 -15.976562 2.4375 -18.46875 C 2.4375 -20.957031 2.90625 -23.367188 3.84375 -25.703125 C 4.78125 -28.035156 6.1875 -30.140625 8.0625 -32.015625 Z M 8.21875 -31.796875 C 6.800781 -30.390625 5.8125 -28.703125 5.25 -26.734375 C 4.6875 -24.773438 4.535156 -22.707031 4.796875 -20.53125 C 5.054688 -18.363281 5.722656 -16.203125 6.796875 -14.046875 C 7.878906 -11.890625 9.34375 -9.894531 11.1875 -8.0625 C 13.019531 -6.21875 15.015625 -4.753906 17.171875 -3.671875 C 19.328125 -2.597656 21.488281 -1.925781 23.65625 -1.65625 C 25.832031 -1.394531 27.898438 -1.546875 29.859375 -2.109375 C 31.828125 -2.679688 33.515625 -3.675781 34.921875 -5.09375 C 36.335938 -6.5 37.335938 -8.171875 37.921875 -10.109375 C 38.503906 -12.054688 38.671875 -14.144531 38.421875 -16.375 C 38.140625 -18.632812 37.453125 -20.84375 36.359375 -23 C 35.265625 -25.15625 33.816406 -27.117188 32.015625 -28.890625 C 29.890625 -31.046875 27.546875 -32.671875 24.984375 -33.765625 C 22.421875 -34.859375 19.921875 -35.40625 17.484375 -35.40625 C 15.722656 -35.40625 14.046875 -35.101562 12.453125 -34.5 C 10.859375 -33.90625 9.445312 -33.003906 8.21875 -31.796875 Z M 8.21875 -31.796875 "/></g></g></g><g fill="#ffffff" fill-opacity="1"><g transform="translate(111.795098, 220.036874)"><g><path d="M 33.015625 -37.046875 C 33.117188 -37.046875 33.171875 -37.007812 33.171875 -36.9375 C 33.171875 -36.9375 33.171875 -36.925781 33.171875 -36.90625 C 33.171875 -36.894531 33.171875 -36.890625 33.171875 -36.890625 C 33.171875 -36.816406 33.117188 -36.78125 33.015625 -36.78125 L 32.703125 -36.78125 C 32.023438 -36.675781 31.457031 -36.367188 31 -35.859375 C 30.539062 -35.347656 30.3125 -34.738281 30.3125 -34.03125 L 30.3125 -25.390625 C 30.3125 -23.898438 29.832031 -22.570312 28.875 -21.40625 C 27.925781 -20.238281 26.726562 -19.5 25.28125 -19.1875 C 26.726562 -18.863281 27.925781 -18.117188 28.875 -16.953125 C 29.832031 -15.796875 30.3125 -14.457031 30.3125 -12.9375 L 30.3125 -6.203125 C 30.3125 -4.828125 29.894531 -3.570312 29.0625 -2.4375 C 28.238281 -1.300781 27.15625 -0.523438 25.8125 -0.109375 L 33.015625 -0.109375 C 33.117188 -0.109375 33.171875 -0.0703125 33.171875 0 C 33.171875 0.101562 33.117188 0.15625 33.015625 0.15625 L 23.953125 0.15625 C 23.847656 0.15625 23.796875 0.101562 23.796875 0 C 23.796875 -0.0703125 23.847656 -0.109375 23.953125 -0.109375 C 23.992188 -0.109375 24.039062 -0.113281 24.09375 -0.125 C 24.144531 -0.144531 24.1875 -0.15625 24.21875 -0.15625 C 24.925781 -0.226562 25.507812 -0.519531 25.96875 -1.03125 C 26.425781 -1.539062 26.65625 -2.148438 26.65625 -2.859375 L 26.65625 -16.265625 C 26.65625 -16.972656 26.425781 -17.59375 25.96875 -18.125 C 25.507812 -18.65625 24.925781 -18.957031 24.21875 -19.03125 C 24.1875 -19.03125 24.144531 -19.03125 24.09375 -19.03125 C 24.039062 -19.03125 23.992188 -19.03125 23.953125 -19.03125 L 11.28125 -19.03125 C 11.25 -19.03125 11.207031 -19.03125 11.15625 -19.03125 C 11.101562 -19.03125 11.0625 -19.03125 11.03125 -19.03125 C 10.320312 -18.957031 9.738281 -18.65625 9.28125 -18.125 C 8.820312 -17.59375 8.59375 -16.972656 8.59375 -16.265625 L 8.59375 -6.203125 C 8.59375 -4.828125 8.175781 -3.582031 7.34375 -2.46875 C 6.507812 -1.351562 5.441406 -0.582031 4.140625 -0.15625 L 11.28125 -0.15625 C 11.394531 -0.15625 11.453125 -0.101562 11.453125 0 C 11.453125 0.101562 11.394531 0.15625 11.28125 0.15625 L 2.59375 0.15625 C 2.519531 0.15625 2.457031 0.15625 2.40625 0.15625 C 2.351562 0.15625 2.289062 0.15625 2.21875 0.15625 C 2.113281 0.15625 2.0625 0.101562 2.0625 0 C 2.0625 -0.101562 2.113281 -0.15625 2.21875 -0.15625 L 2.546875 -0.15625 C 3.210938 -0.226562 3.773438 -0.519531 4.234375 -1.03125 C 4.691406 -1.539062 4.921875 -2.148438 4.921875 -2.859375 L 4.921875 -12.9375 C 4.921875 -14.457031 5.398438 -15.796875 6.359375 -16.953125 C 7.316406 -18.117188 8.519531 -18.863281 9.96875 -19.1875 C 8.519531 -19.5 7.316406 -20.238281 6.359375 -21.40625 C 5.398438 -22.570312 4.921875 -23.898438 4.921875 -25.390625 L 4.921875 -30.6875 C 4.921875 -32.101562 5.335938 -33.363281 6.171875 -34.46875 C 7.003906 -35.582031 8.09375 -36.351562 9.4375 -36.78125 L 2.21875 -36.78125 C 2.113281 -36.78125 2.0625 -36.832031 2.0625 -36.9375 C 2.0625 -37.007812 2.113281 -37.046875 2.21875 -37.046875 L 11.28125 -37.046875 C 11.394531 -37.046875 11.453125 -37.007812 11.453125 -36.9375 C 11.453125 -36.832031 11.394531 -36.78125 11.28125 -36.78125 C 11.25 -36.78125 11.207031 -36.78125 11.15625 -36.78125 C 11.101562 -36.78125 11.0625 -36.78125 11.03125 -36.78125 C 10.320312 -36.707031 9.738281 -36.40625 9.28125 -35.875 C 8.820312 -35.351562 8.59375 -34.738281 8.59375 -34.03125 L 8.59375 -22.046875 C 8.59375 -21.335938 8.820312 -20.726562 9.28125 -20.21875 C 9.738281 -19.707031 10.320312 -19.414062 11.03125 -19.34375 C 11.0625 -19.34375 11.101562 -19.332031 11.15625 -19.3125 C 11.207031 -19.300781 11.25 -19.296875 11.28125 -19.296875 L 23.953125 -19.296875 C 23.992188 -19.296875 24.039062 -19.300781 24.09375 -19.3125 C 24.144531 -19.332031 24.1875 -19.34375 24.21875 -19.34375 C 24.925781 -19.414062 25.507812 -19.707031 25.96875 -20.21875 C 26.425781 -20.726562 26.65625 -21.335938 26.65625 -22.046875 L 26.65625 -30.6875 C 26.65625 -32.0625 27.070312 -33.3125 27.90625 -34.4375 C 28.738281 -35.570312 29.804688 -36.351562 31.109375 -36.78125 L 23.953125 -36.78125 C 23.847656 -36.78125 23.796875 -36.816406 23.796875 -36.890625 C 23.796875 -36.992188 23.847656 -37.046875 23.953125 -37.046875 L 32.640625 -37.046875 C 32.710938 -37.046875 32.785156 -37.046875 32.859375 -37.046875 C 32.929688 -37.046875 32.984375 -37.046875 33.015625 -37.046875 Z M 33.015625 -37.046875 "/></g></g></g><g fill="#ffffff" fill-opacity="1"><g transform="translate(147.08792, 220.036874)"><g><path d="M 39.21875 -0.15625 C 39.289062 -0.15625 39.34375 -0.101562 39.375 0 C 39.375 0.101562 39.320312 0.15625 39.21875 0.15625 L 30.109375 0.15625 C 29.992188 0.15625 29.9375 0.101562 29.9375 0 C 29.9375 -0.101562 29.992188 -0.15625 30.109375 -0.15625 C 30.640625 -0.15625 31.097656 -0.335938 31.484375 -0.703125 C 31.867188 -1.078125 32.0625 -1.550781 32.0625 -2.125 C 32.0625 -2.476562 31.972656 -2.796875 31.796875 -3.078125 L 27.71875 -12.40625 C 27.007812 -13.988281 25.929688 -15.25 24.484375 -16.1875 C 23.035156 -17.125 21.445312 -17.59375 19.71875 -17.59375 C 18.125 -17.59375 16.664062 -17.203125 15.34375 -16.421875 C 14.019531 -15.648438 12.96875 -14.597656 12.1875 -13.265625 C 11.414062 -11.941406 11.03125 -10.488281 11.03125 -8.90625 C 11.03125 -7.28125 11.414062 -5.800781 12.1875 -4.46875 C 12.96875 -3.144531 14.019531 -2.09375 15.34375 -1.3125 C 16.664062 -0.539062 18.125 -0.15625 19.71875 -0.15625 C 19.820312 -0.15625 19.875 -0.101562 19.875 0 C 19.875 0.101562 19.820312 0.15625 19.71875 0.15625 L 0.484375 0.15625 C 0.367188 0.15625 0.3125 0.101562 0.3125 0 C 0.3125 -0.101562 0.367188 -0.15625 0.484375 -0.15625 C 1.816406 -0.15625 3.050781 -0.523438 4.1875 -1.265625 C 5.320312 -2.015625 6.148438 -3.003906 6.671875 -4.234375 L 20.296875 -37.3125 L 20.40625 -37.53125 C 20.40625 -37.5625 20.421875 -37.578125 20.453125 -37.578125 C 20.453125 -37.578125 20.453125 -37.59375 20.453125 -37.625 C 20.492188 -37.625 20.515625 -37.625 20.515625 -37.625 C 20.546875 -37.625 20.578125 -37.625 20.609375 -37.625 C 20.609375 -37.625 20.609375 -37.609375 20.609375 -37.578125 C 20.648438 -37.578125 20.671875 -37.5625 20.671875 -37.53125 L 34.296875 -6.40625 C 34.578125 -5.8125 34.71875 -5.175781 34.71875 -4.5 C 34.71875 -3.507812 34.441406 -2.617188 33.890625 -1.828125 C 33.347656 -1.035156 32.613281 -0.476562 31.6875 -0.15625 Z M 19.71875 -17.90625 C 21.132812 -17.90625 22.457031 -17.597656 23.6875 -16.984375 C 24.925781 -16.367188 25.96875 -15.515625 26.8125 -14.421875 L 18.765625 -32.859375 L 6.9375 -4.1875 C 6.9375 -4.15625 6.9375 -4.140625 6.9375 -4.140625 C 6.90625 -4.097656 6.90625 -4.097656 6.9375 -4.140625 L 5.5625 -0.90625 C 5.5625 -0.832031 5.523438 -0.796875 5.453125 -0.796875 C 5.421875 -0.796875 5.40625 -0.796875 5.40625 -0.796875 C 5.300781 -0.828125 5.265625 -0.894531 5.296875 -1 L 5.9375 -2.484375 C 5.019531 -1.316406 3.851562 -0.539062 2.4375 -0.15625 L 17.484375 -0.15625 C 15.503906 -0.65625 13.878906 -1.71875 12.609375 -3.34375 C 11.335938 -4.96875 10.703125 -6.800781 10.703125 -8.84375 C 10.703125 -10.507812 11.109375 -12.03125 11.921875 -13.40625 C 12.734375 -14.78125 13.816406 -15.875 15.171875 -16.6875 C 16.535156 -17.5 18.050781 -17.90625 19.71875 -17.90625 Z M 19.71875 -17.90625 "/></g></g></g><g fill="#ffffff" fill-opacity="1"><g transform="translate(186.885078, 220.036874)"><g><path d="M 30.046875 -37 L 31.59375 -33.8125 C 31.625 -33.707031 31.585938 -33.640625 31.484375 -33.609375 C 31.484375 -33.609375 31.460938 -33.609375 31.421875 -33.609375 C 31.359375 -33.609375 31.328125 -33.625 31.328125 -33.65625 C 31.109375 -34.039062 30.671875 -34.476562 30.015625 -34.96875 C 29.367188 -35.46875 28.3125 -35.894531 26.84375 -36.25 C 25.375 -36.601562 23.316406 -36.78125 20.671875 -36.78125 C 20.597656 -36.78125 20.539062 -36.78125 20.5 -36.78125 C 20.46875 -36.78125 20.4375 -36.78125 20.40625 -36.78125 C 19.695312 -36.707031 19.101562 -36.40625 18.625 -35.875 C 18.144531 -35.351562 17.90625 -34.738281 17.90625 -34.03125 L 17.90625 -6.203125 C 17.90625 -4.828125 17.488281 -3.570312 16.65625 -2.4375 C 15.832031 -1.300781 14.75 -0.523438 13.40625 -0.109375 L 20.671875 -0.109375 C 20.742188 -0.109375 20.78125 -0.0703125 20.78125 0 C 20.78125 0.101562 20.742188 0.15625 20.671875 0.15625 L 11.546875 0.15625 C 11.441406 0.15625 11.390625 0.101562 11.390625 0 C 11.390625 -0.0703125 11.441406 -0.109375 11.546875 -0.109375 C 11.585938 -0.109375 11.632812 -0.109375 11.6875 -0.109375 C 11.738281 -0.109375 11.78125 -0.125 11.8125 -0.15625 C 12.519531 -0.226562 13.113281 -0.519531 13.59375 -1.03125 C 14.070312 -1.539062 14.3125 -2.148438 14.3125 -2.859375 L 14.3125 -30.6875 C 14.3125 -32.101562 14.722656 -33.363281 15.546875 -34.46875 C 16.378906 -35.582031 17.453125 -36.351562 18.765625 -36.78125 L 11.546875 -36.78125 C 8.898438 -36.78125 6.832031 -36.601562 5.34375 -36.25 C 3.863281 -35.894531 2.796875 -35.46875 2.140625 -34.96875 C 1.492188 -34.476562 1.082031 -34.039062 0.90625 -33.65625 C 0.863281 -33.625 0.828125 -33.609375 0.796875 -33.609375 C 0.753906 -33.609375 0.734375 -33.609375 0.734375 -33.609375 C 0.703125 -33.640625 0.671875 -33.671875 0.640625 -33.703125 C 0.640625 -33.742188 0.640625 -33.78125 0.640625 -33.8125 L 2.171875 -37 C 2.203125 -37.03125 2.253906 -37.046875 2.328125 -37.046875 L 29.890625 -37.046875 C 29.960938 -37.046875 30.015625 -37.03125 30.046875 -37 Z M 30.046875 -37 "/></g></g></g><g fill="#ffffff" fill-opacity="1"><g transform="translate(219.104348, 220.036874)"><g><path d="M 26.34375 -3.34375 C 26.445312 -3.300781 26.484375 -3.226562 26.453125 -3.125 L 24.90625 0.046875 C 24.875 0.0859375 24.859375 0.109375 24.859375 0.109375 C 24.816406 0.140625 24.78125 0.15625 24.75 0.15625 L 2.59375 0.15625 C 2.519531 0.15625 2.457031 0.15625 2.40625 0.15625 C 2.351562 0.15625 2.289062 0.15625 2.21875 0.15625 C 2.113281 0.15625 2.0625 0.101562 2.0625 0 C 2.0625 -0.101562 2.113281 -0.15625 2.21875 -0.15625 L 2.546875 -0.15625 C 3.210938 -0.226562 3.773438 -0.519531 4.234375 -1.03125 C 4.691406 -1.539062 4.921875 -2.148438 4.921875 -2.859375 L 4.921875 -12.9375 C 4.921875 -14.457031 5.398438 -15.796875 6.359375 -16.953125 C 7.316406 -18.117188 8.519531 -18.863281 9.96875 -19.1875 C 8.519531 -19.5 7.316406 -20.238281 6.359375 -21.40625 C 5.398438 -22.570312 4.921875 -23.898438 4.921875 -25.390625 L 4.921875 -30.6875 C 4.921875 -32.101562 5.335938 -33.363281 6.171875 -34.46875 C 7.003906 -35.582031 8.09375 -36.351562 9.4375 -36.78125 L 2.21875 -36.78125 C 2.113281 -36.78125 2.0625 -36.832031 2.0625 -36.9375 C 2.0625 -37.007812 2.113281 -37.046875 2.21875 -37.046875 L 23.6875 -37.046875 C 23.726562 -37.046875 23.726562 -37.046875 23.6875 -37.046875 C 23.726562 -37.046875 23.75 -37.046875 23.75 -37.046875 C 23.75 -37.046875 23.765625 -37.03125 23.796875 -37 C 23.796875 -36.957031 23.796875 -36.9375 23.796875 -36.9375 C 23.796875 -36.9375 23.796875 -36.921875 23.796875 -36.890625 L 16.0625 -7.890625 C 16.0625 -7.828125 16.023438 -7.796875 15.953125 -7.796875 C 15.953125 -7.796875 15.9375 -7.796875 15.90625 -7.796875 C 15.832031 -7.796875 15.796875 -7.847656 15.796875 -7.953125 L 18.765625 -19.03125 L 11.28125 -19.03125 C 11.25 -19.03125 11.207031 -19.03125 11.15625 -19.03125 C 11.101562 -19.03125 11.0625 -19.03125 11.03125 -19.03125 C 10.320312 -18.957031 9.738281 -18.65625 9.28125 -18.125 C 8.820312 -17.59375 8.59375 -16.972656 8.59375 -16.265625 L 8.59375 -6.203125 C 8.59375 -4.828125 8.175781 -3.582031 7.34375 -2.46875 C 6.507812 -1.351562 5.441406 -0.582031 4.140625 -0.15625 L 12.40625 -0.15625 C 14.664062 -0.15625 16.789062 -0.296875 18.78125 -0.578125 C 20.78125 -0.859375 22.441406 -1.226562 23.765625 -1.6875 C 25.097656 -2.15625 25.90625 -2.671875 26.1875 -3.234375 C 26.1875 -3.265625 26.203125 -3.300781 26.234375 -3.34375 C 26.265625 -3.34375 26.300781 -3.34375 26.34375 -3.34375 Z M 11.28125 -19.296875 L 18.8125 -19.296875 L 22.6875 -33.765625 C 22.820312 -34.179688 22.75 -34.566406 22.46875 -34.921875 C 21.976562 -35.554688 20.820312 -36.023438 19 -36.328125 C 17.175781 -36.628906 14.601562 -36.78125 11.28125 -36.78125 C 11.25 -36.78125 11.207031 -36.78125 11.15625 -36.78125 C 11.101562 -36.78125 11.0625 -36.78125 11.03125 -36.78125 C 10.320312 -36.707031 9.738281 -36.40625 9.28125 -35.875 C 8.820312 -35.351562 8.59375 -34.738281 8.59375 -34.03125 L 8.59375 -22.046875 C 8.59375 -21.335938 8.820312 -20.726562 9.28125 -20.21875 C 9.738281 -19.707031 10.320312 -19.414062 11.03125 -19.34375 C 11.0625 -19.34375 11.101562 -19.332031 11.15625 -19.3125 C 11.207031 -19.300781 11.25 -19.296875 11.28125 -19.296875 Z M 11.28125 -19.296875 "/></g></g></g><g fill="#ffffff" fill-opacity="1"><g transform="translate(246.713298, 220.036874)"><g><path d="M 32.859375 -21.140625 C 32.828125 -21.179688 32.789062 -21.21875 32.75 -21.25 C 32.75 -21.289062 32.75 -21.328125 32.75 -21.359375 L 34.828125 -26.8125 C 33.617188 -30 31.859375 -32.523438 29.546875 -34.390625 C 27.234375 -36.265625 24.71875 -37.253906 22 -37.359375 L 21.890625 -37.359375 C 21.816406 -37.359375 21.726562 -37.359375 21.625 -37.359375 C 21.519531 -37.359375 21.394531 -37.359375 21.25 -37.359375 C 19.3125 -37.296875 17.46875 -36.769531 15.71875 -35.78125 C 13.96875 -34.789062 12.421875 -33.425781 11.078125 -31.6875 C 9.703125 -29.882812 8.648438 -27.851562 7.921875 -25.59375 C 7.203125 -23.332031 6.84375 -20.945312 6.84375 -18.4375 C 6.84375 -15.96875 7.203125 -13.59375 7.921875 -11.3125 C 8.648438 -9.03125 9.703125 -7.007812 11.078125 -5.25 C 12.421875 -3.476562 13.96875 -2.109375 15.71875 -1.140625 C 17.46875 -0.171875 19.296875 0.347656 21.203125 0.421875 L 21.3125 0.421875 C 21.445312 0.421875 21.535156 0.421875 21.578125 0.421875 C 21.640625 0.421875 21.707031 0.421875 21.78125 0.421875 C 21.851562 0.421875 21.90625 0.421875 21.9375 0.421875 C 24.726562 0.316406 27.269531 -0.675781 29.5625 -2.5625 C 31.863281 -4.457031 33.632812 -6.976562 34.875 -10.125 C 34.875 -10.195312 34.910156 -10.234375 34.984375 -10.234375 C 35.054688 -10.234375 35.09375 -10.195312 35.09375 -10.125 L 36.46875 -6.46875 C 36.5 -6.425781 36.5 -6.390625 36.46875 -6.359375 C 34.695312 -4.171875 32.539062 -2.457031 30 -1.21875 C 27.457031 0.0195312 24.789062 0.65625 22 0.6875 L 21.890625 0.6875 C 21.816406 0.6875 21.726562 0.6875 21.625 0.6875 C 21.519531 0.6875 21.394531 0.6875 21.25 0.6875 C 18.738281 0.65625 16.328125 0.144531 14.015625 -0.84375 C 11.703125 -1.832031 9.679688 -3.226562 7.953125 -5.03125 C 6.179688 -6.832031 4.816406 -8.890625 3.859375 -11.203125 C 2.910156 -13.523438 2.4375 -15.9375 2.4375 -18.4375 C 2.4375 -20.945312 2.910156 -23.367188 3.859375 -25.703125 C 4.816406 -28.035156 6.179688 -30.101562 7.953125 -31.90625 C 9.679688 -33.675781 11.691406 -35.0625 13.984375 -36.0625 C 16.285156 -37.070312 18.691406 -37.59375 21.203125 -37.625 L 21.359375 -37.625 C 21.429688 -37.625 21.519531 -37.625 21.625 -37.625 C 21.695312 -37.625 21.820312 -37.625 22 -37.625 C 24.789062 -37.5625 27.457031 -36.914062 30 -35.6875 C 32.539062 -34.46875 34.695312 -32.765625 36.46875 -30.578125 C 36.425781 -30.578125 36.425781 -30.578125 36.46875 -30.578125 C 36.46875 -30.546875 36.46875 -30.53125 36.46875 -30.53125 C 36.46875 -30.53125 36.46875 -30.507812 36.46875 -30.46875 C 36.46875 -30.46875 36.46875 -30.453125 36.46875 -30.421875 L 35.09375 -26.765625 L 33.015625 -21.25 C 33.015625 -21.175781 32.976562 -21.140625 32.90625 -21.140625 C 32.875 -21.140625 32.859375 -21.140625 32.859375 -21.140625 Z M 32.859375 -21.140625 "/></g></g></g><g fill="#ffffff" fill-opacity="1"><g transform="translate(285.715561, 220.036874)"><g><path d="M 33.015625 -37.046875 C 33.117188 -37.046875 33.171875 -37.007812 33.171875 -36.9375 C 33.171875 -36.9375 33.171875 -36.925781 33.171875 -36.90625 C 33.171875 -36.894531 33.171875 -36.890625 33.171875 -36.890625 C 33.171875 -36.816406 33.117188 -36.78125 33.015625 -36.78125 L 32.703125 -36.78125 C 32.023438 -36.675781 31.457031 -36.367188 31 -35.859375 C 30.539062 -35.347656 30.3125 -34.738281 30.3125 -34.03125 L 30.3125 -25.390625 C 30.3125 -23.898438 29.832031 -22.570312 28.875 -21.40625 C 27.925781 -20.238281 26.726562 -19.5 25.28125 -19.1875 C 26.726562 -18.863281 27.925781 -18.117188 28.875 -16.953125 C 29.832031 -15.796875 30.3125 -14.457031 30.3125 -12.9375 L 30.3125 -6.203125 C 30.3125 -4.828125 29.894531 -3.570312 29.0625 -2.4375 C 28.238281 -1.300781 27.15625 -0.523438 25.8125 -0.109375 L 33.015625 -0.109375 C 33.117188 -0.109375 33.171875 -0.0703125 33.171875 0 C 33.171875 0.101562 33.117188 0.15625 33.015625 0.15625 L 23.953125 0.15625 C 23.847656 0.15625 23.796875 0.101562 23.796875 0 C 23.796875 -0.0703125 23.847656 -0.109375 23.953125 -0.109375 C 23.992188 -0.109375 24.039062 -0.113281 24.09375 -0.125 C 24.144531 -0.144531 24.1875 -0.15625 24.21875 -0.15625 C 24.925781 -0.226562 25.507812 -0.519531 25.96875 -1.03125 C 26.425781 -1.539062 26.65625 -2.148438 26.65625 -2.859375 L 26.65625 -16.265625 C 26.65625 -16.972656 26.425781 -17.59375 25.96875 -18.125 C 25.507812 -18.65625 24.925781 -18.957031 24.21875 -19.03125 C 24.1875 -19.03125 24.144531 -19.03125 24.09375 -19.03125 C 24.039062 -19.03125 23.992188 -19.03125 23.953125 -19.03125 L 11.28125 -19.03125 C 11.25 -19.03125 11.207031 -19.03125 11.15625 -19.03125 C 11.101562 -19.03125 11.0625 -19.03125 11.03125 -19.03125 C 10.320312 -18.957031 9.738281 -18.65625 9.28125 -18.125 C 8.820312 -17.59375 8.59375 -16.972656 8.59375 -16.265625 L 8.59375 -6.203125 C 8.59375 -4.828125 8.175781 -3.582031 7.34375 -2.46875 C 6.507812 -1.351562 5.441406 -0.582031 4.140625 -0.15625 L 11.28125 -0.15625 C 11.394531 -0.15625 11.453125 -0.101562 11.453125 0 C 11.453125 0.101562 11.394531 0.15625 11.28125 0.15625 L 2.59375 0.15625 C 2.519531 0.15625 2.457031 0.15625 2.40625 0.15625 C 2.351562 0.15625 2.289062 0.15625 2.21875 0.15625 C 2.113281 0.15625 2.0625 0.101562 2.0625 0 C 2.0625 -0.101562 2.113281 -0.15625 2.21875 -0.15625 L 2.546875 -0.15625 C 3.210938 -0.226562 3.773438 -0.519531 4.234375 -1.03125 C 4.691406 -1.539062 4.921875 -2.148438 4.921875 -2.859375 L 4.921875 -12.9375 C 4.921875 -14.457031 5.398438 -15.796875 6.359375 -16.953125 C 7.316406 -18.117188 8.519531 -18.863281 9.96875 -19.1875 C 8.519531 -19.5 7.316406 -20.238281 6.359375 -21.40625 C 5.398438 -22.570312 4.921875 -23.898438 4.921875 -25.390625 L 4.921875 -30.6875 C 4.921875 -32.101562 5.335938 -33.363281 6.171875 -34.46875 C 7.003906 -35.582031 8.09375 -36.351562 9.4375 -36.78125 L 2.21875 -36.78125 C 2.113281 -36.78125 2.0625 -36.832031 2.0625 -36.9375 C 2.0625 -37.007812 2.113281 -37.046875 2.21875 -37.046875 L 11.28125 -37.046875 C 11.394531 -37.046875 11.453125 -37.007812 11.453125 -36.9375 C 11.453125 -36.832031 11.394531 -36.78125 11.28125 -36.78125 C 11.25 -36.78125 11.207031 -36.78125 11.15625 -36.78125 C 11.101562 -36.78125 11.0625 -36.78125 11.03125 -36.78125 C 10.320312 -36.707031 9.738281 -36.40625 9.28125 -35.875 C 8.820312 -35.351562 8.59375 -34.738281 8.59375 -34.03125 L 8.59375 -22.046875 C 8.59375 -21.335938 8.820312 -20.726562 9.28125 -20.21875 C 9.738281 -19.707031 10.320312 -19.414062 11.03125 -19.34375 C 11.0625 -19.34375 11.101562 -19.332031 11.15625 -19.3125 C 11.207031 -19.300781 11.25 -19.296875 11.28125 -19.296875 L 23.953125 -19.296875 C 23.992188 -19.296875 24.039062 -19.300781 24.09375 -19.3125 C 24.144531 -19.332031 24.1875 -19.34375 24.21875 -19.34375 C 24.925781 -19.414062 25.507812 -19.707031 25.96875 -20.21875 C 26.425781 -20.726562 26.65625 -21.335938 26.65625 -22.046875 L 26.65625 -30.6875 C 26.65625 -32.0625 27.070312 -33.3125 27.90625 -34.4375 C 28.738281 -35.570312 29.804688 -36.351562 31.109375 -36.78125 L 23.953125 -36.78125 C 23.847656 -36.78125 23.796875 -36.816406 23.796875 -36.890625 C 23.796875 -36.992188 23.847656 -37.046875 23.953125 -37.046875 L 32.640625 -37.046875 C 32.710938 -37.046875 32.785156 -37.046875 32.859375 -37.046875 C 32.929688 -37.046875 32.984375 -37.046875 33.015625 -37.046875 Z M 33.015625 -37.046875 "/></g></g></g><g fill="#ffffff" fill-opacity="1"><g transform="translate(321.011706, 220.036874)"><g/></g></g><g fill="#ffffff" fill-opacity="1"><g transform="translate(113.980486, 238.430728)"><g><path d="M 0.59375 0.078125 C 0.40625 0.078125 0.3125 0.015625 0.3125 -0.109375 C 0.3125 -0.203125 0.375 -0.25 0.5 -0.25 L 0.734375 -0.21875 C 0.910156 -0.21875 1.035156 -0.296875 1.109375 -0.453125 C 1.179688 -0.640625 1.21875 -1 1.21875 -1.53125 L 1.21875 -5 C 1.21875 -5.53125 1.191406 -5.863281 1.140625 -6 C 1.085938 -6.144531 1.03125 -6.234375 0.96875 -6.265625 C 0.90625 -6.296875 0.828125 -6.3125 0.734375 -6.3125 L 0.5 -6.296875 C 0.375 -6.296875 0.3125 -6.34375 0.3125 -6.4375 C 0.3125 -6.5625 0.398438 -6.625 0.578125 -6.625 C 0.753906 -6.625 0.894531 -6.617188 1 -6.609375 C 1.113281 -6.597656 1.226562 -6.585938 1.34375 -6.578125 C 1.644531 -6.554688 1.882812 -6.546875 2.0625 -6.546875 C 2.238281 -6.546875 2.421875 -6.546875 2.609375 -6.546875 C 2.804688 -6.554688 3.023438 -6.566406 3.265625 -6.578125 C 3.898438 -6.609375 4.34375 -6.625 4.59375 -6.625 C 4.84375 -6.625 4.976562 -6.609375 5 -6.578125 C 5.03125 -6.546875 5.046875 -6.503906 5.046875 -6.453125 C 5.046875 -6.398438 5.046875 -6.351562 5.046875 -6.3125 C 5.046875 -6.269531 5.039062 -6.21875 5.03125 -6.15625 C 5.03125 -6.082031 5.019531 -5.972656 5 -5.828125 C 4.988281 -5.679688 4.96875 -5.582031 4.9375 -5.53125 C 4.914062 -5.476562 4.882812 -5.453125 4.84375 -5.453125 C 4.800781 -5.453125 4.769531 -5.460938 4.75 -5.484375 C 4.738281 -5.503906 4.71875 -5.550781 4.6875 -5.625 C 4.664062 -5.707031 4.617188 -5.78125 4.546875 -5.84375 C 4.472656 -5.914062 4.363281 -5.976562 4.21875 -6.03125 C 3.925781 -6.113281 3.382812 -6.15625 2.59375 -6.15625 L 2.15625 -6.15625 C 2.082031 -6.15625 2.035156 -6.144531 2.015625 -6.125 C 1.992188 -6.101562 1.984375 -6.050781 1.984375 -5.96875 L 1.984375 -3.90625 C 2.367188 -3.863281 2.6875 -3.84375 2.9375 -3.84375 C 3.195312 -3.84375 3.378906 -3.84375 3.484375 -3.84375 C 3.597656 -3.851562 3.691406 -3.863281 3.765625 -3.875 C 3.890625 -3.894531 3.976562 -3.953125 4.03125 -4.046875 C 4.144531 -4.222656 4.234375 -4.3125 4.296875 -4.3125 C 4.390625 -4.3125 4.4375 -4.265625 4.4375 -4.171875 L 4.265625 -3.484375 L 4.28125 -3.109375 C 4.28125 -2.867188 4.222656 -2.75 4.109375 -2.75 C 4.015625 -2.75 3.96875 -2.8125 3.96875 -2.9375 C 3.96875 -3.0625 3.960938 -3.15625 3.953125 -3.21875 C 3.941406 -3.28125 3.898438 -3.332031 3.828125 -3.375 C 3.722656 -3.425781 3.46875 -3.453125 3.0625 -3.453125 C 2.664062 -3.453125 2.304688 -3.429688 1.984375 -3.390625 L 1.984375 -2.234375 C 1.984375 -1.515625 2 -0.921875 2.03125 -0.453125 C 2.289062 -0.390625 2.570312 -0.359375 2.875 -0.359375 C 3.1875 -0.359375 3.453125 -0.367188 3.671875 -0.390625 C 3.898438 -0.410156 4.09375 -0.441406 4.25 -0.484375 C 4.5625 -0.578125 4.796875 -0.757812 4.953125 -1.03125 C 5.015625 -1.144531 5.078125 -1.203125 5.140625 -1.203125 C 5.203125 -1.203125 5.234375 -1.15625 5.234375 -1.0625 C 5.234375 -1.019531 5.222656 -0.96875 5.203125 -0.90625 C 5.179688 -0.820312 5.144531 -0.695312 5.09375 -0.53125 C 5.039062 -0.363281 5 -0.242188 4.96875 -0.171875 C 4.945312 -0.0976562 4.921875 -0.0390625 4.890625 0 C 4.835938 0.0625 4.738281 0.09375 4.59375 0.09375 C 4.457031 0.09375 4.320312 0.09375 4.1875 0.09375 C 4.050781 0.09375 3.910156 0.09375 3.765625 0.09375 C 3.597656 0.0820312 3.335938 0.0664062 2.984375 0.046875 C 2.097656 0.00390625 1.578125 -0.0078125 1.421875 0 C 1.273438 0.0195312 1.160156 0.03125 1.078125 0.03125 C 1.003906 0.0390625 0.925781 0.0507812 0.84375 0.0625 C 0.769531 0.0703125 0.6875 0.078125 0.59375 0.078125 Z M 0.59375 0.078125 "/></g></g></g><g fill="#ffffff" fill-opacity="1"><g transform="translate(127.608214, 238.430728)"><g><path d="M 0.59375 0.078125 C 0.414062 0.078125 0.328125 0.015625 0.328125 -0.109375 C 0.328125 -0.203125 0.390625 -0.25 0.515625 -0.25 L 0.75 -0.21875 C 0.945312 -0.21875 1.078125 -0.328125 1.140625 -0.546875 C 1.191406 -0.734375 1.21875 -1.066406 1.21875 -1.546875 L 1.21875 -5 C 1.21875 -5.476562 1.195312 -5.789062 1.15625 -5.9375 C 1.113281 -6.082031 1.0625 -6.179688 1 -6.234375 C 0.9375 -6.285156 0.851562 -6.3125 0.75 -6.3125 L 0.515625 -6.296875 C 0.390625 -6.296875 0.328125 -6.34375 0.328125 -6.4375 C 0.328125 -6.5625 0.414062 -6.625 0.59375 -6.625 C 0.78125 -6.625 0.953125 -6.609375 1.109375 -6.578125 C 1.273438 -6.554688 1.441406 -6.546875 1.609375 -6.546875 C 1.785156 -6.546875 1.953125 -6.554688 2.109375 -6.578125 C 2.265625 -6.609375 2.429688 -6.625 2.609375 -6.625 C 2.785156 -6.625 2.875 -6.5625 2.875 -6.4375 C 2.875 -6.34375 2.816406 -6.296875 2.703125 -6.296875 L 2.46875 -6.3125 C 2.269531 -6.3125 2.140625 -6.203125 2.078125 -5.984375 C 2.023438 -5.816406 2 -5.488281 2 -5 L 2 -2.234375 C 2 -1.523438 2.015625 -0.9375 2.046875 -0.46875 C 2.273438 -0.394531 2.535156 -0.359375 2.828125 -0.359375 C 3.117188 -0.359375 3.367188 -0.375 3.578125 -0.40625 C 3.796875 -0.445312 3.984375 -0.5 4.140625 -0.5625 C 4.429688 -0.6875 4.65625 -0.890625 4.8125 -1.171875 C 4.882812 -1.285156 4.953125 -1.34375 5.015625 -1.34375 C 5.078125 -1.34375 5.109375 -1.296875 5.109375 -1.203125 C 5.109375 -1.160156 5.097656 -1.113281 5.078125 -1.0625 C 5.054688 -0.96875 5.019531 -0.835938 4.96875 -0.671875 C 4.914062 -0.503906 4.875 -0.375 4.84375 -0.28125 C 4.8125 -0.195312 4.773438 -0.125 4.734375 -0.0625 C 4.660156 0.0390625 4.550781 0.09375 4.40625 0.09375 C 4.269531 0.09375 4.140625 0.09375 4.015625 0.09375 C 3.898438 0.09375 3.773438 0.0859375 3.640625 0.078125 C 3.503906 0.078125 3.359375 0.0703125 3.203125 0.0625 C 3.046875 0.0507812 2.867188 0.0390625 2.671875 0.03125 C 2.472656 0.03125 2.296875 0.0234375 2.140625 0.015625 C 1.992188 0.00390625 1.847656 0 1.703125 0 C 1.566406 0 1.445312 0.00390625 1.34375 0.015625 C 1.25 0.0234375 1.160156 0.03125 1.078125 0.03125 C 1.003906 0.0390625 0.929688 0.0507812 0.859375 0.0625 C 0.785156 0.0703125 0.695312 0.078125 0.59375 0.078125 Z M 0.59375 0.078125 "/></g></g></g><g fill="#ffffff" fill-opacity="1"><g transform="translate(140.962611, 238.430728)"><g><path d="M 0.59375 0.078125 C 0.40625 0.078125 0.3125 0.015625 0.3125 -0.109375 C 0.3125 -0.203125 0.375 -0.25 0.5 -0.25 L 0.734375 -0.21875 C 0.910156 -0.21875 1.035156 -0.296875 1.109375 -0.453125 C 1.179688 -0.640625 1.21875 -1 1.21875 -1.53125 L 1.21875 -5 C 1.21875 -5.53125 1.191406 -5.863281 1.140625 -6 C 1.085938 -6.144531 1.03125 -6.234375 0.96875 -6.265625 C 0.90625 -6.296875 0.828125 -6.3125 0.734375 -6.3125 L 0.5 -6.296875 C 0.375 -6.296875 0.3125 -6.34375 0.3125 -6.4375 C 0.3125 -6.5625 0.398438 -6.625 0.578125 -6.625 C 0.753906 -6.625 0.894531 -6.617188 1 -6.609375 C 1.113281 -6.597656 1.226562 -6.585938 1.34375 -6.578125 C 1.644531 -6.554688 1.882812 -6.546875 2.0625 -6.546875 C 2.238281 -6.546875 2.421875 -6.546875 2.609375 -6.546875 C 2.804688 -6.554688 3.023438 -6.566406 3.265625 -6.578125 C 3.898438 -6.609375 4.34375 -6.625 4.59375 -6.625 C 4.84375 -6.625 4.976562 -6.609375 5 -6.578125 C 5.03125 -6.546875 5.046875 -6.503906 5.046875 -6.453125 C 5.046875 -6.398438 5.046875 -6.351562 5.046875 -6.3125 C 5.046875 -6.269531 5.039062 -6.21875 5.03125 -6.15625 C 5.03125 -6.082031 5.019531 -5.972656 5 -5.828125 C 4.988281 -5.679688 4.96875 -5.582031 4.9375 -5.53125 C 4.914062 -5.476562 4.882812 -5.453125 4.84375 -5.453125 C 4.800781 -5.453125 4.769531 -5.460938 4.75 -5.484375 C 4.738281 -5.503906 4.71875 -5.550781 4.6875 -5.625 C 4.664062 -5.707031 4.617188 -5.78125 4.546875 -5.84375 C 4.472656 -5.914062 4.363281 -5.976562 4.21875 -6.03125 C 3.925781 -6.113281 3.382812 -6.15625 2.59375 -6.15625 L 2.15625 -6.15625 C 2.082031 -6.15625 2.035156 -6.144531 2.015625 -6.125 C 1.992188 -6.101562 1.984375 -6.050781 1.984375 -5.96875 L 1.984375 -3.90625 C 2.367188 -3.863281 2.6875 -3.84375 2.9375 -3.84375 C 3.195312 -3.84375 3.378906 -3.84375 3.484375 -3.84375 C 3.597656 -3.851562 3.691406 -3.863281 3.765625 -3.875 C 3.890625 -3.894531 3.976562 -3.953125 4.03125 -4.046875 C 4.144531 -4.222656 4.234375 -4.3125 4.296875 -4.3125 C 4.390625 -4.3125 4.4375 -4.265625 4.4375 -4.171875 L 4.265625 -3.484375 L 4.28125 -3.109375 C 4.28125 -2.867188 4.222656 -2.75 4.109375 -2.75 C 4.015625 -2.75 3.96875 -2.8125 3.96875 -2.9375 C 3.96875 -3.0625 3.960938 -3.15625 3.953125 -3.21875 C 3.941406 -3.28125 3.898438 -3.332031 3.828125 -3.375 C 3.722656 -3.425781 3.46875 -3.453125 3.0625 -3.453125 C 2.664062 -3.453125 2.304688 -3.429688 1.984375 -3.390625 L 1.984375 -2.234375 C 1.984375 -1.515625 2 -0.921875 2.03125 -0.453125 C 2.289062 -0.390625 2.570312 -0.359375 2.875 -0.359375 C 3.1875 -0.359375 3.453125 -0.367188 3.671875 -0.390625 C 3.898438 -0.410156 4.09375 -0.441406 4.25 -0.484375 C 4.5625 -0.578125 4.796875 -0.757812 4.953125 -1.03125 C 5.015625 -1.144531 5.078125 -1.203125 5.140625 -1.203125 C 5.203125 -1.203125 5.234375 -1.15625 5.234375 -1.0625 C 5.234375 -1.019531 5.222656 -0.96875 5.203125 -0.90625 C 5.179688 -0.820312 5.144531 -0.695312 5.09375 -0.53125 C 5.039062 -0.363281 5 -0.242188 4.96875 -0.171875 C 4.945312 -0.0976562 4.921875 -0.0390625 4.890625 0 C 4.835938 0.0625 4.738281 0.09375 4.59375 0.09375 C 4.457031 0.09375 4.320312 0.09375 4.1875 0.09375 C 4.050781 0.09375 3.910156 0.09375 3.765625 0.09375 C 3.597656 0.0820312 3.335938 0.0664062 2.984375 0.046875 C 2.097656 0.00390625 1.578125 -0.0078125 1.421875 0 C 1.273438 0.0195312 1.160156 0.03125 1.078125 0.03125 C 1.003906 0.0390625 0.925781 0.0507812 0.84375 0.0625 C 0.769531 0.0703125 0.6875 0.078125 0.59375 0.078125 Z M 0.59375 0.078125 "/></g></g></g><g fill="#ffffff" fill-opacity="1"><g transform="translate(154.59034, 238.430728)"><g><path d="M 6.6875 -5.125 C 6.6875 -5 6.640625 -4.9375 6.546875 -4.9375 C 6.472656 -4.9375 6.410156 -5.015625 6.359375 -5.171875 C 6.304688 -5.335938 6.207031 -5.488281 6.0625 -5.625 C 5.925781 -5.757812 5.757812 -5.878906 5.5625 -5.984375 C 5.15625 -6.179688 4.71875 -6.28125 4.25 -6.28125 C 3.789062 -6.28125 3.390625 -6.21875 3.046875 -6.09375 C 2.703125 -5.96875 2.410156 -5.785156 2.171875 -5.546875 C 1.660156 -5.046875 1.40625 -4.375 1.40625 -3.53125 C 1.40625 -2.59375 1.691406 -1.820312 2.265625 -1.21875 C 2.835938 -0.601562 3.566406 -0.296875 4.453125 -0.296875 C 5.441406 -0.296875 6.207031 -0.753906 6.75 -1.671875 C 6.78125 -1.722656 6.816406 -1.753906 6.859375 -1.765625 C 6.898438 -1.765625 6.9375 -1.722656 6.96875 -1.640625 C 7 -1.566406 7.015625 -1.476562 7.015625 -1.375 C 7.015625 -1.21875 6.875 -1.007812 6.59375 -0.75 C 6.320312 -0.488281 5.988281 -0.273438 5.59375 -0.109375 C 5.195312 0.046875 4.734375 0.125 4.203125 0.125 C 3.679688 0.125 3.1875 0.0390625 2.71875 -0.125 C 2.25 -0.300781 1.851562 -0.535156 1.53125 -0.828125 C 0.832031 -1.453125 0.484375 -2.226562 0.484375 -3.15625 C 0.484375 -4.207031 0.832031 -5.050781 1.53125 -5.6875 C 2.226562 -6.34375 3.144531 -6.671875 4.28125 -6.671875 C 5.101562 -6.671875 5.78125 -6.5625 6.3125 -6.34375 C 6.414062 -6.289062 6.488281 -6.242188 6.53125 -6.203125 C 6.59375 -6.109375 6.628906 -5.972656 6.640625 -5.796875 C 6.648438 -5.617188 6.65625 -5.492188 6.65625 -5.421875 C 6.675781 -5.265625 6.6875 -5.164062 6.6875 -5.125 Z M 6.6875 -5.125 "/></g></g></g><g fill="#ffffff" fill-opacity="1"><g transform="translate(169.853164, 238.430728)"><g><path d="M 2 0.078125 C 1.789062 0.078125 1.6875 0.015625 1.6875 -0.109375 C 1.6875 -0.203125 1.742188 -0.25 1.859375 -0.25 L 2.09375 -0.21875 C 2.289062 -0.21875 2.421875 -0.328125 2.484375 -0.546875 C 2.546875 -0.734375 2.578125 -1.066406 2.578125 -1.546875 L 2.578125 -6.109375 L 2.453125 -6.109375 C 1.878906 -6.109375 1.421875 -6.050781 1.078125 -5.9375 C 0.847656 -5.851562 0.691406 -5.707031 0.609375 -5.5 C 0.546875 -5.351562 0.476562 -5.28125 0.40625 -5.28125 C 0.3125 -5.28125 0.265625 -5.332031 0.265625 -5.4375 C 0.265625 -5.476562 0.269531 -5.519531 0.28125 -5.5625 C 0.300781 -5.601562 0.320312 -5.648438 0.34375 -5.703125 C 0.394531 -5.859375 0.425781 -6.019531 0.4375 -6.1875 C 0.445312 -6.363281 0.460938 -6.476562 0.484375 -6.53125 C 0.515625 -6.59375 0.550781 -6.625 0.59375 -6.625 C 0.644531 -6.625 0.691406 -6.617188 0.734375 -6.609375 C 0.773438 -6.597656 0.832031 -6.585938 0.90625 -6.578125 C 1.101562 -6.554688 1.347656 -6.546875 1.640625 -6.546875 L 4.734375 -6.546875 C 4.984375 -6.546875 5.160156 -6.554688 5.265625 -6.578125 C 5.378906 -6.609375 5.457031 -6.625 5.5 -6.625 C 5.613281 -6.625 5.671875 -6.570312 5.671875 -6.46875 C 5.671875 -6.414062 5.660156 -6.351562 5.640625 -6.28125 C 5.585938 -6.125 5.550781 -5.988281 5.53125 -5.875 C 5.519531 -5.757812 5.507812 -5.664062 5.5 -5.59375 C 5.488281 -5.519531 5.472656 -5.460938 5.453125 -5.421875 C 5.429688 -5.347656 5.394531 -5.3125 5.34375 -5.3125 C 5.289062 -5.3125 5.253906 -5.328125 5.234375 -5.359375 C 5.222656 -5.398438 5.207031 -5.472656 5.1875 -5.578125 C 5.175781 -5.691406 5.148438 -5.78125 5.109375 -5.84375 C 5.066406 -5.914062 5.015625 -5.96875 4.953125 -6 C 4.835938 -6.070312 4.648438 -6.109375 4.390625 -6.109375 L 3.34375 -6.109375 L 3.34375 -1.546875 C 3.34375 -1.054688 3.363281 -0.738281 3.40625 -0.59375 C 3.457031 -0.457031 3.515625 -0.359375 3.578125 -0.296875 C 3.640625 -0.242188 3.722656 -0.21875 3.828125 -0.21875 L 4.0625 -0.25 C 4.175781 -0.25 4.234375 -0.203125 4.234375 -0.109375 C 4.234375 0.015625 4.128906 0.078125 3.921875 0.078125 C 3.816406 0.078125 3.703125 0.0664062 3.578125 0.046875 C 3.191406 -0.015625 2.859375 -0.0234375 2.578125 0.015625 C 2.296875 0.0546875 2.101562 0.078125 2 0.078125 Z M 2 0.078125 "/></g></g></g><g fill="#ffffff" fill-opacity="1"><g transform="translate(183.783507, 238.430728)"><g><path d="M 0.65625 0.078125 C 0.4375 0.078125 0.328125 0.015625 0.328125 -0.109375 C 0.328125 -0.203125 0.390625 -0.25 0.515625 -0.25 L 0.75 -0.21875 C 0.945312 -0.21875 1.078125 -0.328125 1.140625 -0.546875 C 1.191406 -0.734375 1.21875 -1.066406 1.21875 -1.546875 L 1.21875 -5 C 1.21875 -5.476562 1.195312 -5.789062 1.15625 -5.9375 C 1.113281 -6.082031 1.0625 -6.179688 1 -6.234375 C 0.9375 -6.285156 0.851562 -6.3125 0.75 -6.3125 L 0.515625 -6.296875 C 0.390625 -6.296875 0.328125 -6.34375 0.328125 -6.4375 C 0.328125 -6.5625 0.414062 -6.625 0.59375 -6.625 C 0.78125 -6.625 0.953125 -6.609375 1.109375 -6.578125 C 1.273438 -6.554688 1.441406 -6.546875 1.609375 -6.546875 C 1.785156 -6.546875 1.953125 -6.554688 2.109375 -6.578125 C 2.273438 -6.609375 2.484375 -6.625 2.734375 -6.625 C 2.992188 -6.625 3.265625 -6.582031 3.546875 -6.5 C 3.835938 -6.414062 4.082031 -6.300781 4.28125 -6.15625 C 4.695312 -5.84375 4.90625 -5.429688 4.90625 -4.921875 C 4.90625 -4.359375 4.671875 -3.867188 4.203125 -3.453125 C 4.054688 -3.328125 3.894531 -3.21875 3.71875 -3.125 L 5.296875 -0.828125 C 5.472656 -0.554688 5.671875 -0.394531 5.890625 -0.34375 C 5.953125 -0.320312 6.03125 -0.304688 6.125 -0.296875 C 6.289062 -0.285156 6.375 -0.234375 6.375 -0.140625 C 6.375 -0.046875 6.285156 0 6.109375 0 L 5.171875 0 C 4.941406 0 4.738281 -0.144531 4.5625 -0.4375 L 3.328125 -2.40625 C 3.210938 -2.582031 3.101562 -2.707031 3 -2.78125 C 2.90625 -2.851562 2.753906 -2.890625 2.546875 -2.890625 C 2.335938 -2.890625 2.15625 -2.882812 2 -2.875 L 2 -1.546875 C 2 -1.054688 2.019531 -0.738281 2.0625 -0.59375 C 2.101562 -0.457031 2.15625 -0.359375 2.21875 -0.296875 C 2.28125 -0.242188 2.363281 -0.21875 2.46875 -0.21875 L 2.703125 -0.25 C 2.816406 -0.25 2.875 -0.203125 2.875 -0.109375 C 2.875 0.015625 2.769531 0.078125 2.5625 0.078125 C 2.457031 0.078125 2.347656 0.0664062 2.234375 0.046875 C 1.835938 -0.015625 1.5 -0.0234375 1.21875 0.015625 C 0.945312 0.0546875 0.757812 0.078125 0.65625 0.078125 Z M 2 -3.296875 C 2.207031 -3.273438 2.410156 -3.265625 2.609375 -3.265625 L 2.90625 -3.265625 C 3.226562 -3.265625 3.5 -3.375 3.71875 -3.59375 C 3.96875 -3.84375 4.09375 -4.179688 4.09375 -4.609375 C 4.09375 -5.128906 3.9375 -5.539062 3.625 -5.84375 C 3.320312 -6.132812 2.9375 -6.28125 2.46875 -6.28125 C 2.3125 -6.28125 2.191406 -6.253906 2.109375 -6.203125 C 2.035156 -6.160156 2 -6.085938 2 -5.984375 Z M 2 -3.296875 "/></g></g></g><g fill="#ffffff" fill-opacity="1"><g transform="translate(198.138483, 238.430728)"><g><path d="M 0.484375 -3.3125 C 0.484375 -3.800781 0.578125 -4.25 0.765625 -4.65625 C 0.953125 -5.070312 1.203125 -5.425781 1.515625 -5.71875 C 1.828125 -6.019531 2.1875 -6.253906 2.59375 -6.421875 C 3.007812 -6.585938 3.457031 -6.671875 3.9375 -6.671875 C 4.414062 -6.671875 4.859375 -6.582031 5.265625 -6.40625 C 5.679688 -6.226562 6.035156 -5.988281 6.328125 -5.6875 C 6.941406 -5.039062 7.25 -4.21875 7.25 -3.21875 C 7.25 -2.269531 6.929688 -1.476562 6.296875 -0.84375 C 5.648438 -0.195312 4.828125 0.125 3.828125 0.125 C 2.847656 0.125 2.046875 -0.203125 1.421875 -0.859375 C 0.796875 -1.503906 0.484375 -2.320312 0.484375 -3.3125 Z M 1.328125 -3.578125 C 1.328125 -3.160156 1.394531 -2.742188 1.53125 -2.328125 C 1.664062 -1.921875 1.863281 -1.566406 2.125 -1.265625 C 2.664062 -0.609375 3.351562 -0.28125 4.1875 -0.28125 C 4.820312 -0.28125 5.34375 -0.519531 5.75 -1 C 6.175781 -1.5 6.390625 -2.148438 6.390625 -2.953125 C 6.390625 -3.910156 6.132812 -4.703125 5.625 -5.328125 C 5.113281 -5.953125 4.472656 -6.265625 3.703125 -6.265625 C 3.054688 -6.265625 2.503906 -6.019531 2.046875 -5.53125 C 1.566406 -5.019531 1.328125 -4.367188 1.328125 -3.578125 Z M 1.328125 -3.578125 "/></g></g></g><g fill="#ffffff" fill-opacity="1"><g transform="translate(213.874766, 238.430728)"><g><path d="M 0.671875 0.078125 C 0.453125 0.078125 0.34375 0.015625 0.34375 -0.109375 C 0.34375 -0.203125 0.398438 -0.25 0.515625 -0.25 L 0.765625 -0.21875 C 0.960938 -0.21875 1.09375 -0.328125 1.15625 -0.546875 C 1.207031 -0.734375 1.234375 -1.066406 1.234375 -1.546875 L 1.234375 -4.984375 C 1.234375 -5.460938 1.210938 -5.773438 1.171875 -5.921875 C 1.128906 -6.066406 1.070312 -6.164062 1 -6.21875 C 0.9375 -6.269531 0.859375 -6.296875 0.765625 -6.296875 L 0.515625 -6.28125 C 0.398438 -6.28125 0.34375 -6.328125 0.34375 -6.421875 C 0.34375 -6.546875 0.453125 -6.609375 0.671875 -6.609375 L 1.296875 -6.546875 C 1.441406 -6.546875 1.566406 -6.554688 1.671875 -6.578125 L 6.171875 -1.34375 L 6.171875 -5 C 6.171875 -5.46875 6.144531 -5.773438 6.09375 -5.921875 C 6.039062 -6.078125 5.984375 -6.179688 5.921875 -6.234375 C 5.859375 -6.285156 5.773438 -6.3125 5.671875 -6.3125 L 5.421875 -6.296875 C 5.304688 -6.296875 5.25 -6.34375 5.25 -6.4375 C 5.25 -6.5625 5.351562 -6.625 5.5625 -6.625 C 5.644531 -6.625 5.753906 -6.613281 5.890625 -6.59375 C 6.066406 -6.5625 6.222656 -6.546875 6.359375 -6.546875 C 6.503906 -6.546875 6.640625 -6.554688 6.765625 -6.578125 C 6.898438 -6.609375 7.054688 -6.625 7.234375 -6.625 C 7.421875 -6.625 7.515625 -6.5625 7.515625 -6.4375 C 7.515625 -6.34375 7.453125 -6.296875 7.328125 -6.296875 L 7.09375 -6.3125 C 6.894531 -6.3125 6.765625 -6.203125 6.703125 -5.984375 C 6.640625 -5.816406 6.609375 -5.488281 6.609375 -5 L 6.609375 -0.0625 C 6.609375 0.0507812 6.597656 0.125 6.578125 0.15625 C 6.566406 0.1875 6.539062 0.203125 6.5 0.203125 C 6.4375 0.203125 6.34375 0.132812 6.21875 0 L 1.71875 -5.203125 L 1.71875 -1.546875 C 1.71875 -1.054688 1.738281 -0.738281 1.78125 -0.59375 C 1.820312 -0.457031 1.875 -0.359375 1.9375 -0.296875 C 2 -0.242188 2.082031 -0.21875 2.1875 -0.21875 L 2.421875 -0.25 C 2.546875 -0.25 2.609375 -0.203125 2.609375 -0.109375 C 2.609375 0.015625 2.515625 0.078125 2.328125 0.078125 C 2.140625 0.078125 1.972656 0.0625 1.828125 0.03125 C 1.679688 0.0078125 1.539062 0 1.40625 0 C 1.269531 0 1.132812 0.0078125 1 0.03125 C 0.863281 0.0625 0.753906 0.078125 0.671875 0.078125 Z M 0.671875 0.078125 "/></g></g></g><g fill="#ffffff" fill-opacity="1"><g transform="translate(229.464616, 238.430728)"><g><path d="M 0.71875 0.078125 C 0.5 0.078125 0.390625 0.015625 0.390625 -0.109375 C 0.390625 -0.203125 0.453125 -0.25 0.578125 -0.25 L 0.8125 -0.21875 C 0.988281 -0.21875 1.109375 -0.304688 1.171875 -0.484375 C 1.253906 -0.671875 1.296875 -1.023438 1.296875 -1.546875 L 1.265625 -5 C 1.265625 -5.53125 1.234375 -5.863281 1.171875 -6 C 1.117188 -6.144531 1.0625 -6.234375 1 -6.265625 C 0.9375 -6.296875 0.863281 -6.3125 0.78125 -6.3125 L 0.546875 -6.296875 C 0.429688 -6.296875 0.375 -6.34375 0.375 -6.4375 C 0.375 -6.5625 0.460938 -6.625 0.640625 -6.625 C 0.816406 -6.625 0.984375 -6.609375 1.140625 -6.578125 C 1.304688 -6.554688 1.476562 -6.546875 1.65625 -6.546875 C 1.832031 -6.546875 2 -6.554688 2.15625 -6.578125 C 2.3125 -6.609375 2.476562 -6.625 2.65625 -6.625 C 2.84375 -6.625 2.9375 -6.5625 2.9375 -6.4375 C 2.9375 -6.34375 2.875 -6.296875 2.75 -6.296875 L 2.515625 -6.3125 C 2.335938 -6.3125 2.21875 -6.226562 2.15625 -6.0625 C 2.082031 -5.875 2.046875 -5.519531 2.046875 -5 L 2.0625 -1.546875 C 2.0625 -1.023438 2.09375 -0.691406 2.15625 -0.546875 C 2.21875 -0.398438 2.28125 -0.304688 2.34375 -0.265625 C 2.414062 -0.234375 2.492188 -0.21875 2.578125 -0.21875 L 2.8125 -0.25 C 2.925781 -0.25 2.984375 -0.203125 2.984375 -0.109375 C 2.984375 0.015625 2.878906 0.078125 2.671875 0.078125 C 2.566406 0.078125 2.453125 0.0664062 2.328125 0.046875 C 1.921875 -0.015625 1.578125 -0.0234375 1.296875 0.015625 C 1.015625 0.0546875 0.820312 0.078125 0.71875 0.078125 Z M 0.71875 0.078125 "/></g></g></g><g fill="#ffffff" fill-opacity="1"><g transform="translate(240.773908, 238.430728)"><g><path d="M 6.6875 -5.125 C 6.6875 -5 6.640625 -4.9375 6.546875 -4.9375 C 6.472656 -4.9375 6.410156 -5.015625 6.359375 -5.171875 C 6.304688 -5.335938 6.207031 -5.488281 6.0625 -5.625 C 5.925781 -5.757812 5.757812 -5.878906 5.5625 -5.984375 C 5.15625 -6.179688 4.71875 -6.28125 4.25 -6.28125 C 3.789062 -6.28125 3.390625 -6.21875 3.046875 -6.09375 C 2.703125 -5.96875 2.410156 -5.785156 2.171875 -5.546875 C 1.660156 -5.046875 1.40625 -4.375 1.40625 -3.53125 C 1.40625 -2.59375 1.691406 -1.820312 2.265625 -1.21875 C 2.835938 -0.601562 3.566406 -0.296875 4.453125 -0.296875 C 5.441406 -0.296875 6.207031 -0.753906 6.75 -1.671875 C 6.78125 -1.722656 6.816406 -1.753906 6.859375 -1.765625 C 6.898438 -1.765625 6.9375 -1.722656 6.96875 -1.640625 C 7 -1.566406 7.015625 -1.476562 7.015625 -1.375 C 7.015625 -1.21875 6.875 -1.007812 6.59375 -0.75 C 6.320312 -0.488281 5.988281 -0.273438 5.59375 -0.109375 C 5.195312 0.046875 4.734375 0.125 4.203125 0.125 C 3.679688 0.125 3.1875 0.0390625 2.71875 -0.125 C 2.25 -0.300781 1.851562 -0.535156 1.53125 -0.828125 C 0.832031 -1.453125 0.484375 -2.226562 0.484375 -3.15625 C 0.484375 -4.207031 0.832031 -5.050781 1.53125 -5.6875 C 2.226562 -6.34375 3.144531 -6.671875 4.28125 -6.671875 C 5.101562 -6.671875 5.78125 -6.5625 6.3125 -6.34375 C 6.414062 -6.289062 6.488281 -6.242188 6.53125 -6.203125 C 6.59375 -6.109375 6.628906 -5.972656 6.640625 -5.796875 C 6.648438 -5.617188 6.65625 -5.492188 6.65625 -5.421875 C 6.675781 -5.265625 6.6875 -5.164062 6.6875 -5.125 Z M 6.6875 -5.125 "/></g></g></g><g fill="#ffffff" fill-opacity="1"><g transform="translate(256.036731, 238.430728)"><g><path d="M 3.796875 -6.46875 L 4 -6.5 C 4.09375 -6.5 4.144531 -6.425781 4.15625 -6.28125 C 4.164062 -6.132812 4.175781 -6.007812 4.1875 -5.90625 C 4.207031 -5.8125 4.222656 -5.726562 4.234375 -5.65625 C 4.253906 -5.582031 4.269531 -5.519531 4.28125 -5.46875 C 4.289062 -5.414062 4.296875 -5.367188 4.296875 -5.328125 C 4.296875 -5.296875 4.273438 -5.265625 4.234375 -5.234375 C 4.203125 -5.210938 4.164062 -5.203125 4.125 -5.203125 C 4.050781 -5.203125 3.976562 -5.28125 3.90625 -5.4375 C 3.769531 -5.738281 3.65625 -5.929688 3.5625 -6.015625 C 3.351562 -6.203125 3.039062 -6.296875 2.625 -6.296875 C 2.050781 -6.296875 1.664062 -6.128906 1.46875 -5.796875 C 1.40625 -5.679688 1.375 -5.539062 1.375 -5.375 C 1.375 -5.21875 1.410156 -5.070312 1.484375 -4.9375 C 1.566406 -4.800781 1.6875 -4.660156 1.84375 -4.515625 C 2 -4.367188 2.195312 -4.210938 2.4375 -4.046875 C 2.6875 -3.890625 2.953125 -3.710938 3.234375 -3.515625 C 3.515625 -3.328125 3.734375 -3.15625 3.890625 -3 C 4.046875 -2.851562 4.171875 -2.703125 4.265625 -2.546875 C 4.453125 -2.253906 4.546875 -1.972656 4.546875 -1.703125 C 4.546875 -1.429688 4.503906 -1.1875 4.421875 -0.96875 C 4.347656 -0.757812 4.222656 -0.570312 4.046875 -0.40625 C 3.671875 -0.0507812 3.109375 0.125 2.359375 0.125 C 1.984375 0.125 1.566406 0.0390625 1.109375 -0.125 C 1.003906 -0.164062 0.941406 -0.207031 0.921875 -0.25 C 0.890625 -0.300781 0.863281 -0.40625 0.84375 -0.5625 C 0.820312 -0.71875 0.796875 -0.851562 0.765625 -0.96875 C 0.734375 -1.09375 0.703125 -1.207031 0.671875 -1.3125 L 0.609375 -1.5625 C 0.585938 -1.632812 0.578125 -1.695312 0.578125 -1.75 C 0.578125 -1.863281 0.617188 -1.921875 0.703125 -1.921875 C 0.828125 -1.921875 0.914062 -1.832031 0.96875 -1.65625 C 1.050781 -1.332031 1.128906 -1.125 1.203125 -1.03125 C 1.484375 -0.664062 1.804688 -0.429688 2.171875 -0.328125 C 2.273438 -0.296875 2.414062 -0.28125 2.59375 -0.28125 C 2.78125 -0.28125 2.957031 -0.304688 3.125 -0.359375 C 3.300781 -0.410156 3.445312 -0.484375 3.5625 -0.578125 C 3.78125 -0.742188 3.890625 -0.953125 3.890625 -1.203125 C 3.890625 -1.460938 3.804688 -1.691406 3.640625 -1.890625 C 3.484375 -2.097656 3.289062 -2.273438 3.0625 -2.421875 C 2.832031 -2.578125 2.660156 -2.691406 2.546875 -2.765625 C 2.441406 -2.835938 2.335938 -2.90625 2.234375 -2.96875 C 1.410156 -3.519531 0.925781 -4.066406 0.78125 -4.609375 C 0.738281 -4.753906 0.71875 -4.914062 0.71875 -5.09375 C 0.71875 -5.28125 0.765625 -5.472656 0.859375 -5.671875 C 0.953125 -5.867188 1.082031 -6.039062 1.25 -6.1875 C 1.625 -6.507812 2.109375 -6.671875 2.703125 -6.671875 C 2.972656 -6.671875 3.1875 -6.640625 3.34375 -6.578125 C 3.570312 -6.503906 3.722656 -6.46875 3.796875 -6.46875 Z M 3.796875 -6.46875 "/></g></g></g></svg>