<?xml version="1.0" encoding="UTF-8"?>
<svg xmlns="http://www.w3.org/2000/svg" xmlns:xlink="http://www.w3.org/1999/xlink" width="160px" height="100px" viewBox="0 0 160 100" version="1.1">
<g id="surface1">
<path style=" stroke:none;fill-rule:nonzero;fill:rgb(0%,0%,0%);fill-opacity:1;" d="M 28.820312 48.796875 C 28.863281 48.796875 28.886719 48.808594 28.886719 48.824219 C 28.886719 48.855469 28.863281 48.867188 28.820312 48.867188 L 26.464844 48.867188 C 26.785156 48.941406 27.035156 49.066406 27.214844 49.242188 C 27.394531 49.417969 27.488281 49.609375 27.488281 49.816406 C 27.503906 50.011719 27.421875 50.191406 27.238281 50.351562 L 18.894531 58.058594 C 18.835938 58.121094 18.796875 58.191406 18.78125 58.269531 C 18.78125 58.371094 18.839844 58.460938 18.960938 58.53125 C 19.078125 58.601562 19.222656 58.636719 19.394531 58.636719 L 22.828125 58.636719 C 23.972656 58.636719 24.859375 58.589844 25.488281 58.492188 C 26.113281 58.398438 26.5625 58.289062 26.839844 58.160156 C 27.121094 58.03125 27.296875 57.917969 27.375 57.816406 C 27.390625 57.804688 27.40625 57.796875 27.421875 57.785156 C 27.433594 57.785156 27.449219 57.785156 27.464844 57.785156 C 27.480469 57.796875 27.488281 57.804688 27.488281 57.816406 C 27.503906 57.824219 27.503906 57.832031 27.488281 57.84375 L 26.832031 58.6875 C 26.832031 58.707031 26.816406 58.71875 26.785156 58.71875 L 16.425781 58.71875 C 16.414062 58.71875 16.398438 58.714844 16.386719 58.707031 C 16.367188 58.695312 16.359375 58.683594 16.359375 58.675781 C 16.359375 58.667969 16.367188 58.660156 16.386719 58.648438 C 16.398438 58.640625 16.414062 58.636719 16.425781 58.636719 L 18.78125 58.636719 C 18.464844 58.558594 18.214844 58.4375 18.035156 58.269531 C 17.855469 58.101562 17.765625 57.910156 17.765625 57.703125 C 17.75 57.503906 17.820312 57.320312 17.988281 57.152344 L 26.332031 49.460938 C 26.410156 49.398438 26.453125 49.320312 26.464844 49.234375 C 26.464844 49.132812 26.40625 49.046875 26.285156 48.976562 C 26.167969 48.902344 26.023438 48.867188 25.859375 48.867188 L 22.421875 48.867188 C 21.277344 48.867188 20.394531 48.917969 19.765625 49.007812 C 19.140625 49.105469 18.6875 49.21875 18.40625 49.351562 C 18.125 49.480469 17.949219 49.597656 17.878906 49.703125 C 17.863281 49.710938 17.835938 49.714844 17.808594 49.714844 C 17.808594 49.714844 17.800781 49.714844 17.785156 49.714844 C 17.773438 49.703125 17.765625 49.699219 17.765625 49.691406 C 17.75 49.679688 17.75 49.667969 17.765625 49.660156 L 18.421875 48.8125 C 18.421875 48.800781 18.433594 48.796875 18.464844 48.796875 Z M 28.820312 48.796875 "/>
<path style=" stroke:none;fill-rule:nonzero;fill:rgb(0%,0%,0%);fill-opacity:1;" d="M 32.691406 50.140625 C 33.484375 49.640625 34.378906 49.265625 35.375 49.019531 C 36.371094 48.765625 37.398438 48.640625 38.460938 48.640625 C 39.523438 48.640625 40.554688 48.765625 41.550781 49.019531 C 42.542969 49.265625 43.441406 49.640625 44.242188 50.140625 C 45.011719 50.621094 45.601562 51.175781 46.015625 51.800781 C 46.429688 52.425781 46.636719 53.078125 46.636719 53.761719 C 46.636719 54.4375 46.429688 55.089844 46.015625 55.71875 C 45.601562 56.34375 45.011719 56.890625 44.242188 57.363281 C 43.472656 57.84375 42.585938 58.214844 41.582031 58.472656 C 40.582031 58.730469 39.539062 58.859375 38.457031 58.859375 C 37.367188 58.859375 36.324219 58.730469 35.328125 58.472656 C 34.335938 58.214844 33.457031 57.84375 32.691406 57.363281 C 31.890625 56.863281 31.289062 56.304688 30.890625 55.679688 C 30.488281 55.058594 30.289062 54.417969 30.289062 53.753906 C 30.289062 53.089844 30.488281 52.445312 30.890625 51.820312 C 31.289062 51.203125 31.890625 50.640625 32.691406 50.140625 Z M 32.757812 50.199219 C 32.152344 50.570312 31.730469 51.023438 31.488281 51.546875 C 31.25 52.070312 31.183594 52.621094 31.296875 53.199219 C 31.40625 53.78125 31.691406 54.355469 32.148438 54.933594 C 32.609375 55.503906 33.234375 56.039062 34.023438 56.527344 C 34.804688 57.019531 35.65625 57.410156 36.574219 57.699219 C 37.496094 57.984375 38.417969 58.164062 39.34375 58.234375 C 40.269531 58.304688 41.152344 58.265625 41.988281 58.113281 C 42.828125 57.960938 43.550781 57.695312 44.148438 57.320312 C 44.753906 56.941406 45.179688 56.496094 45.429688 55.980469 C 45.679688 55.460938 45.75 54.90625 45.644531 54.308594 C 45.523438 53.707031 45.230469 53.117188 44.761719 52.542969 C 44.296875 51.96875 43.679688 51.445312 42.910156 50.972656 C 42.003906 50.398438 41.003906 49.964844 39.910156 49.671875 C 38.816406 49.378906 37.75 49.234375 36.710938 49.234375 C 35.957031 49.234375 35.242188 49.316406 34.5625 49.476562 C 33.882812 49.632812 33.28125 49.875 32.757812 50.199219 Z M 32.757812 50.199219 "/>
<path style=" stroke:none;fill-rule:nonzero;fill:rgb(0%,0%,0%);fill-opacity:1;" d="M 61.785156 48.796875 C 61.828125 48.796875 61.851562 48.808594 61.851562 48.824219 C 61.851562 48.824219 61.851562 48.832031 61.851562 48.835938 C 61.851562 48.839844 61.851562 48.839844 61.851562 48.839844 C 61.851562 48.859375 61.828125 48.867188 61.785156 48.867188 L 61.652344 48.867188 C 61.363281 48.898438 61.121094 48.980469 60.925781 49.113281 C 60.730469 49.25 60.632812 49.414062 60.632812 49.601562 L 60.632812 51.90625 C 60.632812 52.304688 60.425781 52.660156 60.019531 52.96875 C 59.613281 53.277344 59.101562 53.476562 58.484375 53.558594 C 59.101562 53.648438 59.613281 53.84375 60.019531 54.15625 C 60.425781 54.464844 60.632812 54.820312 60.632812 55.226562 L 60.632812 57.023438 C 60.632812 57.390625 60.453125 57.722656 60.097656 58.027344 C 59.746094 58.328125 59.285156 58.539062 58.710938 58.648438 L 61.785156 58.648438 C 61.828125 58.648438 61.851562 58.65625 61.851562 58.675781 C 61.851562 58.703125 61.828125 58.71875 61.785156 58.71875 L 57.917969 58.71875 C 57.875 58.71875 57.851562 58.703125 57.851562 58.675781 C 57.851562 58.65625 57.875 58.648438 57.917969 58.648438 C 57.9375 58.648438 57.957031 58.648438 57.980469 58.640625 C 58 58.636719 58.019531 58.636719 58.03125 58.636719 C 58.335938 58.617188 58.582031 58.539062 58.777344 58.402344 C 58.972656 58.265625 59.074219 58.101562 59.074219 57.914062 L 59.074219 54.339844 C 59.074219 54.152344 58.972656 53.984375 58.777344 53.84375 C 58.582031 53.703125 58.335938 53.621094 58.03125 53.601562 C 58.019531 53.601562 58 53.601562 57.980469 53.601562 C 57.957031 53.601562 57.9375 53.601562 57.917969 53.601562 L 52.511719 53.601562 C 52.5 53.601562 52.480469 53.601562 52.460938 53.601562 C 52.4375 53.601562 52.417969 53.601562 52.40625 53.601562 C 52.101562 53.621094 51.855469 53.703125 51.660156 53.84375 C 51.460938 53.984375 51.367188 54.152344 51.367188 54.339844 L 51.367188 57.023438 C 51.367188 57.390625 51.1875 57.722656 50.832031 58.015625 C 50.476562 58.316406 50.019531 58.519531 49.464844 58.636719 L 52.511719 58.636719 C 52.5625 58.636719 52.585938 58.648438 52.585938 58.675781 C 52.585938 58.703125 52.5625 58.71875 52.511719 58.71875 L 48.804688 58.71875 C 48.773438 58.71875 48.746094 58.71875 48.726562 58.71875 C 48.703125 58.71875 48.675781 58.71875 48.644531 58.71875 C 48.601562 58.71875 48.578125 58.703125 48.578125 58.675781 C 48.578125 58.648438 48.601562 58.636719 48.644531 58.636719 L 48.785156 58.636719 C 49.070312 58.617188 49.308594 58.539062 49.507812 58.402344 C 49.699219 58.265625 49.800781 58.101562 49.800781 57.914062 L 49.800781 55.226562 C 49.800781 54.820312 50.003906 54.464844 50.414062 54.15625 C 50.820312 53.84375 51.335938 53.648438 51.953125 53.558594 C 51.335938 53.476562 50.820312 53.277344 50.414062 52.96875 C 50.003906 52.660156 49.800781 52.304688 49.800781 51.90625 L 49.800781 50.492188 C 49.800781 50.117188 49.976562 49.78125 50.332031 49.484375 C 50.6875 49.1875 51.152344 48.980469 51.726562 48.867188 L 48.644531 48.867188 C 48.601562 48.867188 48.578125 48.855469 48.578125 48.824219 C 48.578125 48.808594 48.601562 48.796875 48.644531 48.796875 L 52.511719 48.796875 C 52.5625 48.796875 52.585938 48.808594 52.585938 48.824219 C 52.585938 48.855469 52.5625 48.867188 52.511719 48.867188 C 52.5 48.867188 52.480469 48.867188 52.460938 48.867188 C 52.4375 48.867188 52.417969 48.867188 52.40625 48.867188 C 52.101562 48.890625 51.855469 48.96875 51.660156 49.109375 C 51.460938 49.25 51.367188 49.414062 51.367188 49.601562 L 51.367188 52.796875 C 51.367188 52.984375 51.460938 53.148438 51.660156 53.285156 C 51.855469 53.421875 52.101562 53.5 52.40625 53.519531 C 52.417969 53.519531 52.4375 53.519531 52.460938 53.527344 C 52.480469 53.53125 52.5 53.53125 52.511719 53.53125 L 57.917969 53.53125 C 57.9375 53.53125 57.957031 53.53125 57.980469 53.527344 C 58 53.519531 58.019531 53.519531 58.03125 53.519531 C 58.335938 53.5 58.582031 53.421875 58.777344 53.285156 C 58.972656 53.148438 59.074219 52.984375 59.074219 52.796875 L 59.074219 50.492188 C 59.074219 50.128906 59.25 49.792969 59.605469 49.492188 C 59.960938 49.191406 60.414062 48.980469 60.972656 48.867188 L 57.917969 48.867188 C 57.875 48.867188 57.851562 48.859375 57.851562 48.839844 C 57.851562 48.8125 57.875 48.796875 57.917969 48.796875 L 61.625 48.796875 C 61.65625 48.796875 61.6875 48.796875 61.71875 48.796875 C 61.75 48.796875 61.773438 48.796875 61.785156 48.796875 Z M 61.785156 48.796875 "/>
<path style=" stroke:none;fill-rule:nonzero;fill:rgb(0%,0%,0%);fill-opacity:1;" d="M 79.492188 58.636719 C 79.519531 58.636719 79.542969 58.648438 79.558594 58.675781 C 79.558594 58.703125 79.535156 58.71875 79.492188 58.71875 L 75.605469 58.71875 C 75.554688 58.71875 75.53125 58.703125 75.53125 58.675781 C 75.53125 58.648438 75.554688 58.636719 75.605469 58.636719 C 75.832031 58.636719 76.027344 58.585938 76.191406 58.488281 C 76.355469 58.390625 76.4375 58.265625 76.4375 58.109375 C 76.4375 58.015625 76.398438 57.929688 76.324219 57.855469 L 74.585938 55.367188 C 74.28125 54.945312 73.820312 54.609375 73.203125 54.359375 C 72.585938 54.109375 71.90625 53.984375 71.171875 53.984375 C 70.492188 53.984375 69.867188 54.089844 69.304688 54.296875 C 68.738281 54.503906 68.289062 54.78125 67.957031 55.140625 C 67.628906 55.492188 67.464844 55.878906 67.464844 56.300781 C 67.464844 56.734375 67.628906 57.128906 67.957031 57.484375 C 68.289062 57.835938 68.738281 58.117188 69.304688 58.328125 C 69.867188 58.53125 70.492188 58.636719 71.171875 58.636719 C 71.214844 58.636719 71.238281 58.648438 71.238281 58.675781 C 71.238281 58.703125 71.214844 58.71875 71.171875 58.71875 L 62.964844 58.71875 C 62.914062 58.71875 62.890625 58.703125 62.890625 58.675781 C 62.890625 58.648438 62.914062 58.636719 62.964844 58.636719 C 63.53125 58.636719 64.058594 58.539062 64.542969 58.339844 C 65.027344 58.140625 65.378906 57.875 65.605469 57.546875 L 71.417969 48.726562 L 71.464844 48.667969 C 71.464844 48.660156 71.472656 48.65625 71.484375 48.65625 C 71.484375 48.65625 71.484375 48.652344 71.484375 48.640625 C 71.5 48.640625 71.511719 48.640625 71.511719 48.640625 C 71.523438 48.640625 71.539062 48.640625 71.550781 48.640625 C 71.550781 48.640625 71.550781 48.648438 71.550781 48.65625 C 71.566406 48.65625 71.578125 48.660156 71.578125 48.667969 L 77.390625 56.96875 C 77.511719 57.125 77.570312 57.296875 77.570312 57.476562 C 77.570312 57.742188 77.453125 57.980469 77.21875 58.1875 C 76.984375 58.402344 76.671875 58.550781 76.277344 58.636719 Z M 71.171875 53.902344 C 71.773438 53.902344 72.339844 53.984375 72.863281 54.148438 C 73.390625 54.3125 73.835938 54.539062 74.199219 54.832031 L 70.765625 49.914062 L 65.71875 57.5625 C 65.71875 57.566406 65.71875 57.574219 65.71875 57.574219 C 65.703125 57.582031 65.703125 57.582031 65.71875 57.574219 L 65.128906 58.433594 C 65.128906 58.453125 65.113281 58.464844 65.085938 58.464844 C 65.070312 58.464844 65.0625 58.464844 65.0625 58.464844 C 65.019531 58.453125 65.003906 58.4375 65.015625 58.410156 L 65.289062 58.015625 C 64.898438 58.324219 64.402344 58.53125 63.796875 58.636719 L 70.21875 58.636719 C 69.371094 58.5 68.679688 58.21875 68.136719 57.785156 C 67.59375 57.351562 67.324219 56.863281 67.324219 56.316406 C 67.324219 55.875 67.496094 55.46875 67.84375 55.101562 C 68.191406 54.734375 68.652344 54.441406 69.230469 54.226562 C 69.8125 54.007812 70.460938 53.902344 71.171875 53.902344 Z M 71.171875 53.902344 "/>
<path style=" stroke:none;fill-rule:nonzero;fill:rgb(0%,0%,0%);fill-opacity:1;" d="M 92.558594 48.8125 L 93.21875 49.660156 C 93.230469 49.6875 93.214844 49.703125 93.171875 49.714844 C 93.171875 49.714844 93.160156 49.714844 93.144531 49.714844 C 93.117188 49.714844 93.105469 49.710938 93.105469 49.703125 C 93.011719 49.597656 92.824219 49.480469 92.542969 49.351562 C 92.269531 49.21875 91.816406 49.105469 91.191406 49.007812 C 90.5625 48.917969 89.6875 48.867188 88.558594 48.867188 C 88.527344 48.867188 88.5 48.867188 88.484375 48.867188 C 88.472656 48.867188 88.457031 48.867188 88.445312 48.867188 C 88.140625 48.890625 87.886719 48.96875 87.683594 49.109375 C 87.480469 49.25 87.378906 49.414062 87.378906 49.601562 L 87.378906 57.023438 C 87.378906 57.390625 87.199219 57.722656 86.84375 58.027344 C 86.492188 58.328125 86.03125 58.539062 85.457031 58.648438 L 88.558594 58.648438 C 88.585938 58.648438 88.605469 58.65625 88.605469 58.675781 C 88.605469 58.703125 88.585938 58.71875 88.558594 58.71875 L 84.664062 58.71875 C 84.621094 58.71875 84.597656 58.703125 84.597656 58.675781 C 84.597656 58.65625 84.621094 58.648438 84.664062 58.648438 C 84.679688 58.648438 84.699219 58.648438 84.722656 58.648438 C 84.746094 58.648438 84.765625 58.640625 84.777344 58.636719 C 85.078125 58.617188 85.332031 58.539062 85.539062 58.402344 C 85.742188 58.265625 85.84375 58.101562 85.84375 57.914062 L 85.84375 50.492188 C 85.84375 50.117188 86.019531 49.78125 86.371094 49.484375 C 86.726562 49.1875 87.183594 48.980469 87.746094 48.867188 L 84.664062 48.867188 C 83.535156 48.867188 82.652344 48.917969 82.019531 49.007812 C 81.386719 49.105469 80.929688 49.21875 80.652344 49.351562 C 80.375 49.480469 80.199219 49.597656 80.125 49.703125 C 80.105469 49.710938 80.089844 49.714844 80.078125 49.714844 C 80.058594 49.714844 80.050781 49.714844 80.050781 49.714844 C 80.039062 49.703125 80.023438 49.699219 80.011719 49.691406 C 80.011719 49.679688 80.011719 49.667969 80.011719 49.660156 L 80.664062 48.8125 C 80.675781 48.800781 80.699219 48.796875 80.730469 48.796875 L 92.492188 48.796875 C 92.519531 48.796875 92.542969 48.800781 92.558594 48.8125 Z M 92.558594 48.8125 "/>
<path style=" stroke:none;fill-rule:nonzero;fill:rgb(0%,0%,0%);fill-opacity:1;" d="M 104.722656 57.785156 C 104.769531 57.796875 104.785156 57.816406 104.769531 57.84375 L 104.109375 58.6875 C 104.097656 58.699219 104.089844 58.707031 104.089844 58.707031 C 104.074219 58.714844 104.058594 58.71875 104.042969 58.71875 L 94.589844 58.71875 C 94.558594 58.71875 94.53125 58.71875 94.511719 58.71875 C 94.488281 58.71875 94.460938 58.71875 94.429688 58.71875 C 94.386719 58.71875 94.363281 58.703125 94.363281 58.675781 C 94.363281 58.648438 94.386719 58.636719 94.429688 58.636719 L 94.570312 58.636719 C 94.855469 58.617188 95.09375 58.539062 95.292969 58.402344 C 95.484375 58.265625 95.585938 58.101562 95.585938 57.914062 L 95.585938 55.226562 C 95.585938 54.820312 95.789062 54.464844 96.199219 54.15625 C 96.605469 53.84375 97.121094 53.648438 97.738281 53.558594 C 97.121094 53.476562 96.605469 53.277344 96.199219 52.96875 C 95.789062 52.660156 95.585938 52.304688 95.585938 51.90625 L 95.585938 50.492188 C 95.585938 50.117188 95.761719 49.78125 96.117188 49.484375 C 96.472656 49.1875 96.9375 48.980469 97.511719 48.867188 L 94.429688 48.867188 C 94.386719 48.867188 94.363281 48.855469 94.363281 48.824219 C 94.363281 48.808594 94.386719 48.796875 94.429688 48.796875 L 103.589844 48.796875 C 103.609375 48.796875 103.609375 48.796875 103.589844 48.796875 C 103.609375 48.796875 103.617188 48.796875 103.617188 48.796875 C 103.617188 48.796875 103.625 48.800781 103.636719 48.8125 C 103.636719 48.820312 103.636719 48.824219 103.636719 48.824219 C 103.636719 48.824219 103.636719 48.832031 103.636719 48.839844 L 100.335938 56.574219 C 100.335938 56.589844 100.320312 56.597656 100.292969 56.597656 C 100.292969 56.597656 100.285156 56.597656 100.269531 56.597656 C 100.238281 56.597656 100.222656 56.585938 100.222656 56.554688 L 101.492188 53.601562 L 98.296875 53.601562 C 98.285156 53.601562 98.265625 53.601562 98.246094 53.601562 C 98.222656 53.601562 98.203125 53.601562 98.191406 53.601562 C 97.886719 53.621094 97.640625 53.703125 97.445312 53.84375 C 97.246094 53.984375 97.152344 54.152344 97.152344 54.339844 L 97.152344 57.023438 C 97.152344 57.390625 96.972656 57.722656 96.617188 58.015625 C 96.261719 58.316406 95.804688 58.519531 95.25 58.636719 L 98.777344 58.636719 C 99.742188 58.636719 100.648438 58.597656 101.496094 58.523438 C 102.351562 58.449219 103.058594 58.347656 103.625 58.226562 C 104.191406 58.101562 104.539062 57.964844 104.65625 57.816406 C 104.65625 57.804688 104.664062 57.796875 104.679688 57.785156 C 104.691406 57.785156 104.707031 57.785156 104.722656 57.785156 Z M 98.296875 53.53125 L 101.511719 53.53125 L 103.164062 49.671875 C 103.222656 49.5625 103.191406 49.457031 103.070312 49.363281 C 102.859375 49.195312 102.367188 49.070312 101.589844 48.988281 C 100.8125 48.910156 99.714844 48.867188 98.296875 48.867188 C 98.285156 48.867188 98.265625 48.867188 98.246094 48.867188 C 98.222656 48.867188 98.203125 48.867188 98.191406 48.867188 C 97.886719 48.890625 97.640625 48.96875 97.445312 49.109375 C 97.246094 49.25 97.152344 49.414062 97.152344 49.601562 L 97.152344 52.796875 C 97.152344 52.984375 97.246094 53.148438 97.445312 53.285156 C 97.640625 53.421875 97.886719 53.5 98.191406 53.519531 C 98.203125 53.519531 98.222656 53.519531 98.246094 53.527344 C 98.265625 53.53125 98.285156 53.53125 98.296875 53.53125 Z M 98.296875 53.53125 "/>
<path style=" stroke:none;fill-rule:nonzero;fill:rgb(0%,0%,0%);fill-opacity:1;" d="M 119.285156 53.039062 C 119.269531 53.03125 119.253906 53.015625 119.238281 53.011719 C 119.238281 53 119.238281 52.988281 119.238281 52.980469 L 120.125 51.527344 C 119.609375 50.675781 118.859375 50.003906 117.871094 49.507812 C 116.882812 49.007812 115.8125 48.742188 114.652344 48.714844 L 114.605469 48.714844 C 114.574219 48.714844 114.535156 48.714844 114.492188 48.714844 C 114.445312 48.714844 114.394531 48.714844 114.332031 48.714844 C 113.503906 48.730469 112.71875 48.871094 111.972656 49.136719 C 111.222656 49.398438 110.5625 49.761719 109.992188 50.226562 C 109.40625 50.707031 108.953125 51.25 108.644531 51.851562 C 108.335938 52.453125 108.183594 53.089844 108.183594 53.761719 C 108.183594 54.417969 108.335938 55.050781 108.644531 55.660156 C 108.953125 56.265625 109.40625 56.808594 109.992188 57.277344 C 110.5625 57.75 111.222656 58.113281 111.972656 58.371094 C 112.71875 58.628906 113.496094 58.769531 114.3125 58.789062 L 114.359375 58.789062 C 114.414062 58.789062 114.453125 58.789062 114.472656 58.789062 C 114.496094 58.789062 114.527344 58.789062 114.558594 58.789062 C 114.585938 58.789062 114.609375 58.789062 114.625 58.789062 C 115.8125 58.761719 116.898438 58.496094 117.878906 57.992188 C 118.859375 57.488281 119.613281 56.816406 120.144531 55.976562 C 120.144531 55.957031 120.160156 55.949219 120.191406 55.949219 C 120.222656 55.949219 120.238281 55.957031 120.238281 55.976562 L 120.824219 56.949219 C 120.835938 56.964844 120.835938 56.972656 120.824219 56.980469 C 120.066406 57.5625 119.148438 58.023438 118.0625 58.351562 C 116.980469 58.683594 115.839844 58.851562 114.652344 58.859375 L 114.605469 58.859375 C 114.574219 58.859375 114.535156 58.859375 114.492188 58.859375 C 114.445312 58.859375 114.394531 58.859375 114.332031 58.859375 C 113.257812 58.851562 112.230469 58.714844 111.246094 58.453125 C 110.257812 58.1875 109.394531 57.816406 108.65625 57.335938 C 107.902344 56.855469 107.320312 56.304688 106.910156 55.6875 C 106.507812 55.070312 106.304688 54.425781 106.304688 53.761719 C 106.304688 53.089844 106.507812 52.445312 106.910156 51.820312 C 107.320312 51.203125 107.902344 50.648438 108.65625 50.167969 C 109.394531 49.699219 110.253906 49.328125 111.230469 49.058594 C 112.210938 48.792969 113.238281 48.652344 114.3125 48.640625 L 114.378906 48.640625 C 114.40625 48.640625 114.445312 48.640625 114.492188 48.640625 C 114.519531 48.640625 114.574219 48.640625 114.652344 48.640625 C 115.839844 48.660156 116.980469 48.832031 118.0625 49.160156 C 119.148438 49.484375 120.066406 49.9375 120.824219 50.523438 C 120.804688 50.523438 120.804688 50.523438 120.824219 50.523438 C 120.824219 50.53125 120.824219 50.535156 120.824219 50.535156 C 120.824219 50.535156 120.824219 50.542969 120.824219 50.550781 C 120.824219 50.550781 120.824219 50.558594 120.824219 50.5625 L 120.238281 51.539062 L 119.351562 53.011719 C 119.351562 53.03125 119.335938 53.039062 119.304688 53.039062 C 119.289062 53.039062 119.285156 53.039062 119.285156 53.039062 Z M 119.285156 53.039062 "/>
<path style=" stroke:none;fill-rule:nonzero;fill:rgb(0%,0%,0%);fill-opacity:1;" d="M 135.992188 48.796875 C 136.035156 48.796875 136.058594 48.808594 136.058594 48.824219 C 136.058594 48.824219 136.058594 48.832031 136.058594 48.835938 C 136.058594 48.839844 136.058594 48.839844 136.058594 48.839844 C 136.058594 48.859375 136.035156 48.867188 135.992188 48.867188 L 135.859375 48.867188 C 135.570312 48.898438 135.328125 48.980469 135.132812 49.113281 C 134.933594 49.25 134.839844 49.414062 134.839844 49.601562 L 134.839844 51.90625 C 134.839844 52.304688 134.632812 52.660156 134.226562 52.96875 C 133.820312 53.277344 133.308594 53.476562 132.691406 53.558594 C 133.308594 53.648438 133.820312 53.84375 134.226562 54.15625 C 134.632812 54.464844 134.839844 54.820312 134.839844 55.226562 L 134.839844 57.023438 C 134.839844 57.390625 134.660156 57.722656 134.304688 58.027344 C 133.953125 58.328125 133.492188 58.539062 132.917969 58.648438 L 135.992188 58.648438 C 136.035156 58.648438 136.058594 58.65625 136.058594 58.675781 C 136.058594 58.703125 136.035156 58.71875 135.992188 58.71875 L 132.125 58.71875 C 132.082031 58.71875 132.058594 58.703125 132.058594 58.675781 C 132.058594 58.65625 132.082031 58.648438 132.125 58.648438 C 132.140625 58.648438 132.160156 58.648438 132.183594 58.640625 C 132.207031 58.636719 132.226562 58.636719 132.238281 58.636719 C 132.539062 58.617188 132.789062 58.539062 132.984375 58.402344 C 133.179688 58.265625 133.277344 58.101562 133.277344 57.914062 L 133.277344 54.339844 C 133.277344 54.152344 133.179688 53.984375 132.984375 53.84375 C 132.789062 53.703125 132.539062 53.621094 132.238281 53.601562 C 132.226562 53.601562 132.207031 53.601562 132.183594 53.601562 C 132.160156 53.601562 132.140625 53.601562 132.125 53.601562 L 126.71875 53.601562 C 126.707031 53.601562 126.6875 53.601562 126.664062 53.601562 C 126.640625 53.601562 126.625 53.601562 126.613281 53.601562 C 126.308594 53.621094 126.058594 53.703125 125.867188 53.84375 C 125.667969 53.984375 125.570312 54.152344 125.570312 54.339844 L 125.570312 57.023438 C 125.570312 57.390625 125.394531 57.722656 125.039062 58.015625 C 124.683594 58.316406 124.226562 58.519531 123.671875 58.636719 L 126.71875 58.636719 C 126.765625 58.636719 126.792969 58.648438 126.792969 58.675781 C 126.792969 58.703125 126.765625 58.71875 126.71875 58.71875 L 123.011719 58.71875 C 122.980469 58.71875 122.953125 58.71875 122.933594 58.71875 C 122.910156 58.71875 122.882812 58.71875 122.851562 58.71875 C 122.808594 58.71875 122.785156 58.703125 122.785156 58.675781 C 122.785156 58.648438 122.808594 58.636719 122.851562 58.636719 L 122.992188 58.636719 C 123.273438 58.617188 123.515625 58.539062 123.710938 58.402344 C 123.90625 58.265625 124.003906 58.101562 124.003906 57.914062 L 124.003906 55.226562 C 124.003906 54.820312 124.207031 54.464844 124.617188 54.15625 C 125.027344 53.84375 125.539062 53.648438 126.160156 53.558594 C 125.539062 53.476562 125.027344 53.277344 124.617188 52.96875 C 124.207031 52.660156 124.003906 52.304688 124.003906 51.90625 L 124.003906 50.492188 C 124.003906 50.117188 124.183594 49.78125 124.539062 49.484375 C 124.894531 49.1875 125.359375 48.980469 125.933594 48.867188 L 122.851562 48.867188 C 122.808594 48.867188 122.785156 48.855469 122.785156 48.824219 C 122.785156 48.808594 122.808594 48.796875 122.851562 48.796875 L 126.71875 48.796875 C 126.765625 48.796875 126.792969 48.808594 126.792969 48.824219 C 126.792969 48.855469 126.765625 48.867188 126.71875 48.867188 C 126.707031 48.867188 126.6875 48.867188 126.664062 48.867188 C 126.640625 48.867188 126.625 48.867188 126.613281 48.867188 C 126.308594 48.890625 126.058594 48.96875 125.867188 49.109375 C 125.667969 49.25 125.570312 49.414062 125.570312 49.601562 L 125.570312 52.796875 C 125.570312 52.984375 125.667969 53.148438 125.867188 53.285156 C 126.058594 53.421875 126.308594 53.5 126.613281 53.519531 C 126.625 53.519531 126.640625 53.519531 126.664062 53.527344 C 126.6875 53.53125 126.707031 53.53125 126.71875 53.53125 L 132.125 53.53125 C 132.140625 53.53125 132.160156 53.53125 132.183594 53.527344 C 132.207031 53.519531 132.226562 53.519531 132.238281 53.519531 C 132.539062 53.5 132.789062 53.421875 132.984375 53.285156 C 133.179688 53.148438 133.277344 52.984375 133.277344 52.796875 L 133.277344 50.492188 C 133.277344 50.128906 133.457031 49.792969 133.8125 49.492188 C 134.167969 49.191406 134.621094 48.980469 135.179688 48.867188 L 132.125 48.867188 C 132.082031 48.867188 132.058594 48.859375 132.058594 48.839844 C 132.058594 48.8125 132.082031 48.796875 132.125 48.796875 L 135.832031 48.796875 C 135.863281 48.796875 135.894531 48.796875 135.925781 48.796875 C 135.957031 48.796875 135.980469 48.796875 135.992188 48.796875 Z M 135.992188 48.796875 "/>
<path style=" stroke:none;fill-rule:nonzero;fill:rgb(0%,0%,0%);fill-opacity:1;" d="M 48.886719 63.605469 C 48.804688 63.605469 48.765625 63.585938 48.765625 63.550781 C 48.765625 63.527344 48.792969 63.515625 48.84375 63.515625 L 48.945312 63.523438 C 49.019531 63.523438 49.074219 63.503906 49.105469 63.460938 C 49.136719 63.410156 49.152344 63.316406 49.152344 63.171875 L 49.152344 62.25 C 49.152344 62.105469 49.140625 62.019531 49.117188 61.980469 C 49.09375 61.941406 49.070312 61.917969 49.046875 61.910156 C 49.019531 61.902344 48.984375 61.898438 48.945312 61.898438 L 48.84375 61.902344 C 48.792969 61.902344 48.765625 61.890625 48.765625 61.867188 C 48.765625 61.832031 48.800781 61.8125 48.878906 61.8125 C 48.953125 61.8125 49.011719 61.816406 49.058594 61.820312 C 49.105469 61.820312 49.15625 61.828125 49.203125 61.828125 C 49.332031 61.832031 49.433594 61.835938 49.511719 61.835938 C 49.585938 61.835938 49.664062 61.835938 49.746094 61.835938 C 49.828125 61.832031 49.921875 61.832031 50.023438 61.828125 C 50.296875 61.820312 50.484375 61.8125 50.589844 61.8125 C 50.699219 61.8125 50.753906 61.820312 50.765625 61.828125 C 50.777344 61.835938 50.785156 61.847656 50.785156 61.859375 C 50.785156 61.875 50.785156 61.886719 50.785156 61.898438 C 50.785156 61.910156 50.78125 61.921875 50.777344 61.941406 C 50.777344 61.960938 50.773438 61.988281 50.765625 62.027344 C 50.761719 62.066406 50.75 62.09375 50.738281 62.105469 C 50.726562 62.121094 50.714844 62.125 50.699219 62.125 C 50.679688 62.125 50.667969 62.125 50.660156 62.121094 C 50.652344 62.113281 50.644531 62.101562 50.632812 62.082031 C 50.621094 62.0625 50.601562 62.042969 50.570312 62.023438 C 50.539062 62.003906 50.492188 61.988281 50.433594 61.972656 C 50.308594 61.949219 50.074219 61.941406 49.738281 61.941406 L 49.550781 61.941406 C 49.519531 61.941406 49.5 61.941406 49.492188 61.949219 C 49.480469 61.957031 49.476562 61.96875 49.476562 61.988281 L 49.476562 62.539062 C 49.640625 62.550781 49.777344 62.554688 49.886719 62.554688 C 49.996094 62.554688 50.074219 62.554688 50.117188 62.554688 C 50.167969 62.554688 50.207031 62.550781 50.238281 62.546875 C 50.292969 62.542969 50.328125 62.527344 50.351562 62.503906 C 50.398438 62.457031 50.4375 62.433594 50.464844 62.433594 C 50.503906 62.433594 50.523438 62.445312 50.523438 62.46875 L 50.453125 62.652344 L 50.457031 62.75 C 50.457031 62.816406 50.433594 62.847656 50.386719 62.847656 C 50.34375 62.847656 50.324219 62.832031 50.324219 62.796875 C 50.324219 62.765625 50.320312 62.738281 50.316406 62.722656 C 50.3125 62.707031 50.296875 62.691406 50.265625 62.679688 C 50.21875 62.667969 50.113281 62.660156 49.9375 62.660156 C 49.769531 62.660156 49.613281 62.667969 49.476562 62.679688 L 49.476562 62.984375 C 49.476562 63.175781 49.484375 63.335938 49.5 63.460938 C 49.609375 63.476562 49.726562 63.484375 49.859375 63.484375 C 49.992188 63.484375 50.105469 63.484375 50.199219 63.476562 C 50.296875 63.472656 50.378906 63.464844 50.445312 63.453125 C 50.578125 63.429688 50.679688 63.378906 50.746094 63.304688 C 50.773438 63.277344 50.796875 63.261719 50.824219 63.261719 C 50.851562 63.261719 50.863281 63.273438 50.863281 63.296875 C 50.863281 63.3125 50.859375 63.324219 50.851562 63.339844 C 50.839844 63.363281 50.828125 63.394531 50.804688 63.441406 C 50.78125 63.484375 50.765625 63.519531 50.75 63.535156 C 50.742188 63.554688 50.730469 63.570312 50.71875 63.582031 C 50.695312 63.597656 50.652344 63.605469 50.589844 63.605469 C 50.535156 63.605469 50.476562 63.605469 50.417969 63.605469 C 50.359375 63.605469 50.300781 63.605469 50.238281 63.605469 C 50.167969 63.605469 50.054688 63.597656 49.90625 63.59375 C 49.527344 63.582031 49.304688 63.578125 49.238281 63.582031 C 49.175781 63.585938 49.125 63.589844 49.089844 63.589844 C 49.058594 63.589844 49.027344 63.597656 48.992188 63.597656 C 48.960938 63.601562 48.925781 63.605469 48.886719 63.605469 Z M 48.886719 63.605469 "/>
<path style=" stroke:none;fill-rule:nonzero;fill:rgb(0%,0%,0%);fill-opacity:1;" d="M 54.699219 63.605469 C 54.621094 63.605469 54.585938 63.585938 54.585938 63.550781 C 54.585938 63.527344 54.613281 63.515625 54.667969 63.515625 L 54.765625 63.523438 C 54.847656 63.523438 54.90625 63.492188 54.933594 63.433594 C 54.953125 63.386719 54.964844 63.296875 54.964844 63.167969 L 54.964844 62.25 C 54.964844 62.121094 54.957031 62.039062 54.941406 61.996094 C 54.921875 61.960938 54.898438 61.933594 54.871094 61.917969 C 54.847656 61.90625 54.808594 61.898438 54.765625 61.898438 L 54.667969 61.902344 C 54.613281 61.902344 54.585938 61.890625 54.585938 61.867188 C 54.585938 61.832031 54.621094 61.8125 54.699219 61.8125 C 54.78125 61.8125 54.851562 61.820312 54.917969 61.828125 C 54.988281 61.832031 55.0625 61.835938 55.132812 61.835938 C 55.207031 61.835938 55.28125 61.832031 55.347656 61.828125 C 55.414062 61.820312 55.484375 61.8125 55.558594 61.8125 C 55.632812 61.8125 55.671875 61.832031 55.671875 61.867188 C 55.671875 61.890625 55.648438 61.902344 55.597656 61.902344 L 55.5 61.898438 C 55.414062 61.898438 55.359375 61.925781 55.332031 61.984375 C 55.308594 62.03125 55.300781 62.121094 55.300781 62.25 L 55.300781 62.984375 C 55.300781 63.175781 55.304688 63.332031 55.320312 63.457031 C 55.417969 63.476562 55.527344 63.484375 55.652344 63.484375 C 55.777344 63.484375 55.882812 63.480469 55.972656 63.472656 C 56.066406 63.460938 56.144531 63.449219 56.210938 63.433594 C 56.335938 63.398438 56.433594 63.34375 56.5 63.269531 C 56.53125 63.238281 56.558594 63.222656 56.585938 63.222656 C 56.613281 63.222656 56.625 63.234375 56.625 63.261719 C 56.625 63.273438 56.621094 63.285156 56.613281 63.296875 C 56.601562 63.324219 56.585938 63.359375 56.566406 63.402344 C 56.542969 63.449219 56.527344 63.480469 56.511719 63.503906 C 56.5 63.53125 56.484375 63.546875 56.464844 63.566406 C 56.433594 63.589844 56.386719 63.605469 56.324219 63.605469 C 56.269531 63.605469 56.210938 63.605469 56.160156 63.605469 C 56.109375 63.605469 56.054688 63.605469 56 63.605469 C 55.941406 63.605469 55.878906 63.601562 55.8125 63.597656 C 55.746094 63.597656 55.667969 63.589844 55.585938 63.589844 C 55.5 63.589844 55.425781 63.589844 55.359375 63.585938 C 55.296875 63.582031 55.234375 63.582031 55.171875 63.582031 C 55.113281 63.582031 55.0625 63.582031 55.019531 63.585938 C 54.980469 63.589844 54.941406 63.589844 54.90625 63.589844 C 54.875 63.589844 54.84375 63.597656 54.8125 63.597656 C 54.78125 63.601562 54.742188 63.605469 54.699219 63.605469 Z M 54.699219 63.605469 "/>
<path style=" stroke:none;fill-rule:nonzero;fill:rgb(0%,0%,0%);fill-opacity:1;" d="M 60.398438 63.605469 C 60.316406 63.605469 60.277344 63.585938 60.277344 63.550781 C 60.277344 63.527344 60.304688 63.515625 60.355469 63.515625 L 60.457031 63.523438 C 60.53125 63.523438 60.585938 63.503906 60.617188 63.460938 C 60.648438 63.410156 60.664062 63.316406 60.664062 63.171875 L 60.664062 62.25 C 60.664062 62.105469 60.652344 62.019531 60.628906 61.980469 C 60.605469 61.941406 60.585938 61.917969 60.558594 61.910156 C 60.53125 61.902344 60.496094 61.898438 60.457031 61.898438 L 60.355469 61.902344 C 60.304688 61.902344 60.277344 61.890625 60.277344 61.867188 C 60.277344 61.832031 60.3125 61.8125 60.390625 61.8125 C 60.464844 61.8125 60.527344 61.816406 60.570312 61.820312 C 60.617188 61.820312 60.667969 61.828125 60.71875 61.828125 C 60.847656 61.832031 60.949219 61.835938 61.023438 61.835938 C 61.097656 61.835938 61.175781 61.835938 61.257812 61.835938 C 61.339844 61.832031 61.433594 61.832031 61.539062 61.828125 C 61.808594 61.820312 61.996094 61.8125 62.105469 61.8125 C 62.210938 61.8125 62.265625 61.820312 62.277344 61.828125 C 62.289062 61.835938 62.296875 61.847656 62.296875 61.859375 C 62.296875 61.875 62.296875 61.886719 62.296875 61.898438 C 62.296875 61.910156 62.292969 61.921875 62.289062 61.941406 C 62.289062 61.960938 62.285156 61.988281 62.277344 62.027344 C 62.273438 62.066406 62.265625 62.09375 62.25 62.105469 C 62.242188 62.121094 62.226562 62.125 62.210938 62.125 C 62.191406 62.125 62.179688 62.125 62.171875 62.121094 C 62.164062 62.113281 62.15625 62.101562 62.144531 62.082031 C 62.132812 62.0625 62.113281 62.042969 62.085938 62.023438 C 62.050781 62.003906 62.003906 61.988281 61.945312 61.972656 C 61.820312 61.949219 61.585938 61.941406 61.25 61.941406 L 61.0625 61.941406 C 61.03125 61.941406 61.011719 61.941406 61.003906 61.949219 C 60.992188 61.957031 60.992188 61.96875 60.992188 61.988281 L 60.992188 62.539062 C 61.152344 62.550781 61.289062 62.554688 61.398438 62.554688 C 61.507812 62.554688 61.585938 62.554688 61.628906 62.554688 C 61.679688 62.554688 61.71875 62.550781 61.75 62.546875 C 61.804688 62.542969 61.839844 62.527344 61.863281 62.503906 C 61.914062 62.457031 61.949219 62.433594 61.976562 62.433594 C 62.015625 62.433594 62.039062 62.445312 62.039062 62.46875 L 61.964844 62.652344 L 61.972656 62.75 C 61.972656 62.816406 61.945312 62.847656 61.898438 62.847656 C 61.855469 62.847656 61.835938 62.832031 61.835938 62.796875 C 61.835938 62.765625 61.835938 62.738281 61.832031 62.722656 C 61.824219 62.707031 61.808594 62.691406 61.777344 62.679688 C 61.730469 62.667969 61.625 62.660156 61.449219 62.660156 C 61.28125 62.660156 61.128906 62.667969 60.992188 62.679688 L 60.992188 62.984375 C 60.992188 63.175781 60.996094 63.335938 61.011719 63.460938 C 61.121094 63.476562 61.242188 63.484375 61.371094 63.484375 C 61.503906 63.484375 61.617188 63.484375 61.710938 63.476562 C 61.808594 63.472656 61.890625 63.464844 61.957031 63.453125 C 62.089844 63.429688 62.191406 63.378906 62.257812 63.304688 C 62.285156 63.277344 62.3125 63.261719 62.335938 63.261719 C 62.363281 63.261719 62.378906 63.273438 62.378906 63.296875 C 62.378906 63.3125 62.371094 63.324219 62.363281 63.339844 C 62.355469 63.363281 62.339844 63.394531 62.316406 63.441406 C 62.292969 63.484375 62.277344 63.519531 62.265625 63.535156 C 62.253906 63.554688 62.242188 63.570312 62.230469 63.582031 C 62.207031 63.597656 62.164062 63.605469 62.105469 63.605469 C 62.046875 63.605469 61.988281 63.605469 61.929688 63.605469 C 61.871094 63.605469 61.8125 63.605469 61.75 63.605469 C 61.679688 63.605469 61.566406 63.597656 61.417969 63.59375 C 61.039062 63.582031 60.816406 63.578125 60.75 63.582031 C 60.6875 63.585938 60.640625 63.589844 60.605469 63.589844 C 60.574219 63.589844 60.539062 63.597656 60.503906 63.597656 C 60.472656 63.601562 60.4375 63.605469 60.398438 63.605469 Z M 60.398438 63.605469 "/>
<path style=" stroke:none;fill-rule:nonzero;fill:rgb(0%,0%,0%);fill-opacity:1;" d="M 68.8125 62.214844 C 68.8125 62.25 68.792969 62.265625 68.75 62.265625 C 68.71875 62.265625 68.695312 62.242188 68.671875 62.203125 C 68.648438 62.160156 68.605469 62.121094 68.546875 62.082031 C 68.488281 62.046875 68.414062 62.015625 68.332031 61.984375 C 68.160156 61.933594 67.972656 61.90625 67.773438 61.90625 C 67.574219 61.90625 67.40625 61.921875 67.257812 61.957031 C 67.113281 61.988281 66.988281 62.039062 66.886719 62.101562 C 66.667969 62.234375 66.558594 62.414062 66.558594 62.640625 C 66.558594 62.890625 66.679688 63.097656 66.925781 63.257812 C 67.167969 63.421875 67.480469 63.503906 67.859375 63.503906 C 68.28125 63.503906 68.605469 63.382812 68.839844 63.136719 C 68.851562 63.121094 68.867188 63.113281 68.886719 63.109375 C 68.902344 63.109375 68.917969 63.121094 68.933594 63.144531 C 68.945312 63.164062 68.953125 63.1875 68.953125 63.214844 C 68.953125 63.257812 68.890625 63.3125 68.773438 63.382812 C 68.65625 63.453125 68.511719 63.507812 68.34375 63.550781 C 68.175781 63.59375 67.980469 63.617188 67.75 63.617188 C 67.527344 63.617188 67.320312 63.589844 67.117188 63.546875 C 66.917969 63.5 66.75 63.441406 66.613281 63.363281 C 66.3125 63.191406 66.164062 62.988281 66.164062 62.738281 C 66.164062 62.457031 66.3125 62.234375 66.613281 62.066406 C 66.910156 61.890625 67.300781 61.800781 67.785156 61.800781 C 68.136719 61.800781 68.425781 61.832031 68.652344 61.890625 C 68.695312 61.90625 68.726562 61.917969 68.746094 61.925781 C 68.773438 61.953125 68.785156 61.988281 68.792969 62.035156 C 68.796875 62.082031 68.796875 62.117188 68.796875 62.136719 C 68.808594 62.179688 68.8125 62.203125 68.8125 62.214844 Z M 68.8125 62.214844 "/>
<path style=" stroke:none;fill-rule:nonzero;fill:rgb(0%,0%,0%);fill-opacity:1;" d="M 73.324219 63.605469 C 73.234375 63.605469 73.191406 63.585938 73.191406 63.550781 C 73.191406 63.527344 73.214844 63.515625 73.265625 63.515625 L 73.363281 63.523438 C 73.449219 63.523438 73.503906 63.492188 73.53125 63.433594 C 73.558594 63.386719 73.570312 63.296875 73.570312 63.167969 L 73.570312 61.953125 L 73.515625 61.953125 C 73.273438 61.953125 73.078125 61.96875 72.929688 61.996094 C 72.832031 62.023438 72.765625 62.0625 72.730469 62.113281 C 72.703125 62.152344 72.675781 62.171875 72.644531 62.171875 C 72.605469 62.171875 72.585938 62.160156 72.585938 62.132812 C 72.585938 62.121094 72.585938 62.109375 72.589844 62.097656 C 72.597656 62.085938 72.605469 62.074219 72.617188 62.0625 C 72.640625 62.019531 72.652344 61.976562 72.65625 61.929688 C 72.660156 61.886719 72.667969 61.855469 72.675781 61.839844 C 72.691406 61.824219 72.707031 61.8125 72.722656 61.8125 C 72.746094 61.8125 72.765625 61.816406 72.785156 61.820312 C 72.800781 61.820312 72.824219 61.828125 72.855469 61.828125 C 72.941406 61.832031 73.046875 61.835938 73.171875 61.835938 L 74.492188 61.835938 C 74.597656 61.835938 74.671875 61.832031 74.71875 61.828125 C 74.765625 61.820312 74.800781 61.8125 74.816406 61.8125 C 74.867188 61.8125 74.890625 61.828125 74.890625 61.855469 C 74.890625 61.871094 74.886719 61.886719 74.878906 61.90625 C 74.855469 61.949219 74.839844 61.984375 74.832031 62.015625 C 74.824219 62.046875 74.820312 62.070312 74.816406 62.089844 C 74.8125 62.109375 74.804688 62.125 74.796875 62.136719 C 74.789062 62.15625 74.773438 62.164062 74.75 62.164062 C 74.726562 62.164062 74.710938 62.160156 74.703125 62.152344 C 74.699219 62.140625 74.691406 62.121094 74.683594 62.09375 C 74.679688 62.0625 74.667969 62.042969 74.652344 62.023438 C 74.632812 62.003906 74.609375 61.988281 74.585938 61.980469 C 74.535156 61.964844 74.453125 61.953125 74.34375 61.953125 L 73.898438 61.953125 L 73.898438 63.167969 C 73.898438 63.300781 73.90625 63.382812 73.925781 63.421875 C 73.945312 63.460938 73.96875 63.484375 73.996094 63.503906 C 74.023438 63.519531 74.058594 63.523438 74.105469 63.523438 L 74.203125 63.515625 C 74.253906 63.515625 74.277344 63.527344 74.277344 63.550781 C 74.277344 63.585938 74.230469 63.605469 74.144531 63.605469 C 74.097656 63.605469 74.050781 63.597656 73.996094 63.59375 C 73.832031 63.578125 73.691406 63.574219 73.570312 63.585938 C 73.449219 63.597656 73.367188 63.605469 73.324219 63.605469 Z M 73.324219 63.605469 "/>
<path style=" stroke:none;fill-rule:nonzero;fill:rgb(0%,0%,0%);fill-opacity:1;" d="M 78.695312 63.605469 C 78.601562 63.605469 78.554688 63.585938 78.554688 63.550781 C 78.554688 63.527344 78.582031 63.515625 78.632812 63.515625 L 78.734375 63.523438 C 78.816406 63.523438 78.875 63.492188 78.902344 63.433594 C 78.921875 63.386719 78.933594 63.296875 78.933594 63.167969 L 78.933594 62.25 C 78.933594 62.121094 78.925781 62.039062 78.90625 61.996094 C 78.890625 61.960938 78.867188 61.933594 78.839844 61.917969 C 78.8125 61.90625 78.777344 61.898438 78.734375 61.898438 L 78.632812 61.902344 C 78.582031 61.902344 78.554688 61.890625 78.554688 61.867188 C 78.554688 61.832031 78.589844 61.8125 78.667969 61.8125 C 78.746094 61.8125 78.820312 61.820312 78.886719 61.828125 C 78.957031 61.832031 79.027344 61.835938 79.101562 61.835938 C 79.175781 61.835938 79.246094 61.832031 79.3125 61.828125 C 79.382812 61.820312 79.472656 61.8125 79.582031 61.8125 C 79.691406 61.8125 79.808594 61.828125 79.925781 61.847656 C 80.050781 61.871094 80.15625 61.902344 80.242188 61.941406 C 80.417969 62.023438 80.507812 62.132812 80.507812 62.269531 C 80.507812 62.417969 80.40625 62.550781 80.207031 62.660156 C 80.144531 62.691406 80.074219 62.722656 80 62.75 L 80.675781 63.363281 C 80.75 63.433594 80.835938 63.476562 80.925781 63.488281 C 80.953125 63.496094 80.988281 63.5 81.027344 63.503906 C 81.097656 63.503906 81.132812 63.519531 81.132812 63.542969 C 81.132812 63.570312 81.097656 63.582031 81.019531 63.582031 L 80.621094 63.582031 C 80.523438 63.582031 80.4375 63.542969 80.359375 63.464844 L 79.835938 62.941406 C 79.785156 62.894531 79.738281 62.859375 79.695312 62.839844 C 79.652344 62.824219 79.589844 62.808594 79.5 62.808594 C 79.410156 62.808594 79.335938 62.8125 79.269531 62.816406 L 79.269531 63.167969 C 79.269531 63.300781 79.277344 63.382812 79.292969 63.421875 C 79.3125 63.460938 79.335938 63.484375 79.359375 63.503906 C 79.386719 63.519531 79.421875 63.523438 79.46875 63.523438 L 79.566406 63.515625 C 79.617188 63.515625 79.640625 63.527344 79.640625 63.550781 C 79.640625 63.585938 79.597656 63.605469 79.507812 63.605469 C 79.460938 63.605469 79.414062 63.597656 79.367188 63.59375 C 79.199219 63.578125 79.054688 63.574219 78.933594 63.585938 C 78.816406 63.597656 78.738281 63.605469 78.695312 63.605469 Z M 79.269531 62.703125 C 79.355469 62.707031 79.441406 62.710938 79.527344 62.710938 L 79.652344 62.710938 C 79.789062 62.710938 79.90625 62.679688 80 62.621094 C 80.109375 62.554688 80.160156 62.464844 80.160156 62.355469 C 80.160156 62.214844 80.09375 62.105469 79.960938 62.023438 C 79.832031 61.945312 79.667969 61.90625 79.46875 61.90625 C 79.402344 61.90625 79.347656 61.914062 79.3125 61.925781 C 79.28125 61.9375 79.269531 61.957031 79.269531 61.984375 Z M 79.269531 62.703125 "/>
<path style=" stroke:none;fill-rule:nonzero;fill:rgb(0%,0%,0%);fill-opacity:1;" d="M 84.746094 62.699219 C 84.746094 62.566406 84.785156 62.449219 84.867188 62.339844 C 84.945312 62.230469 85.050781 62.132812 85.1875 62.054688 C 85.320312 61.976562 85.472656 61.914062 85.644531 61.871094 C 85.824219 61.828125 86.015625 61.800781 86.21875 61.800781 C 86.421875 61.800781 86.613281 61.828125 86.785156 61.871094 C 86.960938 61.921875 87.113281 61.984375 87.238281 62.066406 C 87.5 62.238281 87.632812 62.457031 87.632812 62.722656 C 87.632812 62.976562 87.496094 63.1875 87.226562 63.355469 C 86.949219 63.53125 86.597656 63.617188 86.171875 63.617188 C 85.753906 63.617188 85.414062 63.527344 85.144531 63.351562 C 84.878906 63.179688 84.746094 62.964844 84.746094 62.699219 Z M 85.105469 62.628906 C 85.105469 62.738281 85.132812 62.847656 85.191406 62.960938 C 85.25 63.070312 85.335938 63.164062 85.445312 63.246094 C 85.675781 63.417969 85.96875 63.503906 86.324219 63.503906 C 86.597656 63.503906 86.820312 63.441406 86.992188 63.316406 C 87.175781 63.179688 87.265625 63.007812 87.265625 62.792969 C 87.265625 62.539062 87.15625 62.328125 86.9375 62.160156 C 86.722656 61.996094 86.449219 61.910156 86.117188 61.910156 C 85.84375 61.910156 85.605469 61.976562 85.414062 62.105469 C 85.207031 62.242188 85.105469 62.417969 85.105469 62.628906 Z M 85.105469 62.628906 "/>
<path style=" stroke:none;fill-rule:nonzero;fill:rgb(0%,0%,0%);fill-opacity:1;" d="M 91.539062 63.605469 C 91.445312 63.605469 91.398438 63.585938 91.398438 63.550781 C 91.398438 63.527344 91.421875 63.515625 91.472656 63.515625 L 91.578125 63.523438 C 91.664062 63.523438 91.71875 63.492188 91.746094 63.433594 C 91.769531 63.386719 91.78125 63.296875 91.78125 63.167969 L 91.78125 62.253906 C 91.78125 62.125 91.769531 62.042969 91.753906 62.003906 C 91.734375 61.964844 91.710938 61.9375 91.679688 61.921875 C 91.652344 61.910156 91.621094 61.902344 91.578125 61.902344 L 91.472656 61.90625 C 91.421875 61.90625 91.398438 61.894531 91.398438 61.871094 C 91.398438 61.835938 91.445312 61.820312 91.539062 61.820312 L 91.804688 61.835938 C 91.867188 61.835938 91.921875 61.832031 91.964844 61.828125 L 93.886719 63.222656 L 93.886719 62.25 C 93.886719 62.125 93.875 62.042969 93.851562 62.003906 C 93.828125 61.960938 93.804688 61.933594 93.78125 61.917969 C 93.753906 61.90625 93.714844 61.898438 93.671875 61.898438 L 93.566406 61.902344 C 93.515625 61.902344 93.492188 61.890625 93.492188 61.867188 C 93.492188 61.832031 93.535156 61.8125 93.625 61.8125 C 93.660156 61.8125 93.707031 61.820312 93.765625 61.824219 C 93.839844 61.832031 93.910156 61.835938 93.964844 61.835938 C 94.027344 61.835938 94.085938 61.832031 94.140625 61.828125 C 94.195312 61.820312 94.261719 61.8125 94.339844 61.8125 C 94.417969 61.8125 94.460938 61.832031 94.460938 61.867188 C 94.460938 61.890625 94.433594 61.902344 94.378906 61.902344 L 94.28125 61.898438 C 94.195312 61.898438 94.140625 61.925781 94.113281 61.984375 C 94.085938 62.03125 94.074219 62.121094 94.074219 62.25 L 94.074219 63.566406 C 94.074219 63.597656 94.066406 63.617188 94.058594 63.625 C 94.054688 63.628906 94.042969 63.636719 94.027344 63.636719 C 94 63.636719 93.960938 63.617188 93.90625 63.582031 L 91.988281 62.195312 L 91.988281 63.167969 C 91.988281 63.300781 91.996094 63.382812 92.011719 63.421875 C 92.03125 63.460938 92.054688 63.484375 92.078125 63.503906 C 92.105469 63.519531 92.140625 63.523438 92.1875 63.523438 L 92.285156 63.515625 C 92.339844 63.515625 92.367188 63.527344 92.367188 63.550781 C 92.367188 63.585938 92.328125 63.605469 92.246094 63.605469 C 92.167969 63.605469 92.09375 63.597656 92.035156 63.589844 C 91.96875 63.585938 91.910156 63.582031 91.851562 63.582031 C 91.792969 63.582031 91.738281 63.585938 91.679688 63.589844 C 91.621094 63.597656 91.574219 63.605469 91.539062 63.605469 Z M 91.539062 63.605469 "/>
<path style=" stroke:none;fill-rule:nonzero;fill:rgb(0%,0%,0%);fill-opacity:1;" d="M 98.210938 63.605469 C 98.117188 63.605469 98.070312 63.585938 98.070312 63.550781 C 98.070312 63.527344 98.097656 63.515625 98.152344 63.515625 L 98.25 63.523438 C 98.328125 63.523438 98.378906 63.5 98.40625 63.453125 C 98.441406 63.402344 98.457031 63.308594 98.457031 63.167969 L 98.445312 62.25 C 98.445312 62.105469 98.429688 62.019531 98.40625 61.980469 C 98.382812 61.941406 98.359375 61.917969 98.332031 61.910156 C 98.304688 61.902344 98.273438 61.898438 98.238281 61.898438 L 98.136719 61.902344 C 98.089844 61.902344 98.066406 61.890625 98.066406 61.867188 C 98.066406 61.832031 98.101562 61.8125 98.179688 61.8125 C 98.253906 61.8125 98.324219 61.820312 98.390625 61.828125 C 98.460938 61.832031 98.535156 61.835938 98.613281 61.835938 C 98.6875 61.835938 98.757812 61.832031 98.824219 61.828125 C 98.890625 61.820312 98.960938 61.8125 99.039062 61.8125 C 99.117188 61.8125 99.160156 61.832031 99.160156 61.867188 C 99.160156 61.890625 99.132812 61.902344 99.078125 61.902344 L 98.976562 61.898438 C 98.902344 61.898438 98.851562 61.921875 98.824219 61.964844 C 98.792969 62.015625 98.777344 62.109375 98.777344 62.25 L 98.785156 63.167969 C 98.785156 63.308594 98.796875 63.394531 98.824219 63.433594 C 98.851562 63.472656 98.878906 63.5 98.90625 63.511719 C 98.933594 63.519531 98.96875 63.523438 99.003906 63.523438 L 99.105469 63.515625 C 99.152344 63.515625 99.179688 63.527344 99.179688 63.550781 C 99.179688 63.585938 99.132812 63.605469 99.042969 63.605469 C 99 63.605469 98.953125 63.597656 98.898438 63.59375 C 98.726562 63.578125 98.578125 63.574219 98.457031 63.585938 C 98.339844 63.597656 98.253906 63.605469 98.210938 63.605469 Z M 98.210938 63.605469 "/>
<path style=" stroke:none;fill-rule:nonzero;fill:rgb(0%,0%,0%);fill-opacity:1;" d="M 105.582031 62.214844 C 105.582031 62.25 105.5625 62.265625 105.523438 62.265625 C 105.492188 62.265625 105.464844 62.242188 105.445312 62.203125 C 105.421875 62.160156 105.378906 62.121094 105.316406 62.082031 C 105.257812 62.046875 105.1875 62.015625 105.105469 61.984375 C 104.929688 61.933594 104.742188 61.90625 104.542969 61.90625 C 104.347656 61.90625 104.175781 61.921875 104.03125 61.957031 C 103.882812 61.988281 103.757812 62.039062 103.65625 62.101562 C 103.4375 62.234375 103.332031 62.414062 103.332031 62.640625 C 103.332031 62.890625 103.453125 63.097656 103.695312 63.257812 C 103.941406 63.421875 104.25 63.503906 104.628906 63.503906 C 105.050781 63.503906 105.378906 63.382812 105.609375 63.136719 C 105.625 63.121094 105.636719 63.113281 105.65625 63.109375 C 105.671875 63.109375 105.691406 63.121094 105.703125 63.144531 C 105.71875 63.164062 105.722656 63.1875 105.722656 63.214844 C 105.722656 63.257812 105.664062 63.3125 105.542969 63.382812 C 105.425781 63.453125 105.285156 63.507812 105.117188 63.550781 C 104.945312 63.59375 104.75 63.617188 104.523438 63.617188 C 104.300781 63.617188 104.089844 63.589844 103.890625 63.546875 C 103.691406 63.5 103.519531 63.441406 103.382812 63.363281 C 103.085938 63.191406 102.9375 62.988281 102.9375 62.738281 C 102.9375 62.457031 103.085938 62.234375 103.382812 62.066406 C 103.679688 61.890625 104.070312 61.800781 104.558594 61.800781 C 104.90625 61.800781 105.195312 61.832031 105.421875 61.890625 C 105.46875 61.90625 105.5 61.917969 105.515625 61.925781 C 105.542969 61.953125 105.558594 61.988281 105.5625 62.035156 C 105.566406 62.082031 105.570312 62.117188 105.570312 62.136719 C 105.578125 62.179688 105.582031 62.203125 105.582031 62.214844 Z M 105.582031 62.214844 "/>
<path style=" stroke:none;fill-rule:nonzero;fill:rgb(0%,0%,0%);fill-opacity:1;" d="M 110.863281 61.855469 L 110.949219 61.847656 C 110.988281 61.847656 111.011719 61.867188 111.015625 61.90625 C 111.019531 61.945312 111.023438 61.980469 111.027344 62.007812 C 111.039062 62.03125 111.042969 62.054688 111.050781 62.074219 C 111.058594 62.09375 111.0625 62.109375 111.070312 62.125 C 111.074219 62.140625 111.074219 62.152344 111.074219 62.160156 C 111.074219 62.167969 111.066406 62.179688 111.050781 62.183594 C 111.035156 62.191406 111.019531 62.195312 111.003906 62.195312 C 110.96875 62.195312 110.9375 62.171875 110.910156 62.132812 C 110.851562 62.050781 110.800781 62 110.761719 61.976562 C 110.671875 61.925781 110.539062 61.902344 110.363281 61.902344 C 110.117188 61.902344 109.953125 61.949219 109.867188 62.035156 C 109.84375 62.066406 109.828125 62.105469 109.828125 62.148438 C 109.828125 62.191406 109.84375 62.230469 109.875 62.265625 C 109.910156 62.300781 109.960938 62.339844 110.027344 62.378906 C 110.09375 62.417969 110.179688 62.457031 110.28125 62.503906 C 110.390625 62.542969 110.503906 62.59375 110.621094 62.644531 C 110.742188 62.691406 110.835938 62.738281 110.902344 62.78125 C 110.96875 62.824219 111.023438 62.859375 111.0625 62.902344 C 111.140625 62.980469 111.183594 63.058594 111.183594 63.128906 C 111.183594 63.199219 111.164062 63.265625 111.128906 63.324219 C 111.097656 63.378906 111.042969 63.429688 110.96875 63.472656 C 110.808594 63.566406 110.570312 63.617188 110.25 63.617188 C 110.089844 63.617188 109.910156 63.589844 109.714844 63.546875 C 109.671875 63.539062 109.644531 63.527344 109.636719 63.515625 C 109.621094 63.5 109.609375 63.472656 109.601562 63.433594 C 109.59375 63.390625 109.582031 63.355469 109.570312 63.324219 C 109.554688 63.292969 109.542969 63.257812 109.527344 63.230469 L 109.503906 63.164062 C 109.492188 63.148438 109.488281 63.128906 109.488281 63.117188 C 109.488281 63.082031 109.503906 63.070312 109.542969 63.070312 C 109.59375 63.070312 109.632812 63.09375 109.65625 63.140625 C 109.691406 63.226562 109.722656 63.28125 109.753906 63.304688 C 109.875 63.402344 110.011719 63.46875 110.167969 63.492188 C 110.210938 63.503906 110.273438 63.503906 110.347656 63.503906 C 110.429688 63.503906 110.503906 63.5 110.574219 63.484375 C 110.652344 63.472656 110.710938 63.453125 110.761719 63.429688 C 110.855469 63.382812 110.902344 63.328125 110.902344 63.261719 C 110.902344 63.191406 110.867188 63.128906 110.796875 63.078125 C 110.730469 63.023438 110.644531 62.976562 110.550781 62.933594 C 110.449219 62.894531 110.378906 62.863281 110.328125 62.84375 C 110.285156 62.824219 110.238281 62.808594 110.195312 62.789062 C 109.84375 62.644531 109.636719 62.496094 109.574219 62.355469 C 109.558594 62.316406 109.550781 62.269531 109.550781 62.222656 C 109.550781 62.171875 109.570312 62.121094 109.609375 62.066406 C 109.648438 62.015625 109.703125 61.96875 109.777344 61.929688 C 109.9375 61.847656 110.140625 61.800781 110.394531 61.800781 C 110.511719 61.800781 110.601562 61.8125 110.667969 61.828125 C 110.765625 61.847656 110.832031 61.855469 110.863281 61.855469 Z M 110.863281 61.855469 "/>
</g>
</svg>
