<?xml version="1.0" encoding="UTF-8"?>
<svg xmlns="http://www.w3.org/2000/svg" xmlns:xlink="http://www.w3.org/1999/xlink" width="160px" height="50px" viewBox="0 0 160 50" version="1.1">
<g id="surface1">
<path style=" stroke:none;fill-rule:nonzero;fill:rgb(0%,0%,0%);fill-opacity:1;" d="M 28.820312 24.398438 C 28.863281 24.398438 28.886719 24.40625 28.886719 24.414062 C 28.886719 24.425781 28.863281 24.433594 28.820312 24.433594 L 26.464844 24.433594 C 26.785156 24.472656 27.035156 24.535156 27.214844 24.621094 C 27.394531 24.710938 27.488281 24.804688 27.488281 24.90625 C 27.503906 25.007812 27.421875 25.09375 27.238281 25.175781 L 18.894531 29.027344 C 18.835938 29.058594 18.796875 29.09375 18.78125 29.132812 C 18.78125 29.1875 18.839844 29.230469 18.960938 29.265625 C 19.078125 29.300781 19.222656 29.316406 19.394531 29.316406 L 22.828125 29.316406 C 23.972656 29.316406 24.859375 29.292969 25.488281 29.246094 C 26.113281 29.199219 26.5625 29.144531 26.839844 29.078125 C 27.121094 29.015625 27.296875 28.957031 27.375 28.90625 C 27.390625 28.902344 27.40625 28.898438 27.421875 28.894531 C 27.433594 28.894531 27.449219 28.894531 27.464844 28.894531 C 27.480469 28.898438 27.488281 28.902344 27.488281 28.90625 C 27.503906 28.910156 27.503906 28.917969 27.488281 28.921875 L 26.832031 29.34375 C 26.832031 29.355469 26.816406 29.359375 26.785156 29.359375 L 16.425781 29.359375 C 16.414062 29.359375 16.398438 29.355469 16.386719 29.351562 C 16.367188 29.347656 16.359375 29.34375 16.359375 29.339844 C 16.359375 29.332031 16.367188 29.328125 16.386719 29.324219 C 16.398438 29.320312 16.414062 29.316406 16.425781 29.316406 L 18.78125 29.316406 C 18.464844 29.28125 18.214844 29.21875 18.035156 29.132812 C 17.855469 29.050781 17.765625 28.953125 17.765625 28.851562 C 17.75 28.753906 17.820312 28.660156 17.988281 28.574219 L 26.332031 24.730469 C 26.410156 24.699219 26.453125 24.660156 26.464844 24.617188 C 26.464844 24.566406 26.40625 24.523438 26.285156 24.488281 C 26.167969 24.453125 26.023438 24.433594 25.859375 24.433594 L 22.421875 24.433594 C 21.277344 24.433594 20.394531 24.457031 19.765625 24.503906 C 19.140625 24.550781 18.6875 24.609375 18.40625 24.675781 C 18.125 24.742188 17.949219 24.800781 17.878906 24.851562 C 17.863281 24.855469 17.835938 24.855469 17.808594 24.855469 C 17.808594 24.855469 17.800781 24.855469 17.785156 24.855469 C 17.773438 24.851562 17.765625 24.847656 17.765625 24.84375 C 17.75 24.839844 17.75 24.835938 17.765625 24.832031 L 18.421875 24.40625 C 18.421875 24.402344 18.433594 24.398438 18.464844 24.398438 Z M 28.820312 24.398438 "/>
<path style=" stroke:none;fill-rule:nonzero;fill:rgb(0%,0%,0%);fill-opacity:1;" d="M 32.691406 25.070312 C 33.484375 24.820312 34.378906 24.632812 35.375 24.507812 C 36.371094 24.382812 37.398438 24.320312 38.460938 24.320312 C 39.523438 24.320312 40.554688 24.382812 41.550781 24.507812 C 42.542969 24.632812 43.441406 24.820312 44.242188 25.070312 C 45.011719 25.308594 45.601562 25.585938 46.015625 25.902344 C 46.429688 26.214844 46.636719 26.539062 46.636719 26.878906 C 46.636719 27.21875 46.429688 27.546875 46.015625 27.859375 C 45.601562 28.171875 45.011719 28.445312 44.242188 28.683594 C 43.472656 28.921875 42.585938 29.105469 41.582031 29.234375 C 40.582031 29.367188 39.539062 29.429688 38.457031 29.429688 C 37.367188 29.429688 36.324219 29.367188 35.328125 29.234375 C 34.335938 29.105469 33.457031 28.921875 32.691406 28.683594 C 31.890625 28.429688 31.289062 28.152344 30.890625 27.839844 C 30.488281 27.53125 30.289062 27.207031 30.289062 26.875 C 30.289062 26.542969 30.488281 26.222656 30.890625 25.910156 C 31.289062 25.601562 31.890625 25.320312 32.691406 25.070312 Z M 32.757812 25.097656 C 32.152344 25.285156 31.730469 25.511719 31.488281 25.773438 C 31.25 26.035156 31.183594 26.3125 31.296875 26.601562 C 31.40625 26.890625 31.691406 27.179688 32.148438 27.464844 C 32.609375 27.753906 33.234375 28.019531 34.023438 28.261719 C 34.804688 28.507812 35.65625 28.703125 36.574219 28.847656 C 37.496094 28.992188 38.417969 29.082031 39.34375 29.117188 C 40.269531 29.152344 41.152344 29.132812 41.988281 29.054688 C 42.828125 28.980469 43.550781 28.847656 44.148438 28.660156 C 44.753906 28.472656 45.179688 28.25 45.429688 27.992188 C 45.679688 27.730469 45.75 27.453125 45.644531 27.15625 C 45.523438 26.855469 45.230469 26.558594 44.761719 26.273438 C 44.296875 25.984375 43.679688 25.722656 42.910156 25.484375 C 42.003906 25.199219 41.003906 24.980469 39.910156 24.835938 C 38.816406 24.691406 37.75 24.617188 36.710938 24.617188 C 35.957031 24.617188 35.242188 24.660156 34.5625 24.738281 C 33.882812 24.816406 33.28125 24.9375 32.757812 25.097656 Z M 32.757812 25.097656 "/>
<path style=" stroke:none;fill-rule:nonzero;fill:rgb(0%,0%,0%);fill-opacity:1;" d="M 61.785156 24.398438 C 61.828125 24.398438 61.851562 24.40625 61.851562 24.414062 C 61.851562 24.414062 61.851562 24.414062 61.851562 24.417969 C 61.851562 24.429688 61.828125 24.433594 61.785156 24.433594 L 61.652344 24.433594 C 61.363281 24.449219 61.121094 24.488281 60.925781 24.558594 C 60.730469 24.625 60.632812 24.707031 60.632812 24.800781 L 60.632812 25.953125 C 60.632812 26.152344 60.425781 26.328125 60.019531 26.484375 C 59.613281 26.640625 59.101562 26.738281 58.484375 26.78125 C 59.101562 26.824219 59.613281 26.921875 60.019531 27.078125 C 60.425781 27.230469 60.632812 27.410156 60.632812 27.613281 L 60.632812 28.511719 C 60.632812 28.695312 60.453125 28.863281 60.097656 29.015625 C 59.746094 29.164062 59.285156 29.269531 58.710938 29.324219 L 61.785156 29.324219 C 61.828125 29.324219 61.851562 29.328125 61.851562 29.339844 C 61.851562 29.351562 61.828125 29.359375 61.785156 29.359375 L 57.917969 29.359375 C 57.875 29.359375 57.851562 29.351562 57.851562 29.339844 C 57.851562 29.328125 57.875 29.324219 57.917969 29.324219 C 57.9375 29.324219 57.957031 29.324219 57.980469 29.320312 C 58 29.320312 58.019531 29.316406 58.03125 29.316406 C 58.335938 29.308594 58.582031 29.269531 58.777344 29.199219 C 58.972656 29.132812 59.074219 29.050781 59.074219 28.957031 L 59.074219 27.167969 C 59.074219 27.074219 58.972656 26.992188 58.777344 26.921875 C 58.582031 26.851562 58.335938 26.808594 58.03125 26.800781 C 58.019531 26.800781 58 26.800781 57.980469 26.800781 C 57.957031 26.800781 57.9375 26.800781 57.917969 26.800781 L 52.511719 26.800781 C 52.5 26.800781 52.480469 26.800781 52.460938 26.800781 C 52.4375 26.800781 52.417969 26.800781 52.40625 26.800781 C 52.101562 26.808594 51.855469 26.851562 51.660156 26.921875 C 51.460938 26.992188 51.367188 27.074219 51.367188 27.167969 L 51.367188 28.511719 C 51.367188 28.695312 51.1875 28.859375 50.832031 29.007812 C 50.476562 29.15625 50.019531 29.261719 49.464844 29.316406 L 52.511719 29.316406 C 52.5625 29.316406 52.585938 29.324219 52.585938 29.339844 C 52.585938 29.351562 52.5625 29.359375 52.511719 29.359375 L 48.804688 29.359375 C 48.773438 29.359375 48.746094 29.359375 48.726562 29.359375 C 48.703125 29.359375 48.675781 29.359375 48.644531 29.359375 C 48.601562 29.359375 48.578125 29.351562 48.578125 29.339844 C 48.578125 29.324219 48.601562 29.316406 48.644531 29.316406 L 48.785156 29.316406 C 49.070312 29.308594 49.308594 29.269531 49.507812 29.199219 C 49.699219 29.132812 49.800781 29.050781 49.800781 28.957031 L 49.800781 27.613281 C 49.800781 27.410156 50.003906 27.230469 50.414062 27.078125 C 50.820312 26.921875 51.335938 26.824219 51.953125 26.78125 C 51.335938 26.738281 50.820312 26.640625 50.414062 26.484375 C 50.003906 26.328125 49.800781 26.152344 49.800781 25.953125 L 49.800781 25.246094 C 49.800781 25.058594 49.976562 24.890625 50.332031 24.742188 C 50.6875 24.59375 51.152344 24.492188 51.726562 24.433594 L 48.644531 24.433594 C 48.601562 24.433594 48.578125 24.425781 48.578125 24.414062 C 48.578125 24.40625 48.601562 24.398438 48.644531 24.398438 L 52.511719 24.398438 C 52.5625 24.398438 52.585938 24.40625 52.585938 24.414062 C 52.585938 24.425781 52.5625 24.433594 52.511719 24.433594 C 52.5 24.433594 52.480469 24.433594 52.460938 24.433594 C 52.4375 24.433594 52.417969 24.433594 52.40625 24.433594 C 52.101562 24.445312 51.855469 24.484375 51.660156 24.554688 C 51.460938 24.625 51.367188 24.707031 51.367188 24.800781 L 51.367188 26.398438 C 51.367188 26.492188 51.460938 26.574219 51.660156 26.640625 C 51.855469 26.710938 52.101562 26.75 52.40625 26.757812 C 52.417969 26.757812 52.4375 26.761719 52.460938 26.761719 C 52.480469 26.765625 52.5 26.765625 52.511719 26.765625 L 57.917969 26.765625 C 57.9375 26.765625 57.957031 26.765625 57.980469 26.761719 C 58 26.761719 58.019531 26.757812 58.03125 26.757812 C 58.335938 26.75 58.582031 26.710938 58.777344 26.640625 C 58.972656 26.574219 59.074219 26.492188 59.074219 26.398438 L 59.074219 25.246094 C 59.074219 25.0625 59.25 24.894531 59.605469 24.746094 C 59.960938 24.597656 60.414062 24.492188 60.972656 24.433594 L 57.917969 24.433594 C 57.875 24.433594 57.851562 24.429688 57.851562 24.417969 C 57.851562 24.40625 57.875 24.398438 57.917969 24.398438 L 61.625 24.398438 C 61.65625 24.398438 61.6875 24.398438 61.71875 24.398438 C 61.75 24.398438 61.773438 24.398438 61.785156 24.398438 Z M 61.785156 24.398438 "/>
<path style=" stroke:none;fill-rule:nonzero;fill:rgb(0%,0%,0%);fill-opacity:1;" d="M 79.492188 29.316406 C 79.519531 29.316406 79.542969 29.324219 79.558594 29.339844 C 79.558594 29.351562 79.535156 29.359375 79.492188 29.359375 L 75.605469 29.359375 C 75.554688 29.359375 75.53125 29.351562 75.53125 29.339844 C 75.53125 29.324219 75.554688 29.316406 75.605469 29.316406 C 75.832031 29.316406 76.027344 29.292969 76.191406 29.246094 C 76.355469 29.195312 76.4375 29.132812 76.4375 29.054688 C 76.4375 29.007812 76.398438 28.964844 76.324219 28.929688 L 74.585938 27.683594 C 74.28125 27.472656 73.820312 27.304688 73.203125 27.179688 C 72.585938 27.054688 71.90625 26.992188 71.171875 26.992188 C 70.492188 26.992188 69.867188 27.042969 69.304688 27.148438 C 68.738281 27.253906 68.289062 27.390625 67.957031 27.570312 C 67.628906 27.746094 67.464844 27.941406 67.464844 28.152344 C 67.464844 28.367188 67.628906 28.566406 67.957031 28.742188 C 68.289062 28.917969 68.738281 29.058594 69.304688 29.164062 C 69.867188 29.265625 70.492188 29.316406 71.171875 29.316406 C 71.214844 29.316406 71.238281 29.324219 71.238281 29.339844 C 71.238281 29.351562 71.214844 29.359375 71.171875 29.359375 L 62.964844 29.359375 C 62.914062 29.359375 62.890625 29.351562 62.890625 29.339844 C 62.890625 29.324219 62.914062 29.316406 62.964844 29.316406 C 63.53125 29.316406 64.058594 29.269531 64.542969 29.171875 C 65.027344 29.070312 65.378906 28.9375 65.605469 28.773438 L 71.417969 24.363281 L 71.464844 24.332031 C 71.464844 24.328125 71.472656 24.328125 71.484375 24.328125 C 71.484375 24.328125 71.484375 24.328125 71.484375 24.320312 C 71.5 24.320312 71.511719 24.320312 71.511719 24.320312 C 71.523438 24.320312 71.539062 24.320312 71.550781 24.320312 C 71.550781 24.320312 71.550781 24.324219 71.550781 24.328125 C 71.566406 24.328125 71.578125 24.328125 71.578125 24.332031 L 77.390625 28.484375 C 77.511719 28.5625 77.570312 28.648438 77.570312 28.738281 C 77.570312 28.871094 77.453125 28.988281 77.21875 29.09375 C 76.984375 29.199219 76.671875 29.273438 76.277344 29.316406 Z M 71.171875 26.949219 C 71.773438 26.949219 72.339844 26.992188 72.863281 27.074219 C 73.390625 27.15625 73.835938 27.269531 74.199219 27.414062 L 70.765625 24.957031 L 65.71875 28.78125 C 65.71875 28.785156 65.71875 28.785156 65.71875 28.785156 C 65.703125 28.792969 65.703125 28.792969 65.71875 28.785156 L 65.128906 29.21875 C 65.128906 29.226562 65.113281 29.230469 65.085938 29.230469 C 65.070312 29.230469 65.0625 29.230469 65.0625 29.230469 C 65.019531 29.226562 65.003906 29.21875 65.015625 29.207031 L 65.289062 29.007812 C 64.898438 29.164062 64.402344 29.265625 63.796875 29.316406 L 70.21875 29.316406 C 69.371094 29.25 68.679688 29.109375 68.136719 28.894531 C 67.59375 28.675781 67.324219 28.429688 67.324219 28.160156 C 67.324219 27.9375 67.496094 27.734375 67.84375 27.550781 C 68.191406 27.367188 68.652344 27.222656 69.230469 27.113281 C 69.8125 27.003906 70.460938 26.949219 71.171875 26.949219 Z M 71.171875 26.949219 "/>
<path style=" stroke:none;fill-rule:nonzero;fill:rgb(0%,0%,0%);fill-opacity:1;" d="M 92.558594 24.40625 L 93.21875 24.832031 C 93.230469 24.84375 93.214844 24.851562 93.171875 24.855469 C 93.171875 24.855469 93.160156 24.855469 93.144531 24.855469 C 93.117188 24.855469 93.105469 24.855469 93.105469 24.851562 C 93.011719 24.800781 92.824219 24.742188 92.542969 24.675781 C 92.269531 24.609375 91.816406 24.550781 91.191406 24.503906 C 90.5625 24.457031 89.6875 24.433594 88.558594 24.433594 C 88.527344 24.433594 88.5 24.433594 88.484375 24.433594 C 88.472656 24.433594 88.457031 24.433594 88.445312 24.433594 C 88.140625 24.445312 87.886719 24.484375 87.683594 24.554688 C 87.480469 24.625 87.378906 24.707031 87.378906 24.800781 L 87.378906 28.511719 C 87.378906 28.695312 87.199219 28.863281 86.84375 29.015625 C 86.492188 29.164062 86.03125 29.269531 85.457031 29.324219 L 88.558594 29.324219 C 88.585938 29.324219 88.605469 29.328125 88.605469 29.339844 C 88.605469 29.351562 88.585938 29.359375 88.558594 29.359375 L 84.664062 29.359375 C 84.621094 29.359375 84.597656 29.351562 84.597656 29.339844 C 84.597656 29.328125 84.621094 29.324219 84.664062 29.324219 C 84.679688 29.324219 84.699219 29.324219 84.722656 29.324219 C 84.746094 29.324219 84.765625 29.320312 84.777344 29.316406 C 85.078125 29.308594 85.332031 29.269531 85.539062 29.199219 C 85.742188 29.132812 85.84375 29.050781 85.84375 28.957031 L 85.84375 25.246094 C 85.84375 25.058594 86.019531 24.890625 86.371094 24.742188 C 86.726562 24.59375 87.183594 24.492188 87.746094 24.433594 L 84.664062 24.433594 C 83.535156 24.433594 82.652344 24.457031 82.019531 24.503906 C 81.386719 24.550781 80.929688 24.609375 80.652344 24.675781 C 80.375 24.742188 80.199219 24.800781 80.125 24.851562 C 80.105469 24.855469 80.089844 24.855469 80.078125 24.855469 C 80.058594 24.855469 80.050781 24.855469 80.050781 24.855469 C 80.039062 24.851562 80.023438 24.847656 80.011719 24.84375 C 80.011719 24.839844 80.011719 24.835938 80.011719 24.832031 L 80.664062 24.40625 C 80.675781 24.402344 80.699219 24.398438 80.730469 24.398438 L 92.492188 24.398438 C 92.519531 24.398438 92.542969 24.402344 92.558594 24.40625 Z M 92.558594 24.40625 "/>
<path style=" stroke:none;fill-rule:nonzero;fill:rgb(0%,0%,0%);fill-opacity:1;" d="M 104.722656 28.894531 C 104.769531 28.898438 104.785156 28.90625 104.769531 28.921875 L 104.109375 29.34375 C 104.097656 29.347656 104.089844 29.351562 104.089844 29.351562 C 104.074219 29.355469 104.058594 29.359375 104.042969 29.359375 L 94.589844 29.359375 C 94.558594 29.359375 94.53125 29.359375 94.511719 29.359375 C 94.488281 29.359375 94.460938 29.359375 94.429688 29.359375 C 94.386719 29.359375 94.363281 29.351562 94.363281 29.339844 C 94.363281 29.324219 94.386719 29.316406 94.429688 29.316406 L 94.570312 29.316406 C 94.855469 29.308594 95.09375 29.269531 95.292969 29.199219 C 95.484375 29.132812 95.585938 29.050781 95.585938 28.957031 L 95.585938 27.613281 C 95.585938 27.410156 95.789062 27.230469 96.199219 27.078125 C 96.605469 26.921875 97.121094 26.824219 97.738281 26.78125 C 97.121094 26.738281 96.605469 26.640625 96.199219 26.484375 C 95.789062 26.328125 95.585938 26.152344 95.585938 25.953125 L 95.585938 25.246094 C 95.585938 25.058594 95.761719 24.890625 96.117188 24.742188 C 96.472656 24.59375 96.9375 24.492188 97.511719 24.433594 L 94.429688 24.433594 C 94.386719 24.433594 94.363281 24.425781 94.363281 24.414062 C 94.363281 24.40625 94.386719 24.398438 94.429688 24.398438 L 103.589844 24.398438 C 103.609375 24.398438 103.609375 24.398438 103.589844 24.398438 C 103.609375 24.398438 103.617188 24.398438 103.617188 24.398438 C 103.617188 24.398438 103.625 24.402344 103.636719 24.40625 C 103.636719 24.410156 103.636719 24.414062 103.636719 24.414062 C 103.636719 24.414062 103.636719 24.414062 103.636719 24.417969 L 100.335938 28.285156 C 100.335938 28.292969 100.320312 28.296875 100.292969 28.296875 C 100.292969 28.296875 100.285156 28.296875 100.269531 28.296875 C 100.238281 28.296875 100.222656 28.292969 100.222656 28.277344 L 101.492188 26.800781 L 98.296875 26.800781 C 98.285156 26.800781 98.265625 26.800781 98.246094 26.800781 C 98.222656 26.800781 98.203125 26.800781 98.191406 26.800781 C 97.886719 26.808594 97.640625 26.851562 97.445312 26.921875 C 97.246094 26.992188 97.152344 27.074219 97.152344 27.167969 L 97.152344 28.511719 C 97.152344 28.695312 96.972656 28.859375 96.617188 29.007812 C 96.261719 29.15625 95.804688 29.261719 95.25 29.316406 L 98.777344 29.316406 C 99.742188 29.316406 100.648438 29.296875 101.496094 29.261719 C 102.351562 29.222656 103.058594 29.175781 103.625 29.113281 C 104.191406 29.050781 104.539062 28.980469 104.65625 28.90625 C 104.65625 28.902344 104.664062 28.898438 104.679688 28.894531 C 104.691406 28.894531 104.707031 28.894531 104.722656 28.894531 Z M 98.296875 26.765625 L 101.511719 26.765625 L 103.164062 24.835938 C 103.222656 24.78125 103.191406 24.730469 103.070312 24.679688 C 102.859375 24.597656 102.367188 24.535156 101.589844 24.496094 C 100.8125 24.453125 99.714844 24.433594 98.296875 24.433594 C 98.285156 24.433594 98.265625 24.433594 98.246094 24.433594 C 98.222656 24.433594 98.203125 24.433594 98.191406 24.433594 C 97.886719 24.445312 97.640625 24.484375 97.445312 24.554688 C 97.246094 24.625 97.152344 24.707031 97.152344 24.800781 L 97.152344 26.398438 C 97.152344 26.492188 97.246094 26.574219 97.445312 26.640625 C 97.640625 26.710938 97.886719 26.75 98.191406 26.757812 C 98.203125 26.757812 98.222656 26.761719 98.246094 26.761719 C 98.265625 26.765625 98.285156 26.765625 98.296875 26.765625 Z M 98.296875 26.765625 "/>
<path style=" stroke:none;fill-rule:nonzero;fill:rgb(0%,0%,0%);fill-opacity:1;" d="M 119.285156 26.519531 C 119.269531 26.515625 119.253906 26.507812 119.238281 26.503906 C 119.238281 26.5 119.238281 26.496094 119.238281 26.492188 L 120.125 25.761719 C 119.609375 25.339844 118.859375 25 117.871094 24.753906 C 116.882812 24.503906 115.8125 24.371094 114.652344 24.355469 L 114.605469 24.355469 C 114.574219 24.355469 114.535156 24.355469 114.492188 24.355469 C 114.445312 24.355469 114.394531 24.355469 114.332031 24.355469 C 113.503906 24.367188 112.71875 24.4375 111.972656 24.566406 C 111.222656 24.699219 110.5625 24.882812 109.992188 25.113281 C 109.40625 25.355469 108.953125 25.625 108.644531 25.925781 C 108.335938 26.226562 108.183594 26.546875 108.183594 26.878906 C 108.183594 27.210938 108.335938 27.527344 108.644531 27.828125 C 108.953125 28.132812 109.40625 28.402344 109.992188 28.636719 C 110.5625 28.875 111.222656 29.054688 111.972656 29.1875 C 112.71875 29.316406 113.496094 29.386719 114.3125 29.394531 L 114.359375 29.394531 C 114.414062 29.394531 114.453125 29.394531 114.472656 29.394531 C 114.496094 29.394531 114.527344 29.394531 114.558594 29.394531 C 114.585938 29.394531 114.609375 29.394531 114.625 29.394531 C 115.8125 29.378906 116.898438 29.25 117.878906 28.996094 C 118.859375 28.742188 119.613281 28.410156 120.144531 27.988281 C 120.144531 27.980469 120.160156 27.972656 120.191406 27.972656 C 120.222656 27.972656 120.238281 27.980469 120.238281 27.988281 L 120.824219 28.476562 C 120.835938 28.480469 120.835938 28.484375 120.824219 28.488281 C 120.066406 28.78125 119.148438 29.011719 118.0625 29.175781 C 116.980469 29.339844 115.839844 29.425781 114.652344 29.429688 L 114.605469 29.429688 C 114.574219 29.429688 114.535156 29.429688 114.492188 29.429688 C 114.445312 29.429688 114.394531 29.429688 114.332031 29.429688 C 113.257812 29.425781 112.230469 29.359375 111.246094 29.226562 C 110.257812 29.09375 109.394531 28.90625 108.65625 28.667969 C 107.902344 28.429688 107.320312 28.152344 106.910156 27.84375 C 106.507812 27.535156 106.304688 27.214844 106.304688 26.878906 C 106.304688 26.546875 106.507812 26.222656 106.910156 25.910156 C 107.320312 25.601562 107.902344 25.324219 108.65625 25.085938 C 109.394531 24.847656 110.253906 24.664062 111.230469 24.53125 C 112.210938 24.394531 113.238281 24.328125 114.3125 24.320312 L 114.378906 24.320312 C 114.40625 24.320312 114.445312 24.320312 114.492188 24.320312 C 114.519531 24.320312 114.574219 24.320312 114.652344 24.320312 C 115.839844 24.328125 116.980469 24.417969 118.0625 24.578125 C 119.148438 24.742188 120.066406 24.96875 120.824219 25.261719 C 120.804688 25.261719 120.804688 25.261719 120.824219 25.261719 C 120.824219 25.265625 120.824219 25.265625 120.824219 25.265625 C 120.824219 25.265625 120.824219 25.269531 120.824219 25.277344 C 120.824219 25.277344 120.824219 25.277344 120.824219 25.28125 L 120.238281 25.769531 L 119.351562 26.503906 C 119.351562 26.515625 119.335938 26.519531 119.304688 26.519531 C 119.289062 26.519531 119.285156 26.519531 119.285156 26.519531 Z M 119.285156 26.519531 "/>
<path style=" stroke:none;fill-rule:nonzero;fill:rgb(0%,0%,0%);fill-opacity:1;" d="M 135.992188 24.398438 C 136.035156 24.398438 136.058594 24.40625 136.058594 24.414062 C 136.058594 24.414062 136.058594 24.414062 136.058594 24.417969 C 136.058594 24.429688 136.035156 24.433594 135.992188 24.433594 L 135.859375 24.433594 C 135.570312 24.449219 135.328125 24.488281 135.132812 24.558594 C 134.933594 24.625 134.839844 24.707031 134.839844 24.800781 L 134.839844 25.953125 C 134.839844 26.152344 134.632812 26.328125 134.226562 26.484375 C 133.820312 26.640625 133.308594 26.738281 132.691406 26.78125 C 133.308594 26.824219 133.820312 26.921875 134.226562 27.078125 C 134.632812 27.230469 134.839844 27.410156 134.839844 27.613281 L 134.839844 28.511719 C 134.839844 28.695312 134.660156 28.863281 134.304688 29.015625 C 133.953125 29.164062 133.492188 29.269531 132.917969 29.324219 L 135.992188 29.324219 C 136.035156 29.324219 136.058594 29.328125 136.058594 29.339844 C 136.058594 29.351562 136.035156 29.359375 135.992188 29.359375 L 132.125 29.359375 C 132.082031 29.359375 132.058594 29.351562 132.058594 29.339844 C 132.058594 29.328125 132.082031 29.324219 132.125 29.324219 C 132.140625 29.324219 132.160156 29.324219 132.183594 29.320312 C 132.207031 29.320312 132.226562 29.316406 132.238281 29.316406 C 132.539062 29.308594 132.789062 29.269531 132.984375 29.199219 C 133.179688 29.132812 133.277344 29.050781 133.277344 28.957031 L 133.277344 27.167969 C 133.277344 27.074219 133.179688 26.992188 132.984375 26.921875 C 132.789062 26.851562 132.539062 26.808594 132.238281 26.800781 C 132.226562 26.800781 132.207031 26.800781 132.183594 26.800781 C 132.160156 26.800781 132.140625 26.800781 132.125 26.800781 L 126.71875 26.800781 C 126.707031 26.800781 126.6875 26.800781 126.664062 26.800781 C 126.640625 26.800781 126.625 26.800781 126.613281 26.800781 C 126.308594 26.808594 126.058594 26.851562 125.867188 26.921875 C 125.667969 26.992188 125.570312 27.074219 125.570312 27.167969 L 125.570312 28.511719 C 125.570312 28.695312 125.394531 28.859375 125.039062 29.007812 C 124.683594 29.15625 124.226562 29.261719 123.671875 29.316406 L 126.71875 29.316406 C 126.765625 29.316406 126.792969 29.324219 126.792969 29.339844 C 126.792969 29.351562 126.765625 29.359375 126.71875 29.359375 L 123.011719 29.359375 C 122.980469 29.359375 122.953125 29.359375 122.933594 29.359375 C 122.910156 29.359375 122.882812 29.359375 122.851562 29.359375 C 122.808594 29.359375 122.785156 29.351562 122.785156 29.339844 C 122.785156 29.324219 122.808594 29.316406 122.851562 29.316406 L 122.992188 29.316406 C 123.273438 29.308594 123.515625 29.269531 123.710938 29.199219 C 123.90625 29.132812 124.003906 29.050781 124.003906 28.957031 L 124.003906 27.613281 C 124.003906 27.410156 124.207031 27.230469 124.617188 27.078125 C 125.027344 26.921875 125.539062 26.824219 126.160156 26.78125 C 125.539062 26.738281 125.027344 26.640625 124.617188 26.484375 C 124.207031 26.328125 124.003906 26.152344 124.003906 25.953125 L 124.003906 25.246094 C 124.003906 25.058594 124.183594 24.890625 124.539062 24.742188 C 124.894531 24.59375 125.359375 24.492188 125.933594 24.433594 L 122.851562 24.433594 C 122.808594 24.433594 122.785156 24.425781 122.785156 24.414062 C 122.785156 24.40625 122.808594 24.398438 122.851562 24.398438 L 126.71875 24.398438 C 126.765625 24.398438 126.792969 24.40625 126.792969 24.414062 C 126.792969 24.425781 126.765625 24.433594 126.71875 24.433594 C 126.707031 24.433594 126.6875 24.433594 126.664062 24.433594 C 126.640625 24.433594 126.625 24.433594 126.613281 24.433594 C 126.308594 24.445312 126.058594 24.484375 125.867188 24.554688 C 125.667969 24.625 125.570312 24.707031 125.570312 24.800781 L 125.570312 26.398438 C 125.570312 26.492188 125.667969 26.574219 125.867188 26.640625 C 126.058594 26.710938 126.308594 26.75 126.613281 26.757812 C 126.625 26.757812 126.640625 26.761719 126.664062 26.761719 C 126.6875 26.765625 126.707031 26.765625 126.71875 26.765625 L 132.125 26.765625 C 132.140625 26.765625 132.160156 26.765625 132.183594 26.761719 C 132.207031 26.761719 132.226562 26.757812 132.238281 26.757812 C 132.539062 26.75 132.789062 26.710938 132.984375 26.640625 C 133.179688 26.574219 133.277344 26.492188 133.277344 26.398438 L 133.277344 25.246094 C 133.277344 25.0625 133.457031 24.894531 133.8125 24.746094 C 134.167969 24.597656 134.621094 24.492188 135.179688 24.433594 L 132.125 24.433594 C 132.082031 24.433594 132.058594 24.429688 132.058594 24.417969 C 132.058594 24.40625 132.082031 24.398438 132.125 24.398438 L 135.832031 24.398438 C 135.863281 24.398438 135.894531 24.398438 135.925781 24.398438 C 135.957031 24.398438 135.980469 24.398438 135.992188 24.398438 Z M 135.992188 24.398438 "/>
<path style=" stroke:none;fill-rule:nonzero;fill:rgb(0%,0%,0%);fill-opacity:1;" d="M 48.886719 31.800781 C 48.804688 31.800781 48.765625 31.792969 48.765625 31.777344 C 48.765625 31.765625 48.792969 31.757812 48.84375 31.757812 L 48.945312 31.761719 C 49.019531 31.761719 49.074219 31.75 49.105469 31.730469 C 49.136719 31.707031 49.152344 31.65625 49.152344 31.585938 L 49.152344 31.125 C 49.152344 31.054688 49.140625 31.007812 49.117188 30.992188 C 49.09375 30.972656 49.070312 30.960938 49.046875 30.957031 C 49.019531 30.949219 48.984375 30.949219 48.945312 30.949219 L 48.84375 30.949219 C 48.792969 30.949219 48.765625 30.945312 48.765625 30.933594 C 48.765625 30.914062 48.800781 30.90625 48.878906 30.90625 C 48.953125 30.90625 49.011719 30.910156 49.058594 30.910156 C 49.105469 30.910156 49.15625 30.914062 49.203125 30.914062 C 49.332031 30.917969 49.433594 30.917969 49.511719 30.917969 C 49.585938 30.917969 49.664062 30.917969 49.746094 30.917969 C 49.828125 30.917969 49.921875 30.914062 50.023438 30.914062 C 50.296875 30.910156 50.484375 30.90625 50.589844 30.90625 C 50.699219 30.90625 50.753906 30.910156 50.765625 30.914062 C 50.777344 30.917969 50.785156 30.925781 50.785156 30.929688 C 50.785156 30.9375 50.785156 30.945312 50.785156 30.949219 C 50.785156 30.953125 50.78125 30.960938 50.777344 30.96875 C 50.777344 30.980469 50.773438 30.996094 50.765625 31.011719 C 50.761719 31.035156 50.75 31.046875 50.738281 31.054688 C 50.726562 31.0625 50.714844 31.0625 50.699219 31.0625 C 50.679688 31.0625 50.667969 31.0625 50.660156 31.058594 C 50.652344 31.058594 50.644531 31.050781 50.632812 31.042969 C 50.621094 31.03125 50.601562 31.019531 50.570312 31.011719 C 50.539062 31.003906 50.492188 30.992188 50.433594 30.984375 C 50.308594 30.976562 50.074219 30.96875 49.738281 30.96875 L 49.550781 30.96875 C 49.519531 30.96875 49.5 30.972656 49.492188 30.972656 C 49.480469 30.976562 49.476562 30.984375 49.476562 30.996094 L 49.476562 31.269531 C 49.640625 31.277344 49.777344 31.277344 49.886719 31.277344 C 49.996094 31.277344 50.074219 31.277344 50.117188 31.277344 C 50.167969 31.277344 50.207031 31.277344 50.238281 31.273438 C 50.292969 31.273438 50.328125 31.261719 50.351562 31.25 C 50.398438 31.226562 50.4375 31.214844 50.464844 31.214844 C 50.503906 31.214844 50.523438 31.222656 50.523438 31.234375 L 50.453125 31.324219 L 50.457031 31.375 C 50.457031 31.410156 50.433594 31.425781 50.386719 31.425781 C 50.34375 31.425781 50.324219 31.417969 50.324219 31.398438 C 50.324219 31.382812 50.320312 31.371094 50.316406 31.359375 C 50.3125 31.355469 50.296875 31.347656 50.265625 31.339844 C 50.21875 31.335938 50.113281 31.332031 49.9375 31.332031 C 49.769531 31.332031 49.613281 31.332031 49.476562 31.339844 L 49.476562 31.492188 C 49.476562 31.589844 49.484375 31.667969 49.5 31.730469 C 49.609375 31.738281 49.726562 31.742188 49.859375 31.742188 C 49.992188 31.742188 50.105469 31.742188 50.199219 31.738281 C 50.296875 31.734375 50.378906 31.730469 50.445312 31.726562 C 50.578125 31.714844 50.679688 31.691406 50.746094 31.652344 C 50.773438 31.636719 50.796875 31.632812 50.824219 31.632812 C 50.851562 31.632812 50.863281 31.636719 50.863281 31.648438 C 50.863281 31.65625 50.859375 31.660156 50.851562 31.671875 C 50.839844 31.679688 50.828125 31.699219 50.804688 31.71875 C 50.78125 31.742188 50.765625 31.757812 50.75 31.765625 C 50.742188 31.777344 50.730469 31.785156 50.71875 31.789062 C 50.695312 31.800781 50.652344 31.804688 50.589844 31.804688 C 50.535156 31.804688 50.476562 31.804688 50.417969 31.804688 C 50.359375 31.804688 50.300781 31.804688 50.238281 31.804688 C 50.167969 31.800781 50.054688 31.800781 49.90625 31.796875 C 49.527344 31.789062 49.304688 31.789062 49.238281 31.789062 C 49.175781 31.792969 49.125 31.792969 49.089844 31.792969 C 49.058594 31.796875 49.027344 31.796875 48.992188 31.800781 C 48.960938 31.800781 48.925781 31.800781 48.886719 31.800781 Z M 48.886719 31.800781 "/>
<path style=" stroke:none;fill-rule:nonzero;fill:rgb(0%,0%,0%);fill-opacity:1;" d="M 54.699219 31.800781 C 54.621094 31.800781 54.585938 31.792969 54.585938 31.777344 C 54.585938 31.765625 54.613281 31.757812 54.667969 31.757812 L 54.765625 31.761719 C 54.847656 31.761719 54.90625 31.746094 54.933594 31.71875 C 54.953125 31.691406 54.964844 31.648438 54.964844 31.585938 L 54.964844 31.125 C 54.964844 31.0625 54.957031 31.019531 54.941406 31 C 54.921875 30.980469 54.898438 30.96875 54.871094 30.960938 C 54.847656 30.953125 54.808594 30.949219 54.765625 30.949219 L 54.667969 30.949219 C 54.613281 30.949219 54.585938 30.945312 54.585938 30.933594 C 54.585938 30.914062 54.621094 30.90625 54.699219 30.90625 C 54.78125 30.90625 54.851562 30.910156 54.917969 30.914062 C 54.988281 30.917969 55.0625 30.917969 55.132812 30.917969 C 55.207031 30.917969 55.28125 30.917969 55.347656 30.914062 C 55.414062 30.910156 55.484375 30.90625 55.558594 30.90625 C 55.632812 30.90625 55.671875 30.914062 55.671875 30.933594 C 55.671875 30.945312 55.648438 30.949219 55.597656 30.949219 L 55.5 30.949219 C 55.414062 30.949219 55.359375 30.964844 55.332031 30.992188 C 55.308594 31.015625 55.300781 31.058594 55.300781 31.125 L 55.300781 31.492188 C 55.300781 31.589844 55.304688 31.667969 55.320312 31.730469 C 55.417969 31.738281 55.527344 31.742188 55.652344 31.742188 C 55.777344 31.742188 55.882812 31.742188 55.972656 31.738281 C 56.066406 31.730469 56.144531 31.722656 56.210938 31.714844 C 56.335938 31.699219 56.433594 31.671875 56.5 31.632812 C 56.53125 31.621094 56.558594 31.609375 56.585938 31.609375 C 56.613281 31.609375 56.625 31.617188 56.625 31.632812 C 56.625 31.636719 56.621094 31.640625 56.613281 31.648438 C 56.601562 31.660156 56.585938 31.679688 56.566406 31.703125 C 56.542969 31.722656 56.527344 31.742188 56.511719 31.753906 C 56.5 31.765625 56.484375 31.773438 56.464844 31.78125 C 56.433594 31.796875 56.386719 31.804688 56.324219 31.804688 C 56.269531 31.804688 56.210938 31.804688 56.160156 31.804688 C 56.109375 31.804688 56.054688 31.800781 56 31.800781 C 55.941406 31.800781 55.878906 31.800781 55.8125 31.800781 C 55.746094 31.796875 55.667969 31.796875 55.585938 31.792969 C 55.5 31.792969 55.425781 31.792969 55.359375 31.792969 C 55.296875 31.789062 55.234375 31.789062 55.171875 31.789062 C 55.113281 31.789062 55.0625 31.789062 55.019531 31.792969 C 54.980469 31.792969 54.941406 31.792969 54.90625 31.792969 C 54.875 31.796875 54.84375 31.796875 54.8125 31.800781 C 54.78125 31.800781 54.742188 31.800781 54.699219 31.800781 Z M 54.699219 31.800781 "/>
<path style=" stroke:none;fill-rule:nonzero;fill:rgb(0%,0%,0%);fill-opacity:1;" d="M 60.398438 31.800781 C 60.316406 31.800781 60.277344 31.792969 60.277344 31.777344 C 60.277344 31.765625 60.304688 31.757812 60.355469 31.757812 L 60.457031 31.761719 C 60.53125 31.761719 60.585938 31.75 60.617188 31.730469 C 60.648438 31.707031 60.664062 31.65625 60.664062 31.585938 L 60.664062 31.125 C 60.664062 31.054688 60.652344 31.007812 60.628906 30.992188 C 60.605469 30.972656 60.585938 30.960938 60.558594 30.957031 C 60.53125 30.949219 60.496094 30.949219 60.457031 30.949219 L 60.355469 30.949219 C 60.304688 30.949219 60.277344 30.945312 60.277344 30.933594 C 60.277344 30.914062 60.3125 30.90625 60.390625 30.90625 C 60.464844 30.90625 60.527344 30.910156 60.570312 30.910156 C 60.617188 30.910156 60.667969 30.914062 60.71875 30.914062 C 60.847656 30.917969 60.949219 30.917969 61.023438 30.917969 C 61.097656 30.917969 61.175781 30.917969 61.257812 30.917969 C 61.339844 30.917969 61.433594 30.914062 61.539062 30.914062 C 61.808594 30.910156 61.996094 30.90625 62.105469 30.90625 C 62.210938 30.90625 62.265625 30.910156 62.277344 30.914062 C 62.289062 30.917969 62.296875 30.925781 62.296875 30.929688 C 62.296875 30.9375 62.296875 30.945312 62.296875 30.949219 C 62.296875 30.953125 62.292969 30.960938 62.289062 30.96875 C 62.289062 30.980469 62.285156 30.996094 62.277344 31.011719 C 62.273438 31.035156 62.265625 31.046875 62.25 31.054688 C 62.242188 31.0625 62.226562 31.0625 62.210938 31.0625 C 62.191406 31.0625 62.179688 31.0625 62.171875 31.058594 C 62.164062 31.058594 62.15625 31.050781 62.144531 31.042969 C 62.132812 31.03125 62.113281 31.019531 62.085938 31.011719 C 62.050781 31.003906 62.003906 30.992188 61.945312 30.984375 C 61.820312 30.976562 61.585938 30.96875 61.25 30.96875 L 61.0625 30.96875 C 61.03125 30.96875 61.011719 30.972656 61.003906 30.972656 C 60.992188 30.976562 60.992188 30.984375 60.992188 30.996094 L 60.992188 31.269531 C 61.152344 31.277344 61.289062 31.277344 61.398438 31.277344 C 61.507812 31.277344 61.585938 31.277344 61.628906 31.277344 C 61.679688 31.277344 61.71875 31.277344 61.75 31.273438 C 61.804688 31.273438 61.839844 31.261719 61.863281 31.25 C 61.914062 31.226562 61.949219 31.214844 61.976562 31.214844 C 62.015625 31.214844 62.039062 31.222656 62.039062 31.234375 L 61.964844 31.324219 L 61.972656 31.375 C 61.972656 31.410156 61.945312 31.425781 61.898438 31.425781 C 61.855469 31.425781 61.835938 31.417969 61.835938 31.398438 C 61.835938 31.382812 61.835938 31.371094 61.832031 31.359375 C 61.824219 31.355469 61.808594 31.347656 61.777344 31.339844 C 61.730469 31.335938 61.625 31.332031 61.449219 31.332031 C 61.28125 31.332031 61.128906 31.332031 60.992188 31.339844 L 60.992188 31.492188 C 60.992188 31.589844 60.996094 31.667969 61.011719 31.730469 C 61.121094 31.738281 61.242188 31.742188 61.371094 31.742188 C 61.503906 31.742188 61.617188 31.742188 61.710938 31.738281 C 61.808594 31.734375 61.890625 31.730469 61.957031 31.726562 C 62.089844 31.714844 62.191406 31.691406 62.257812 31.652344 C 62.285156 31.636719 62.3125 31.632812 62.335938 31.632812 C 62.363281 31.632812 62.378906 31.636719 62.378906 31.648438 C 62.378906 31.65625 62.371094 31.660156 62.363281 31.671875 C 62.355469 31.679688 62.339844 31.699219 62.316406 31.71875 C 62.292969 31.742188 62.277344 31.757812 62.265625 31.765625 C 62.253906 31.777344 62.242188 31.785156 62.230469 31.789062 C 62.207031 31.800781 62.164062 31.804688 62.105469 31.804688 C 62.046875 31.804688 61.988281 31.804688 61.929688 31.804688 C 61.871094 31.804688 61.8125 31.804688 61.75 31.804688 C 61.679688 31.800781 61.566406 31.800781 61.417969 31.796875 C 61.039062 31.789062 60.816406 31.789062 60.75 31.789062 C 60.6875 31.792969 60.640625 31.792969 60.605469 31.792969 C 60.574219 31.796875 60.539062 31.796875 60.503906 31.800781 C 60.472656 31.800781 60.4375 31.800781 60.398438 31.800781 Z M 60.398438 31.800781 "/>
<path style=" stroke:none;fill-rule:nonzero;fill:rgb(0%,0%,0%);fill-opacity:1;" d="M 68.8125 31.105469 C 68.8125 31.125 68.792969 31.132812 68.75 31.132812 C 68.71875 31.132812 68.695312 31.121094 68.671875 31.101562 C 68.648438 31.078125 68.605469 31.058594 68.546875 31.042969 C 68.488281 31.023438 68.414062 31.007812 68.332031 30.992188 C 68.160156 30.96875 67.972656 30.953125 67.773438 30.953125 C 67.574219 30.953125 67.40625 30.960938 67.257812 30.976562 C 67.113281 30.996094 66.988281 31.019531 66.886719 31.050781 C 66.667969 31.117188 66.558594 31.207031 66.558594 31.320312 C 66.558594 31.445312 66.679688 31.546875 66.925781 31.628906 C 67.167969 31.710938 67.480469 31.75 67.859375 31.75 C 68.28125 31.75 68.605469 31.691406 68.839844 31.566406 C 68.851562 31.5625 68.867188 31.554688 68.886719 31.554688 C 68.902344 31.554688 68.917969 31.5625 68.933594 31.574219 C 68.945312 31.582031 68.953125 31.59375 68.953125 31.609375 C 68.953125 31.628906 68.890625 31.65625 68.773438 31.691406 C 68.65625 31.726562 68.511719 31.753906 68.34375 31.777344 C 68.175781 31.796875 67.980469 31.808594 67.75 31.808594 C 67.527344 31.808594 67.320312 31.796875 67.117188 31.773438 C 66.917969 31.75 66.75 31.71875 66.613281 31.679688 C 66.3125 31.597656 66.164062 31.496094 66.164062 31.371094 C 66.164062 31.230469 66.3125 31.117188 66.613281 31.03125 C 66.910156 30.945312 67.300781 30.902344 67.785156 30.902344 C 68.136719 30.902344 68.425781 30.914062 68.652344 30.945312 C 68.695312 30.953125 68.726562 30.957031 68.746094 30.964844 C 68.773438 30.976562 68.785156 30.996094 68.792969 31.019531 C 68.796875 31.042969 68.796875 31.058594 68.796875 31.066406 C 68.808594 31.089844 68.8125 31.101562 68.8125 31.105469 Z M 68.8125 31.105469 "/>
<path style=" stroke:none;fill-rule:nonzero;fill:rgb(0%,0%,0%);fill-opacity:1;" d="M 73.324219 31.800781 C 73.234375 31.800781 73.191406 31.792969 73.191406 31.777344 C 73.191406 31.765625 73.214844 31.757812 73.265625 31.757812 L 73.363281 31.761719 C 73.449219 31.761719 73.503906 31.746094 73.53125 31.71875 C 73.558594 31.691406 73.570312 31.648438 73.570312 31.585938 L 73.570312 30.976562 L 73.515625 30.976562 C 73.273438 30.976562 73.078125 30.984375 72.929688 31 C 72.832031 31.011719 72.765625 31.03125 72.730469 31.058594 C 72.703125 31.078125 72.675781 31.085938 72.644531 31.085938 C 72.605469 31.085938 72.585938 31.082031 72.585938 31.066406 C 72.585938 31.0625 72.585938 31.054688 72.589844 31.046875 C 72.597656 31.042969 72.605469 31.039062 72.617188 31.03125 C 72.640625 31.007812 72.652344 30.988281 72.65625 30.964844 C 72.660156 30.941406 72.667969 30.929688 72.675781 30.921875 C 72.691406 30.910156 72.707031 30.90625 72.722656 30.90625 C 72.746094 30.90625 72.765625 30.910156 72.785156 30.910156 C 72.800781 30.910156 72.824219 30.914062 72.855469 30.914062 C 72.941406 30.917969 73.046875 30.917969 73.171875 30.917969 L 74.492188 30.917969 C 74.597656 30.917969 74.671875 30.917969 74.71875 30.914062 C 74.765625 30.910156 74.800781 30.90625 74.816406 30.90625 C 74.867188 30.90625 74.890625 30.914062 74.890625 30.929688 C 74.890625 30.933594 74.886719 30.945312 74.878906 30.953125 C 74.855469 30.972656 74.839844 30.992188 74.832031 31.007812 C 74.824219 31.023438 74.820312 31.035156 74.816406 31.046875 C 74.8125 31.054688 74.804688 31.0625 74.796875 31.066406 C 74.789062 31.078125 74.773438 31.082031 74.75 31.082031 C 74.726562 31.082031 74.710938 31.082031 74.703125 31.078125 C 74.699219 31.070312 74.691406 31.0625 74.683594 31.046875 C 74.679688 31.03125 74.667969 31.019531 74.652344 31.011719 C 74.632812 31.003906 74.609375 30.996094 74.585938 30.992188 C 74.535156 30.980469 74.453125 30.976562 74.34375 30.976562 L 73.898438 30.976562 L 73.898438 31.585938 C 73.898438 31.652344 73.90625 31.691406 73.925781 31.710938 C 73.945312 31.730469 73.96875 31.742188 73.996094 31.75 C 74.023438 31.757812 74.058594 31.761719 74.105469 31.761719 L 74.203125 31.757812 C 74.253906 31.757812 74.277344 31.765625 74.277344 31.777344 C 74.277344 31.792969 74.230469 31.800781 74.144531 31.800781 C 74.097656 31.800781 74.050781 31.800781 73.996094 31.796875 C 73.832031 31.789062 73.691406 31.789062 73.570312 31.792969 C 73.449219 31.796875 73.367188 31.800781 73.324219 31.800781 Z M 73.324219 31.800781 "/>
<path style=" stroke:none;fill-rule:nonzero;fill:rgb(0%,0%,0%);fill-opacity:1;" d="M 78.695312 31.800781 C 78.601562 31.800781 78.554688 31.792969 78.554688 31.777344 C 78.554688 31.765625 78.582031 31.757812 78.632812 31.757812 L 78.734375 31.761719 C 78.816406 31.761719 78.875 31.746094 78.902344 31.71875 C 78.921875 31.691406 78.933594 31.648438 78.933594 31.585938 L 78.933594 31.125 C 78.933594 31.0625 78.925781 31.019531 78.90625 31 C 78.890625 30.980469 78.867188 30.96875 78.839844 30.960938 C 78.8125 30.953125 78.777344 30.949219 78.734375 30.949219 L 78.632812 30.949219 C 78.582031 30.949219 78.554688 30.945312 78.554688 30.933594 C 78.554688 30.914062 78.589844 30.90625 78.667969 30.90625 C 78.746094 30.90625 78.820312 30.910156 78.886719 30.914062 C 78.957031 30.917969 79.027344 30.917969 79.101562 30.917969 C 79.175781 30.917969 79.246094 30.917969 79.3125 30.914062 C 79.382812 30.910156 79.472656 30.90625 79.582031 30.90625 C 79.691406 30.90625 79.808594 30.914062 79.925781 30.925781 C 80.050781 30.933594 80.15625 30.949219 80.242188 30.96875 C 80.417969 31.011719 80.507812 31.066406 80.507812 31.132812 C 80.507812 31.210938 80.40625 31.277344 80.207031 31.332031 C 80.144531 31.347656 80.074219 31.359375 80 31.375 L 80.675781 31.679688 C 80.75 31.714844 80.835938 31.738281 80.925781 31.746094 C 80.953125 31.75 80.988281 31.75 81.027344 31.75 C 81.097656 31.753906 81.132812 31.757812 81.132812 31.773438 C 81.132812 31.785156 81.097656 31.789062 81.019531 31.789062 L 80.621094 31.789062 C 80.523438 31.789062 80.4375 31.769531 80.359375 31.730469 L 79.835938 31.46875 C 79.785156 31.445312 79.738281 31.429688 79.695312 31.417969 C 79.652344 31.410156 79.589844 31.40625 79.5 31.40625 C 79.410156 31.40625 79.335938 31.40625 79.269531 31.40625 L 79.269531 31.585938 C 79.269531 31.652344 79.277344 31.691406 79.292969 31.710938 C 79.3125 31.730469 79.335938 31.742188 79.359375 31.75 C 79.386719 31.757812 79.421875 31.761719 79.46875 31.761719 L 79.566406 31.757812 C 79.617188 31.757812 79.640625 31.765625 79.640625 31.777344 C 79.640625 31.792969 79.597656 31.800781 79.507812 31.800781 C 79.460938 31.800781 79.414062 31.800781 79.367188 31.796875 C 79.199219 31.789062 79.054688 31.789062 78.933594 31.792969 C 78.816406 31.796875 78.738281 31.800781 78.695312 31.800781 Z M 79.269531 31.351562 C 79.355469 31.355469 79.441406 31.355469 79.527344 31.355469 L 79.652344 31.355469 C 79.789062 31.355469 79.90625 31.339844 80 31.3125 C 80.109375 31.277344 80.160156 31.234375 80.160156 31.175781 C 80.160156 31.105469 80.09375 31.050781 79.960938 31.011719 C 79.832031 30.972656 79.667969 30.953125 79.46875 30.953125 C 79.402344 30.953125 79.347656 30.957031 79.3125 30.964844 C 79.28125 30.96875 79.269531 30.980469 79.269531 30.992188 Z M 79.269531 31.351562 "/>
<path style=" stroke:none;fill-rule:nonzero;fill:rgb(0%,0%,0%);fill-opacity:1;" d="M 84.746094 31.347656 C 84.746094 31.285156 84.785156 31.222656 84.867188 31.167969 C 84.945312 31.113281 85.050781 31.066406 85.1875 31.027344 C 85.320312 30.988281 85.472656 30.957031 85.644531 30.933594 C 85.824219 30.914062 86.015625 30.902344 86.21875 30.902344 C 86.421875 30.902344 86.613281 30.914062 86.785156 30.9375 C 86.960938 30.960938 87.113281 30.992188 87.238281 31.03125 C 87.5 31.121094 87.632812 31.226562 87.632812 31.359375 C 87.632812 31.488281 87.496094 31.59375 87.226562 31.679688 C 86.949219 31.765625 86.597656 31.808594 86.171875 31.808594 C 85.753906 31.808594 85.414062 31.765625 85.144531 31.675781 C 84.878906 31.589844 84.746094 31.480469 84.746094 31.347656 Z M 85.105469 31.3125 C 85.105469 31.371094 85.132812 31.425781 85.191406 31.480469 C 85.25 31.535156 85.335938 31.582031 85.445312 31.621094 C 85.675781 31.710938 85.96875 31.753906 86.324219 31.753906 C 86.597656 31.753906 86.820312 31.722656 86.992188 31.65625 C 87.175781 31.589844 87.265625 31.503906 87.265625 31.398438 C 87.265625 31.269531 87.15625 31.164062 86.9375 31.082031 C 86.722656 30.996094 86.449219 30.957031 86.117188 30.957031 C 85.84375 30.957031 85.605469 30.988281 85.414062 31.054688 C 85.207031 31.121094 85.105469 31.207031 85.105469 31.3125 Z M 85.105469 31.3125 "/>
<path style=" stroke:none;fill-rule:nonzero;fill:rgb(0%,0%,0%);fill-opacity:1;" d="M 91.539062 31.800781 C 91.445312 31.800781 91.398438 31.792969 91.398438 31.777344 C 91.398438 31.765625 91.421875 31.757812 91.472656 31.757812 L 91.578125 31.761719 C 91.664062 31.761719 91.71875 31.746094 91.746094 31.71875 C 91.769531 31.691406 91.78125 31.648438 91.78125 31.585938 L 91.78125 31.125 C 91.78125 31.0625 91.769531 31.019531 91.753906 31 C 91.734375 30.980469 91.710938 30.96875 91.679688 30.960938 C 91.652344 30.953125 91.621094 30.949219 91.578125 30.949219 L 91.472656 30.953125 C 91.421875 30.953125 91.398438 30.949219 91.398438 30.933594 C 91.398438 30.917969 91.445312 30.910156 91.539062 30.910156 L 91.804688 30.917969 C 91.867188 30.917969 91.921875 30.917969 91.964844 30.914062 L 93.886719 31.609375 L 93.886719 31.125 C 93.886719 31.0625 93.875 31.019531 93.851562 31 C 93.828125 30.980469 93.804688 30.96875 93.78125 30.960938 C 93.753906 30.953125 93.714844 30.949219 93.671875 30.949219 L 93.566406 30.949219 C 93.515625 30.949219 93.492188 30.945312 93.492188 30.933594 C 93.492188 30.914062 93.535156 30.90625 93.625 30.90625 C 93.660156 30.90625 93.707031 30.910156 93.765625 30.910156 C 93.839844 30.914062 93.910156 30.917969 93.964844 30.917969 C 94.027344 30.917969 94.085938 30.917969 94.140625 30.914062 C 94.195312 30.910156 94.261719 30.90625 94.339844 30.90625 C 94.417969 30.90625 94.460938 30.914062 94.460938 30.933594 C 94.460938 30.945312 94.433594 30.949219 94.378906 30.949219 L 94.28125 30.949219 C 94.195312 30.949219 94.140625 30.964844 94.113281 30.992188 C 94.085938 31.015625 94.074219 31.058594 94.074219 31.125 L 94.074219 31.78125 C 94.074219 31.796875 94.066406 31.808594 94.058594 31.8125 C 94.054688 31.816406 94.042969 31.816406 94.027344 31.816406 C 94 31.816406 93.960938 31.808594 93.90625 31.789062 L 91.988281 31.097656 L 91.988281 31.585938 C 91.988281 31.652344 91.996094 31.691406 92.011719 31.710938 C 92.03125 31.730469 92.054688 31.742188 92.078125 31.75 C 92.105469 31.757812 92.140625 31.761719 92.1875 31.761719 L 92.285156 31.757812 C 92.339844 31.757812 92.367188 31.765625 92.367188 31.777344 C 92.367188 31.792969 92.328125 31.800781 92.246094 31.800781 C 92.167969 31.800781 92.09375 31.800781 92.035156 31.792969 C 91.96875 31.792969 91.910156 31.789062 91.851562 31.789062 C 91.792969 31.789062 91.738281 31.792969 91.679688 31.792969 C 91.621094 31.800781 91.574219 31.800781 91.539062 31.800781 Z M 91.539062 31.800781 "/>
<path style=" stroke:none;fill-rule:nonzero;fill:rgb(0%,0%,0%);fill-opacity:1;" d="M 98.210938 31.800781 C 98.117188 31.800781 98.070312 31.792969 98.070312 31.777344 C 98.070312 31.765625 98.097656 31.757812 98.152344 31.757812 L 98.25 31.761719 C 98.328125 31.761719 98.378906 31.75 98.40625 31.726562 C 98.441406 31.703125 98.457031 31.652344 98.457031 31.585938 L 98.445312 31.125 C 98.445312 31.054688 98.429688 31.007812 98.40625 30.992188 C 98.382812 30.972656 98.359375 30.960938 98.332031 30.957031 C 98.304688 30.949219 98.273438 30.949219 98.238281 30.949219 L 98.136719 30.949219 C 98.089844 30.949219 98.066406 30.945312 98.066406 30.933594 C 98.066406 30.914062 98.101562 30.90625 98.179688 30.90625 C 98.253906 30.90625 98.324219 30.910156 98.390625 30.914062 C 98.460938 30.917969 98.535156 30.917969 98.613281 30.917969 C 98.6875 30.917969 98.757812 30.917969 98.824219 30.914062 C 98.890625 30.910156 98.960938 30.90625 99.039062 30.90625 C 99.117188 30.90625 99.160156 30.914062 99.160156 30.933594 C 99.160156 30.945312 99.132812 30.949219 99.078125 30.949219 L 98.976562 30.949219 C 98.902344 30.949219 98.851562 30.960938 98.824219 30.984375 C 98.792969 31.007812 98.777344 31.054688 98.777344 31.125 L 98.785156 31.585938 C 98.785156 31.652344 98.796875 31.699219 98.824219 31.71875 C 98.851562 31.738281 98.878906 31.75 98.90625 31.753906 C 98.933594 31.757812 98.96875 31.761719 99.003906 31.761719 L 99.105469 31.757812 C 99.152344 31.757812 99.179688 31.765625 99.179688 31.777344 C 99.179688 31.792969 99.132812 31.800781 99.042969 31.800781 C 99 31.800781 98.953125 31.800781 98.898438 31.796875 C 98.726562 31.789062 98.578125 31.789062 98.457031 31.792969 C 98.339844 31.796875 98.253906 31.800781 98.210938 31.800781 Z M 98.210938 31.800781 "/>
<path style=" stroke:none;fill-rule:nonzero;fill:rgb(0%,0%,0%);fill-opacity:1;" d="M 105.582031 31.105469 C 105.582031 31.125 105.5625 31.132812 105.523438 31.132812 C 105.492188 31.132812 105.464844 31.121094 105.445312 31.101562 C 105.421875 31.078125 105.378906 31.058594 105.316406 31.042969 C 105.257812 31.023438 105.1875 31.007812 105.105469 30.992188 C 104.929688 30.96875 104.742188 30.953125 104.542969 30.953125 C 104.347656 30.953125 104.175781 30.960938 104.03125 30.976562 C 103.882812 30.996094 103.757812 31.019531 103.65625 31.050781 C 103.4375 31.117188 103.332031 31.207031 103.332031 31.320312 C 103.332031 31.445312 103.453125 31.546875 103.695312 31.628906 C 103.941406 31.710938 104.25 31.75 104.628906 31.75 C 105.050781 31.75 105.378906 31.691406 105.609375 31.566406 C 105.625 31.5625 105.636719 31.554688 105.65625 31.554688 C 105.671875 31.554688 105.691406 31.5625 105.703125 31.574219 C 105.71875 31.582031 105.722656 31.59375 105.722656 31.609375 C 105.722656 31.628906 105.664062 31.65625 105.542969 31.691406 C 105.425781 31.726562 105.285156 31.753906 105.117188 31.777344 C 104.945312 31.796875 104.75 31.808594 104.523438 31.808594 C 104.300781 31.808594 104.089844 31.796875 103.890625 31.773438 C 103.691406 31.75 103.519531 31.71875 103.382812 31.679688 C 103.085938 31.597656 102.9375 31.496094 102.9375 31.371094 C 102.9375 31.230469 103.085938 31.117188 103.382812 31.03125 C 103.679688 30.945312 104.070312 30.902344 104.558594 30.902344 C 104.90625 30.902344 105.195312 30.914062 105.421875 30.945312 C 105.46875 30.953125 105.5 30.957031 105.515625 30.964844 C 105.542969 30.976562 105.558594 30.996094 105.5625 31.019531 C 105.566406 31.042969 105.570312 31.058594 105.570312 31.066406 C 105.578125 31.089844 105.582031 31.101562 105.582031 31.105469 Z M 105.582031 31.105469 "/>
<path style=" stroke:none;fill-rule:nonzero;fill:rgb(0%,0%,0%);fill-opacity:1;" d="M 110.863281 30.929688 L 110.949219 30.925781 C 110.988281 30.925781 111.011719 30.933594 111.015625 30.953125 C 111.019531 30.972656 111.023438 30.988281 111.027344 31.003906 C 111.039062 31.015625 111.042969 31.027344 111.050781 31.035156 C 111.058594 31.046875 111.0625 31.054688 111.070312 31.0625 C 111.074219 31.070312 111.074219 31.074219 111.074219 31.082031 C 111.074219 31.085938 111.066406 31.089844 111.050781 31.09375 C 111.035156 31.097656 111.019531 31.097656 111.003906 31.097656 C 110.96875 31.097656 110.9375 31.085938 110.910156 31.066406 C 110.851562 31.027344 110.800781 31 110.761719 30.988281 C 110.671875 30.964844 110.539062 30.949219 110.363281 30.949219 C 110.117188 30.949219 109.953125 30.972656 109.867188 31.019531 C 109.84375 31.035156 109.828125 31.050781 109.828125 31.074219 C 109.828125 31.09375 109.84375 31.113281 109.875 31.132812 C 109.910156 31.152344 109.960938 31.167969 110.027344 31.1875 C 110.09375 31.207031 110.179688 31.230469 110.28125 31.25 C 110.390625 31.273438 110.503906 31.296875 110.621094 31.320312 C 110.742188 31.347656 110.835938 31.371094 110.902344 31.390625 C 110.96875 31.410156 111.023438 31.429688 111.0625 31.453125 C 111.140625 31.492188 111.183594 31.527344 111.183594 31.5625 C 111.183594 31.601562 111.164062 31.632812 111.128906 31.660156 C 111.097656 31.691406 111.042969 31.714844 110.96875 31.738281 C 110.808594 31.785156 110.570312 31.808594 110.25 31.808594 C 110.089844 31.808594 109.910156 31.796875 109.714844 31.773438 C 109.671875 31.769531 109.644531 31.761719 109.636719 31.757812 C 109.621094 31.75 109.609375 31.738281 109.601562 31.714844 C 109.59375 31.695312 109.582031 31.675781 109.570312 31.660156 C 109.554688 31.644531 109.542969 31.628906 109.527344 31.617188 L 109.503906 31.582031 C 109.492188 31.574219 109.488281 31.566406 109.488281 31.558594 C 109.488281 31.542969 109.503906 31.535156 109.542969 31.535156 C 109.59375 31.535156 109.632812 31.546875 109.65625 31.570312 C 109.691406 31.613281 109.722656 31.640625 109.753906 31.652344 C 109.875 31.703125 110.011719 31.734375 110.167969 31.746094 C 110.210938 31.75 110.273438 31.753906 110.347656 31.753906 C 110.429688 31.753906 110.503906 31.75 110.574219 31.742188 C 110.652344 31.734375 110.710938 31.726562 110.761719 31.714844 C 110.855469 31.691406 110.902344 31.664062 110.902344 31.632812 C 110.902344 31.59375 110.867188 31.566406 110.796875 31.539062 C 110.730469 31.511719 110.644531 31.488281 110.550781 31.46875 C 110.449219 31.445312 110.378906 31.433594 110.328125 31.421875 C 110.285156 31.414062 110.238281 31.402344 110.195312 31.394531 C 109.84375 31.320312 109.636719 31.25 109.574219 31.175781 C 109.558594 31.15625 109.550781 31.136719 109.550781 31.113281 C 109.550781 31.085938 109.570312 31.0625 109.609375 31.035156 C 109.648438 31.007812 109.703125 30.984375 109.777344 30.964844 C 109.9375 30.921875 110.140625 30.902344 110.394531 30.902344 C 110.511719 30.902344 110.601562 30.90625 110.667969 30.914062 C 110.765625 30.925781 110.832031 30.929688 110.863281 30.929688 Z M 110.863281 30.929688 "/>
</g>
</svg>
