<?xml version="1.0" encoding="UTF-8"?>
<svg xmlns="http://www.w3.org/2000/svg" xmlns:xlink="http://www.w3.org/1999/xlink" width="160px" height="160px" viewBox="0 0 160 160" version="1.1">
<g id="surface1">
<path style=" stroke:none;fill-rule:nonzero;fill:rgb(0%,0%,0%);fill-opacity:1;" d="M 28.820312 78.074219 C 28.863281 78.074219 28.886719 78.09375 28.886719 78.121094 C 28.886719 78.167969 28.863281 78.1875 28.820312 78.1875 L 26.464844 78.1875 C 26.785156 78.308594 27.035156 78.507812 27.214844 78.789062 C 27.394531 79.070312 27.488281 79.375 27.488281 79.703125 C 27.503906 80.019531 27.421875 80.304688 27.238281 80.5625 L 18.894531 92.890625 C 18.835938 92.992188 18.796875 93.105469 18.78125 93.230469 C 18.78125 93.394531 18.839844 93.535156 18.960938 93.648438 C 19.078125 93.761719 19.222656 93.816406 19.394531 93.816406 L 22.828125 93.816406 C 23.972656 93.816406 24.859375 93.742188 25.488281 93.589844 C 26.113281 93.4375 26.5625 93.261719 26.839844 93.054688 C 27.121094 92.851562 27.296875 92.667969 27.375 92.503906 C 27.390625 92.488281 27.40625 92.472656 27.421875 92.457031 C 27.433594 92.457031 27.449219 92.457031 27.464844 92.457031 C 27.480469 92.472656 27.488281 92.488281 27.488281 92.503906 C 27.503906 92.515625 27.503906 92.53125 27.488281 92.550781 L 26.832031 93.902344 C 26.832031 93.933594 26.816406 93.949219 26.785156 93.949219 L 16.425781 93.949219 C 16.414062 93.949219 16.398438 93.941406 16.386719 93.929688 C 16.367188 93.910156 16.359375 93.894531 16.359375 93.882812 C 16.359375 93.867188 16.367188 93.855469 16.386719 93.835938 C 16.398438 93.824219 16.414062 93.816406 16.425781 93.816406 L 18.78125 93.816406 C 18.464844 93.695312 18.214844 93.5 18.035156 93.230469 C 17.855469 92.960938 17.765625 92.65625 17.765625 92.324219 C 17.75 92.007812 17.820312 91.714844 17.988281 91.441406 L 26.332031 79.136719 C 26.410156 79.035156 26.453125 78.914062 26.464844 78.777344 C 26.464844 78.613281 26.40625 78.472656 26.285156 78.363281 C 26.167969 78.246094 26.023438 78.1875 25.859375 78.1875 L 22.421875 78.1875 C 21.277344 78.1875 20.394531 78.265625 19.765625 78.414062 C 19.140625 78.566406 18.6875 78.75 18.40625 78.960938 C 18.125 79.171875 17.949219 79.359375 17.878906 79.523438 C 17.863281 79.535156 17.835938 79.542969 17.808594 79.542969 C 17.808594 79.542969 17.800781 79.542969 17.785156 79.542969 C 17.773438 79.527344 17.765625 79.515625 17.765625 79.503906 C 17.75 79.484375 17.75 79.46875 17.765625 79.457031 L 18.421875 78.097656 C 18.421875 78.082031 18.433594 78.074219 18.464844 78.074219 Z M 28.820312 78.074219 "/>
<path style=" stroke:none;fill-rule:nonzero;fill:rgb(0%,0%,0%);fill-opacity:1;" d="M 32.691406 80.222656 C 33.484375 79.421875 34.378906 78.824219 35.375 78.429688 C 36.371094 78.027344 37.398438 77.828125 38.460938 77.828125 C 39.523438 77.828125 40.554688 78.027344 41.550781 78.429688 C 42.542969 78.824219 43.441406 79.421875 44.242188 80.222656 C 45.011719 80.992188 45.601562 81.878906 46.015625 82.882812 C 46.429688 83.882812 46.636719 84.925781 46.636719 86.015625 C 46.636719 87.101562 46.429688 88.144531 46.015625 89.148438 C 45.601562 90.148438 45.011719 91.027344 44.242188 91.78125 C 43.472656 92.550781 42.585938 93.140625 41.582031 93.554688 C 40.582031 93.96875 39.539062 94.175781 38.457031 94.175781 C 37.367188 94.175781 36.324219 93.96875 35.328125 93.554688 C 34.335938 93.140625 33.457031 92.550781 32.691406 91.78125 C 31.890625 90.980469 31.289062 90.085938 30.890625 89.089844 C 30.488281 88.09375 30.289062 87.066406 30.289062 86.003906 C 30.289062 84.941406 30.488281 83.914062 30.890625 82.914062 C 31.289062 81.921875 31.890625 81.023438 32.691406 80.222656 Z M 32.757812 80.316406 C 32.152344 80.914062 31.730469 81.636719 31.488281 82.476562 C 31.25 83.3125 31.183594 84.195312 31.296875 85.121094 C 31.40625 86.046875 31.691406 86.96875 32.148438 87.890625 C 32.609375 88.808594 33.234375 89.660156 34.023438 90.441406 C 34.804688 91.230469 35.65625 91.855469 36.574219 92.316406 C 37.496094 92.773438 38.417969 93.0625 39.34375 93.175781 C 40.269531 93.289062 41.152344 93.222656 41.988281 92.980469 C 42.828125 92.738281 43.550781 92.3125 44.148438 91.710938 C 44.753906 91.109375 45.179688 90.394531 45.429688 89.570312 C 45.679688 88.738281 45.75 87.847656 45.644531 86.894531 C 45.523438 85.933594 45.230469 84.988281 44.761719 84.070312 C 44.296875 83.148438 43.679688 82.3125 42.910156 81.554688 C 42.003906 80.636719 41.003906 79.941406 39.910156 79.476562 C 38.816406 79.007812 37.75 78.777344 36.710938 78.777344 C 35.957031 78.777344 35.242188 78.90625 34.5625 79.164062 C 33.882812 79.414062 33.28125 79.800781 32.757812 80.316406 Z M 32.757812 80.316406 "/>
<path style=" stroke:none;fill-rule:nonzero;fill:rgb(0%,0%,0%);fill-opacity:1;" d="M 61.785156 78.074219 C 61.828125 78.074219 61.851562 78.09375 61.851562 78.121094 C 61.851562 78.121094 61.851562 78.128906 61.851562 78.136719 C 61.851562 78.140625 61.851562 78.140625 61.851562 78.140625 C 61.851562 78.175781 61.828125 78.1875 61.785156 78.1875 L 61.652344 78.1875 C 61.363281 78.234375 61.121094 78.367188 60.925781 78.582031 C 60.730469 78.800781 60.632812 79.0625 60.632812 79.363281 L 60.632812 83.050781 C 60.632812 83.6875 60.425781 84.253906 60.019531 84.75 C 59.613281 85.246094 59.101562 85.5625 58.484375 85.695312 C 59.101562 85.835938 59.613281 86.152344 60.019531 86.648438 C 60.425781 87.140625 60.632812 87.714844 60.632812 88.363281 L 60.632812 91.234375 C 60.632812 91.824219 60.453125 92.359375 60.097656 92.84375 C 59.746094 93.328125 59.285156 93.660156 58.710938 93.835938 L 61.785156 93.835938 C 61.828125 93.835938 61.851562 93.851562 61.851562 93.882812 C 61.851562 93.925781 61.828125 93.949219 61.785156 93.949219 L 57.917969 93.949219 C 57.875 93.949219 57.851562 93.925781 57.851562 93.882812 C 57.851562 93.851562 57.875 93.835938 57.917969 93.835938 C 57.9375 93.835938 57.957031 93.835938 57.980469 93.828125 C 58 93.820312 58.019531 93.816406 58.03125 93.816406 C 58.335938 93.785156 58.582031 93.660156 58.777344 93.441406 C 58.972656 93.226562 59.074219 92.964844 59.074219 92.664062 L 59.074219 86.941406 C 59.074219 86.640625 58.972656 86.375 58.777344 86.148438 C 58.582031 85.921875 58.335938 85.792969 58.03125 85.761719 C 58.019531 85.761719 58 85.761719 57.980469 85.761719 C 57.957031 85.761719 57.9375 85.761719 57.917969 85.761719 L 52.511719 85.761719 C 52.5 85.761719 52.480469 85.761719 52.460938 85.761719 C 52.4375 85.761719 52.417969 85.761719 52.40625 85.761719 C 52.101562 85.792969 51.855469 85.921875 51.660156 86.148438 C 51.460938 86.375 51.367188 86.640625 51.367188 86.941406 L 51.367188 91.234375 C 51.367188 91.824219 51.1875 92.355469 50.832031 92.828125 C 50.476562 93.304688 50.019531 93.632812 49.464844 93.816406 L 52.511719 93.816406 C 52.5625 93.816406 52.585938 93.839844 52.585938 93.882812 C 52.585938 93.925781 52.5625 93.949219 52.511719 93.949219 L 48.804688 93.949219 C 48.773438 93.949219 48.746094 93.949219 48.726562 93.949219 C 48.703125 93.949219 48.675781 93.949219 48.644531 93.949219 C 48.601562 93.949219 48.578125 93.925781 48.578125 93.882812 C 48.578125 93.839844 48.601562 93.816406 48.644531 93.816406 L 48.785156 93.816406 C 49.070312 93.785156 49.308594 93.660156 49.507812 93.441406 C 49.699219 93.226562 49.800781 92.964844 49.800781 92.664062 L 49.800781 88.363281 C 49.800781 87.714844 50.003906 87.140625 50.414062 86.648438 C 50.820312 86.152344 51.335938 85.835938 51.953125 85.695312 C 51.335938 85.5625 50.820312 85.246094 50.414062 84.75 C 50.003906 84.253906 49.800781 83.6875 49.800781 83.050781 L 49.800781 80.789062 C 49.800781 80.1875 49.976562 79.648438 50.332031 79.175781 C 50.6875 78.699219 51.152344 78.371094 51.726562 78.1875 L 48.644531 78.1875 C 48.601562 78.1875 48.578125 78.167969 48.578125 78.121094 C 48.578125 78.09375 48.601562 78.074219 48.644531 78.074219 L 52.511719 78.074219 C 52.5625 78.074219 52.585938 78.09375 52.585938 78.121094 C 52.585938 78.167969 52.5625 78.1875 52.511719 78.1875 C 52.5 78.1875 52.480469 78.1875 52.460938 78.1875 C 52.4375 78.1875 52.417969 78.1875 52.40625 78.1875 C 52.101562 78.222656 51.855469 78.347656 51.660156 78.574219 C 51.460938 78.800781 51.367188 79.0625 51.367188 79.363281 L 51.367188 84.476562 C 51.367188 84.777344 51.460938 85.039062 51.660156 85.253906 C 51.855469 85.472656 52.101562 85.597656 52.40625 85.628906 C 52.417969 85.628906 52.4375 85.632812 52.460938 85.640625 C 52.480469 85.648438 52.5 85.648438 52.511719 85.648438 L 57.917969 85.648438 C 57.9375 85.648438 57.957031 85.648438 57.980469 85.640625 C 58 85.632812 58.019531 85.628906 58.03125 85.628906 C 58.335938 85.597656 58.582031 85.472656 58.777344 85.253906 C 58.972656 85.039062 59.074219 84.777344 59.074219 84.476562 L 59.074219 80.789062 C 59.074219 80.203125 59.25 79.667969 59.605469 79.1875 C 59.960938 78.707031 60.414062 78.371094 60.972656 78.1875 L 57.917969 78.1875 C 57.875 78.1875 57.851562 78.175781 57.851562 78.140625 C 57.851562 78.097656 57.875 78.074219 57.917969 78.074219 L 61.625 78.074219 C 61.65625 78.074219 61.6875 78.074219 61.71875 78.074219 C 61.75 78.074219 61.773438 78.074219 61.785156 78.074219 Z M 61.785156 78.074219 "/>
<path style=" stroke:none;fill-rule:nonzero;fill:rgb(0%,0%,0%);fill-opacity:1;" d="M 79.492188 93.816406 C 79.519531 93.816406 79.542969 93.839844 79.558594 93.882812 C 79.558594 93.925781 79.535156 93.949219 79.492188 93.949219 L 75.605469 93.949219 C 75.554688 93.949219 75.53125 93.925781 75.53125 93.882812 C 75.53125 93.839844 75.554688 93.816406 75.605469 93.816406 C 75.832031 93.816406 76.027344 93.738281 76.191406 93.582031 C 76.355469 93.421875 76.4375 93.222656 76.4375 92.976562 C 76.4375 92.824219 76.398438 92.6875 76.324219 92.570312 L 74.585938 88.589844 C 74.28125 87.914062 73.820312 87.375 73.203125 86.976562 C 72.585938 86.574219 71.90625 86.375 71.171875 86.375 C 70.492188 86.375 69.867188 86.542969 69.304688 86.875 C 68.738281 87.207031 68.289062 87.652344 67.957031 88.222656 C 67.628906 88.789062 67.464844 89.40625 67.464844 90.082031 C 67.464844 90.777344 67.628906 91.40625 67.957031 91.976562 C 68.289062 92.539062 68.738281 92.988281 69.304688 93.324219 C 69.867188 93.652344 70.492188 93.816406 71.171875 93.816406 C 71.214844 93.816406 71.238281 93.839844 71.238281 93.882812 C 71.238281 93.925781 71.214844 93.949219 71.171875 93.949219 L 62.964844 93.949219 C 62.914062 93.949219 62.890625 93.925781 62.890625 93.882812 C 62.890625 93.839844 62.914062 93.816406 62.964844 93.816406 C 63.53125 93.816406 64.058594 93.660156 64.542969 93.34375 C 65.027344 93.023438 65.378906 92.601562 65.605469 92.074219 L 71.417969 77.960938 L 71.464844 77.867188 C 71.464844 77.855469 71.472656 77.847656 71.484375 77.847656 C 71.484375 77.847656 71.484375 77.84375 71.484375 77.828125 C 71.5 77.828125 71.511719 77.828125 71.511719 77.828125 C 71.523438 77.828125 71.539062 77.828125 71.550781 77.828125 C 71.550781 77.828125 71.550781 77.835938 71.550781 77.847656 C 71.566406 77.847656 71.578125 77.855469 71.578125 77.867188 L 77.390625 91.148438 C 77.511719 91.402344 77.570312 91.675781 77.570312 91.960938 C 77.570312 92.386719 77.453125 92.765625 77.21875 93.101562 C 76.984375 93.441406 76.671875 93.679688 76.277344 93.816406 Z M 71.171875 86.242188 C 71.773438 86.242188 72.339844 86.375 72.863281 86.636719 C 73.390625 86.898438 73.835938 87.261719 74.199219 87.730469 L 70.765625 79.863281 L 65.71875 92.097656 C 65.71875 92.109375 65.71875 92.117188 65.71875 92.117188 C 65.703125 92.132812 65.703125 92.132812 65.71875 92.117188 L 65.128906 93.496094 C 65.128906 93.527344 65.113281 93.542969 65.085938 93.542969 C 65.070312 93.542969 65.0625 93.542969 65.0625 93.542969 C 65.019531 93.527344 65.003906 93.5 65.015625 93.457031 L 65.289062 92.824219 C 64.898438 93.320312 64.402344 93.652344 63.796875 93.816406 L 70.21875 93.816406 C 69.371094 93.601562 68.679688 93.148438 68.136719 92.457031 C 67.59375 91.761719 67.324219 90.980469 67.324219 90.109375 C 67.324219 89.398438 67.496094 88.75 67.84375 88.164062 C 68.191406 87.574219 68.652344 87.109375 69.230469 86.761719 C 69.8125 86.414062 70.460938 86.242188 71.171875 86.242188 Z M 71.171875 86.242188 "/>
<path style=" stroke:none;fill-rule:nonzero;fill:rgb(0%,0%,0%);fill-opacity:1;" d="M 92.558594 78.097656 L 93.21875 79.457031 C 93.230469 79.5 93.214844 79.527344 93.171875 79.542969 C 93.171875 79.542969 93.160156 79.542969 93.144531 79.542969 C 93.117188 79.542969 93.105469 79.535156 93.105469 79.523438 C 93.011719 79.359375 92.824219 79.171875 92.542969 78.960938 C 92.269531 78.75 91.816406 78.566406 91.191406 78.414062 C 90.5625 78.265625 89.6875 78.1875 88.558594 78.1875 C 88.527344 78.1875 88.5 78.1875 88.484375 78.1875 C 88.472656 78.1875 88.457031 78.1875 88.445312 78.1875 C 88.140625 78.222656 87.886719 78.347656 87.683594 78.574219 C 87.480469 78.800781 87.378906 79.0625 87.378906 79.363281 L 87.378906 91.234375 C 87.378906 91.824219 87.199219 92.359375 86.84375 92.84375 C 86.492188 93.328125 86.03125 93.660156 85.457031 93.835938 L 88.558594 93.835938 C 88.585938 93.835938 88.605469 93.851562 88.605469 93.882812 C 88.605469 93.925781 88.585938 93.949219 88.558594 93.949219 L 84.664062 93.949219 C 84.621094 93.949219 84.597656 93.925781 84.597656 93.882812 C 84.597656 93.851562 84.621094 93.835938 84.664062 93.835938 C 84.679688 93.835938 84.699219 93.835938 84.722656 93.835938 C 84.746094 93.835938 84.765625 93.828125 84.777344 93.816406 C 85.078125 93.785156 85.332031 93.660156 85.539062 93.441406 C 85.742188 93.226562 85.84375 92.964844 85.84375 92.664062 L 85.84375 80.789062 C 85.84375 80.1875 86.019531 79.648438 86.371094 79.175781 C 86.726562 78.699219 87.183594 78.371094 87.746094 78.1875 L 84.664062 78.1875 C 83.535156 78.1875 82.652344 78.265625 82.019531 78.414062 C 81.386719 78.566406 80.929688 78.75 80.652344 78.960938 C 80.375 79.171875 80.199219 79.359375 80.125 79.523438 C 80.105469 79.535156 80.089844 79.542969 80.078125 79.542969 C 80.058594 79.542969 80.050781 79.542969 80.050781 79.542969 C 80.039062 79.527344 80.023438 79.515625 80.011719 79.503906 C 80.011719 79.484375 80.011719 79.46875 80.011719 79.457031 L 80.664062 78.097656 C 80.675781 78.082031 80.699219 78.074219 80.730469 78.074219 L 92.492188 78.074219 C 92.519531 78.074219 92.542969 78.082031 92.558594 78.097656 Z M 92.558594 78.097656 "/>
<path style=" stroke:none;fill-rule:nonzero;fill:rgb(0%,0%,0%);fill-opacity:1;" d="M 104.722656 92.457031 C 104.769531 92.472656 104.785156 92.503906 104.769531 92.550781 L 104.109375 93.902344 C 104.097656 93.917969 104.089844 93.929688 104.089844 93.929688 C 104.074219 93.941406 104.058594 93.949219 104.042969 93.949219 L 94.589844 93.949219 C 94.558594 93.949219 94.53125 93.949219 94.511719 93.949219 C 94.488281 93.949219 94.460938 93.949219 94.429688 93.949219 C 94.386719 93.949219 94.363281 93.925781 94.363281 93.882812 C 94.363281 93.839844 94.386719 93.816406 94.429688 93.816406 L 94.570312 93.816406 C 94.855469 93.785156 95.09375 93.660156 95.292969 93.441406 C 95.484375 93.226562 95.585938 92.964844 95.585938 92.664062 L 95.585938 88.363281 C 95.585938 87.714844 95.789062 87.140625 96.199219 86.648438 C 96.605469 86.152344 97.121094 85.835938 97.738281 85.695312 C 97.121094 85.5625 96.605469 85.246094 96.199219 84.75 C 95.789062 84.253906 95.585938 83.6875 95.585938 83.050781 L 95.585938 80.789062 C 95.585938 80.1875 95.761719 79.648438 96.117188 79.175781 C 96.472656 78.699219 96.9375 78.371094 97.511719 78.1875 L 94.429688 78.1875 C 94.386719 78.1875 94.363281 78.167969 94.363281 78.121094 C 94.363281 78.09375 94.386719 78.074219 94.429688 78.074219 L 103.589844 78.074219 C 103.609375 78.074219 103.609375 78.074219 103.589844 78.074219 C 103.609375 78.074219 103.617188 78.074219 103.617188 78.074219 C 103.617188 78.074219 103.625 78.082031 103.636719 78.097656 C 103.636719 78.113281 103.636719 78.121094 103.636719 78.121094 C 103.636719 78.121094 103.636719 78.128906 103.636719 78.140625 L 100.335938 90.515625 C 100.335938 90.542969 100.320312 90.554688 100.292969 90.554688 C 100.292969 90.554688 100.285156 90.554688 100.269531 90.554688 C 100.238281 90.554688 100.222656 90.535156 100.222656 90.488281 L 101.492188 85.761719 L 98.296875 85.761719 C 98.285156 85.761719 98.265625 85.761719 98.246094 85.761719 C 98.222656 85.761719 98.203125 85.761719 98.191406 85.761719 C 97.886719 85.792969 97.640625 85.921875 97.445312 86.148438 C 97.246094 86.375 97.152344 86.640625 97.152344 86.941406 L 97.152344 91.234375 C 97.152344 91.824219 96.972656 92.355469 96.617188 92.828125 C 96.261719 93.304688 95.804688 93.632812 95.25 93.816406 L 98.777344 93.816406 C 99.742188 93.816406 100.648438 93.753906 101.496094 93.636719 C 102.351562 93.515625 103.058594 93.359375 103.625 93.164062 C 104.191406 92.960938 104.539062 92.742188 104.65625 92.503906 C 104.65625 92.488281 104.664062 92.472656 104.679688 92.457031 C 104.691406 92.457031 104.707031 92.457031 104.722656 92.457031 Z M 98.296875 85.648438 L 101.511719 85.648438 L 103.164062 79.476562 C 103.222656 79.300781 103.191406 79.132812 103.070312 78.980469 C 102.859375 78.710938 102.367188 78.511719 101.589844 78.382812 C 100.8125 78.253906 99.714844 78.1875 98.296875 78.1875 C 98.285156 78.1875 98.265625 78.1875 98.246094 78.1875 C 98.222656 78.1875 98.203125 78.1875 98.191406 78.1875 C 97.886719 78.222656 97.640625 78.347656 97.445312 78.574219 C 97.246094 78.800781 97.152344 79.0625 97.152344 79.363281 L 97.152344 84.476562 C 97.152344 84.777344 97.246094 85.039062 97.445312 85.253906 C 97.640625 85.472656 97.886719 85.597656 98.191406 85.628906 C 98.203125 85.628906 98.222656 85.632812 98.246094 85.640625 C 98.265625 85.648438 98.285156 85.648438 98.296875 85.648438 Z M 98.296875 85.648438 "/>
<path style=" stroke:none;fill-rule:nonzero;fill:rgb(0%,0%,0%);fill-opacity:1;" d="M 119.285156 84.863281 C 119.269531 84.847656 119.253906 84.828125 119.238281 84.816406 C 119.238281 84.800781 119.238281 84.78125 119.238281 84.769531 L 120.125 82.441406 C 119.609375 81.082031 118.859375 80.003906 117.871094 79.210938 C 116.882812 78.410156 115.8125 77.988281 114.652344 77.941406 L 114.605469 77.941406 C 114.574219 77.941406 114.535156 77.941406 114.492188 77.941406 C 114.445312 77.941406 114.394531 77.941406 114.332031 77.941406 C 113.503906 77.96875 112.71875 78.195312 111.972656 78.617188 C 111.222656 79.039062 110.5625 79.621094 109.992188 80.363281 C 109.40625 81.132812 108.953125 82 108.644531 82.960938 C 108.335938 83.925781 108.183594 84.945312 108.183594 86.015625 C 108.183594 87.070312 108.335938 88.082031 108.644531 89.054688 C 108.953125 90.027344 109.40625 90.890625 109.992188 91.640625 C 110.5625 92.398438 111.222656 92.980469 111.972656 93.394531 C 112.71875 93.808594 113.496094 94.03125 114.3125 94.0625 L 114.359375 94.0625 C 114.414062 94.0625 114.453125 94.0625 114.472656 94.0625 C 114.496094 94.0625 114.527344 94.0625 114.558594 94.0625 C 114.585938 94.0625 114.609375 94.0625 114.625 94.0625 C 115.8125 94.015625 116.898438 93.59375 117.878906 92.789062 C 118.859375 91.980469 119.613281 90.90625 120.144531 89.5625 C 120.144531 89.53125 120.160156 89.515625 120.191406 89.515625 C 120.222656 89.515625 120.238281 89.53125 120.238281 89.5625 L 120.824219 91.121094 C 120.835938 91.140625 120.835938 91.15625 120.824219 91.167969 C 120.066406 92.101562 119.148438 92.835938 118.0625 93.363281 C 116.980469 93.890625 115.839844 94.164062 114.652344 94.175781 L 114.605469 94.175781 C 114.574219 94.175781 114.535156 94.175781 114.492188 94.175781 C 114.445312 94.175781 114.394531 94.175781 114.332031 94.175781 C 113.257812 94.164062 112.230469 93.945312 111.246094 93.523438 C 110.257812 93.101562 109.394531 92.503906 108.65625 91.734375 C 107.902344 90.96875 107.320312 90.089844 106.910156 89.101562 C 106.507812 88.113281 106.304688 87.082031 106.304688 86.015625 C 106.304688 84.945312 106.507812 83.914062 106.910156 82.914062 C 107.320312 81.921875 107.902344 81.039062 108.65625 80.269531 C 109.394531 79.515625 110.253906 78.921875 111.230469 78.496094 C 112.210938 78.066406 113.238281 77.84375 114.3125 77.828125 L 114.378906 77.828125 C 114.40625 77.828125 114.445312 77.828125 114.492188 77.828125 C 114.519531 77.828125 114.574219 77.828125 114.652344 77.828125 C 115.839844 77.855469 116.980469 78.132812 118.0625 78.65625 C 119.148438 79.175781 120.066406 79.902344 120.824219 80.835938 C 120.804688 80.835938 120.804688 80.835938 120.824219 80.835938 C 120.824219 80.847656 120.824219 80.855469 120.824219 80.855469 C 120.824219 80.855469 120.824219 80.867188 120.824219 80.882812 C 120.824219 80.882812 120.824219 80.890625 120.824219 80.902344 L 120.238281 82.460938 L 119.351562 84.816406 C 119.351562 84.847656 119.335938 84.863281 119.304688 84.863281 C 119.289062 84.863281 119.285156 84.863281 119.285156 84.863281 Z M 119.285156 84.863281 "/>
<path style=" stroke:none;fill-rule:nonzero;fill:rgb(0%,0%,0%);fill-opacity:1;" d="M 135.992188 78.074219 C 136.035156 78.074219 136.058594 78.09375 136.058594 78.121094 C 136.058594 78.121094 136.058594 78.128906 136.058594 78.136719 C 136.058594 78.140625 136.058594 78.140625 136.058594 78.140625 C 136.058594 78.175781 136.035156 78.1875 135.992188 78.1875 L 135.859375 78.1875 C 135.570312 78.234375 135.328125 78.367188 135.132812 78.582031 C 134.933594 78.800781 134.839844 79.0625 134.839844 79.363281 L 134.839844 83.050781 C 134.839844 83.6875 134.632812 84.253906 134.226562 84.75 C 133.820312 85.246094 133.308594 85.5625 132.691406 85.695312 C 133.308594 85.835938 133.820312 86.152344 134.226562 86.648438 C 134.632812 87.140625 134.839844 87.714844 134.839844 88.363281 L 134.839844 91.234375 C 134.839844 91.824219 134.660156 92.359375 134.304688 92.84375 C 133.953125 93.328125 133.492188 93.660156 132.917969 93.835938 L 135.992188 93.835938 C 136.035156 93.835938 136.058594 93.851562 136.058594 93.882812 C 136.058594 93.925781 136.035156 93.949219 135.992188 93.949219 L 132.125 93.949219 C 132.082031 93.949219 132.058594 93.925781 132.058594 93.882812 C 132.058594 93.851562 132.082031 93.835938 132.125 93.835938 C 132.140625 93.835938 132.160156 93.835938 132.183594 93.828125 C 132.207031 93.820312 132.226562 93.816406 132.238281 93.816406 C 132.539062 93.785156 132.789062 93.660156 132.984375 93.441406 C 133.179688 93.226562 133.277344 92.964844 133.277344 92.664062 L 133.277344 86.941406 C 133.277344 86.640625 133.179688 86.375 132.984375 86.148438 C 132.789062 85.921875 132.539062 85.792969 132.238281 85.761719 C 132.226562 85.761719 132.207031 85.761719 132.183594 85.761719 C 132.160156 85.761719 132.140625 85.761719 132.125 85.761719 L 126.71875 85.761719 C 126.707031 85.761719 126.6875 85.761719 126.664062 85.761719 C 126.640625 85.761719 126.625 85.761719 126.613281 85.761719 C 126.308594 85.792969 126.058594 85.921875 125.867188 86.148438 C 125.667969 86.375 125.570312 86.640625 125.570312 86.941406 L 125.570312 91.234375 C 125.570312 91.824219 125.394531 92.355469 125.039062 92.828125 C 124.683594 93.304688 124.226562 93.632812 123.671875 93.816406 L 126.71875 93.816406 C 126.765625 93.816406 126.792969 93.839844 126.792969 93.882812 C 126.792969 93.925781 126.765625 93.949219 126.71875 93.949219 L 123.011719 93.949219 C 122.980469 93.949219 122.953125 93.949219 122.933594 93.949219 C 122.910156 93.949219 122.882812 93.949219 122.851562 93.949219 C 122.808594 93.949219 122.785156 93.925781 122.785156 93.882812 C 122.785156 93.839844 122.808594 93.816406 122.851562 93.816406 L 122.992188 93.816406 C 123.273438 93.785156 123.515625 93.660156 123.710938 93.441406 C 123.90625 93.226562 124.003906 92.964844 124.003906 92.664062 L 124.003906 88.363281 C 124.003906 87.714844 124.207031 87.140625 124.617188 86.648438 C 125.027344 86.152344 125.539062 85.835938 126.160156 85.695312 C 125.539062 85.5625 125.027344 85.246094 124.617188 84.75 C 124.207031 84.253906 124.003906 83.6875 124.003906 83.050781 L 124.003906 80.789062 C 124.003906 80.1875 124.183594 79.648438 124.539062 79.175781 C 124.894531 78.699219 125.359375 78.371094 125.933594 78.1875 L 122.851562 78.1875 C 122.808594 78.1875 122.785156 78.167969 122.785156 78.121094 C 122.785156 78.09375 122.808594 78.074219 122.851562 78.074219 L 126.71875 78.074219 C 126.765625 78.074219 126.792969 78.09375 126.792969 78.121094 C 126.792969 78.167969 126.765625 78.1875 126.71875 78.1875 C 126.707031 78.1875 126.6875 78.1875 126.664062 78.1875 C 126.640625 78.1875 126.625 78.1875 126.613281 78.1875 C 126.308594 78.222656 126.058594 78.347656 125.867188 78.574219 C 125.667969 78.800781 125.570312 79.0625 125.570312 79.363281 L 125.570312 84.476562 C 125.570312 84.777344 125.667969 85.039062 125.867188 85.253906 C 126.058594 85.472656 126.308594 85.597656 126.613281 85.628906 C 126.625 85.628906 126.640625 85.632812 126.664062 85.640625 C 126.6875 85.648438 126.707031 85.648438 126.71875 85.648438 L 132.125 85.648438 C 132.140625 85.648438 132.160156 85.648438 132.183594 85.640625 C 132.207031 85.632812 132.226562 85.628906 132.238281 85.628906 C 132.539062 85.597656 132.789062 85.472656 132.984375 85.253906 C 133.179688 85.039062 133.277344 84.777344 133.277344 84.476562 L 133.277344 80.789062 C 133.277344 80.203125 133.457031 79.667969 133.8125 79.1875 C 134.167969 78.707031 134.621094 78.371094 135.179688 78.1875 L 132.125 78.1875 C 132.082031 78.1875 132.058594 78.175781 132.058594 78.140625 C 132.058594 78.097656 132.082031 78.074219 132.125 78.074219 L 135.832031 78.074219 C 135.863281 78.074219 135.894531 78.074219 135.925781 78.074219 C 135.957031 78.074219 135.980469 78.074219 135.992188 78.074219 Z M 135.992188 78.074219 "/>
<path style=" stroke:none;fill-rule:nonzero;fill:rgb(0%,0%,0%);fill-opacity:1;" d="M 48.886719 101.765625 C 48.804688 101.765625 48.765625 101.738281 48.765625 101.683594 C 48.765625 101.644531 48.792969 101.625 48.84375 101.625 L 48.945312 101.636719 C 49.019531 101.636719 49.074219 101.605469 49.105469 101.539062 C 49.136719 101.457031 49.152344 101.304688 49.152344 101.078125 L 49.152344 99.597656 C 49.152344 99.371094 49.140625 99.230469 49.117188 99.171875 C 49.09375 99.109375 49.070312 99.070312 49.046875 99.058594 C 49.019531 99.042969 48.984375 99.039062 48.945312 99.039062 L 48.84375 99.042969 C 48.792969 99.042969 48.765625 99.023438 48.765625 98.984375 C 48.765625 98.929688 48.800781 98.902344 48.878906 98.902344 C 48.953125 98.902344 49.011719 98.90625 49.058594 98.910156 C 49.105469 98.914062 49.15625 98.921875 49.203125 98.921875 C 49.332031 98.933594 49.433594 98.9375 49.511719 98.9375 C 49.585938 98.9375 49.664062 98.9375 49.746094 98.9375 C 49.828125 98.933594 49.921875 98.929688 50.023438 98.921875 C 50.296875 98.910156 50.484375 98.902344 50.589844 98.902344 C 50.699219 98.902344 50.753906 98.910156 50.765625 98.921875 C 50.777344 98.9375 50.785156 98.957031 50.785156 98.976562 C 50.785156 99 50.785156 99.019531 50.785156 99.039062 C 50.785156 99.054688 50.78125 99.078125 50.777344 99.105469 C 50.777344 99.136719 50.773438 99.183594 50.765625 99.242188 C 50.761719 99.308594 50.75 99.347656 50.738281 99.371094 C 50.726562 99.394531 50.714844 99.402344 50.699219 99.402344 C 50.679688 99.402344 50.667969 99.402344 50.660156 99.390625 C 50.652344 99.382812 50.644531 99.363281 50.632812 99.332031 C 50.621094 99.296875 50.601562 99.265625 50.570312 99.238281 C 50.539062 99.207031 50.492188 99.179688 50.433594 99.15625 C 50.308594 99.121094 50.074219 99.105469 49.738281 99.105469 L 49.550781 99.105469 C 49.519531 99.105469 49.5 99.109375 49.492188 99.117188 C 49.480469 99.128906 49.476562 99.148438 49.476562 99.183594 L 49.476562 100.0625 C 49.640625 100.082031 49.777344 100.089844 49.886719 100.089844 C 49.996094 100.089844 50.074219 100.089844 50.117188 100.089844 C 50.167969 100.085938 50.207031 100.082031 50.238281 100.078125 C 50.292969 100.070312 50.328125 100.042969 50.351562 100.003906 C 50.398438 99.929688 50.4375 99.890625 50.464844 99.890625 C 50.503906 99.890625 50.523438 99.910156 50.523438 99.949219 L 50.453125 100.242188 L 50.457031 100.402344 C 50.457031 100.507812 50.433594 100.558594 50.386719 100.558594 C 50.34375 100.558594 50.324219 100.53125 50.324219 100.476562 C 50.324219 100.421875 50.320312 100.382812 50.316406 100.355469 C 50.3125 100.332031 50.296875 100.308594 50.265625 100.289062 C 50.21875 100.269531 50.113281 100.257812 49.9375 100.257812 C 49.769531 100.257812 49.613281 100.265625 49.476562 100.285156 L 49.476562 100.777344 C 49.476562 101.082031 49.484375 101.335938 49.5 101.539062 C 49.609375 101.5625 49.726562 101.578125 49.859375 101.578125 C 49.992188 101.578125 50.105469 101.574219 50.199219 101.5625 C 50.296875 101.554688 50.378906 101.542969 50.445312 101.523438 C 50.578125 101.484375 50.679688 101.40625 50.746094 101.289062 C 50.773438 101.242188 50.796875 101.21875 50.824219 101.21875 C 50.851562 101.21875 50.863281 101.238281 50.863281 101.277344 C 50.863281 101.296875 50.859375 101.316406 50.851562 101.34375 C 50.839844 101.378906 50.828125 101.433594 50.804688 101.503906 C 50.78125 101.574219 50.765625 101.628906 50.75 101.65625 C 50.742188 101.6875 50.730469 101.714844 50.71875 101.730469 C 50.695312 101.757812 50.652344 101.769531 50.589844 101.769531 C 50.535156 101.769531 50.476562 101.769531 50.417969 101.769531 C 50.359375 101.769531 50.300781 101.769531 50.238281 101.769531 C 50.167969 101.765625 50.054688 101.757812 49.90625 101.75 C 49.527344 101.730469 49.304688 101.726562 49.238281 101.730469 C 49.175781 101.738281 49.125 101.742188 49.089844 101.742188 C 49.058594 101.746094 49.027344 101.753906 48.992188 101.757812 C 48.960938 101.761719 48.925781 101.765625 48.886719 101.765625 Z M 48.886719 101.765625 "/>
<path style=" stroke:none;fill-rule:nonzero;fill:rgb(0%,0%,0%);fill-opacity:1;" d="M 54.699219 101.765625 C 54.621094 101.765625 54.585938 101.738281 54.585938 101.683594 C 54.585938 101.644531 54.613281 101.625 54.667969 101.625 L 54.765625 101.636719 C 54.847656 101.636719 54.90625 101.589844 54.933594 101.496094 C 54.953125 101.417969 54.964844 101.277344 54.964844 101.070312 L 54.964844 99.597656 C 54.964844 99.394531 54.957031 99.261719 54.941406 99.195312 C 54.921875 99.136719 54.898438 99.09375 54.871094 99.070312 C 54.847656 99.046875 54.808594 99.039062 54.765625 99.039062 L 54.667969 99.042969 C 54.613281 99.042969 54.585938 99.023438 54.585938 98.984375 C 54.585938 98.929688 54.621094 98.902344 54.699219 98.902344 C 54.78125 98.902344 54.851562 98.910156 54.917969 98.921875 C 54.988281 98.933594 55.0625 98.9375 55.132812 98.9375 C 55.207031 98.9375 55.28125 98.933594 55.347656 98.921875 C 55.414062 98.910156 55.484375 98.902344 55.558594 98.902344 C 55.632812 98.902344 55.671875 98.929688 55.671875 98.984375 C 55.671875 99.023438 55.648438 99.042969 55.597656 99.042969 L 55.5 99.039062 C 55.414062 99.039062 55.359375 99.082031 55.332031 99.175781 C 55.308594 99.25 55.300781 99.390625 55.300781 99.597656 L 55.300781 100.777344 C 55.300781 101.082031 55.304688 101.332031 55.320312 101.53125 C 55.417969 101.5625 55.527344 101.578125 55.652344 101.578125 C 55.777344 101.578125 55.882812 101.570312 55.972656 101.558594 C 56.066406 101.539062 56.144531 101.515625 56.210938 101.492188 C 56.335938 101.4375 56.433594 101.351562 56.5 101.230469 C 56.53125 101.183594 56.558594 101.15625 56.585938 101.15625 C 56.613281 101.15625 56.625 101.175781 56.625 101.21875 C 56.625 101.234375 56.621094 101.253906 56.613281 101.277344 C 56.601562 101.316406 56.585938 101.375 56.566406 101.445312 C 56.542969 101.515625 56.527344 101.570312 56.511719 101.609375 C 56.5 101.648438 56.484375 101.675781 56.464844 101.703125 C 56.433594 101.746094 56.386719 101.769531 56.324219 101.769531 C 56.269531 101.769531 56.210938 101.769531 56.160156 101.769531 C 56.109375 101.769531 56.054688 101.765625 56 101.765625 C 55.941406 101.765625 55.878906 101.761719 55.8125 101.757812 C 55.746094 101.753906 55.667969 101.746094 55.585938 101.742188 C 55.5 101.742188 55.425781 101.742188 55.359375 101.738281 C 55.296875 101.730469 55.234375 101.730469 55.171875 101.730469 C 55.113281 101.730469 55.0625 101.730469 55.019531 101.738281 C 54.980469 101.742188 54.941406 101.742188 54.90625 101.742188 C 54.875 101.746094 54.84375 101.753906 54.8125 101.757812 C 54.78125 101.761719 54.742188 101.765625 54.699219 101.765625 Z M 54.699219 101.765625 "/>
<path style=" stroke:none;fill-rule:nonzero;fill:rgb(0%,0%,0%);fill-opacity:1;" d="M 60.398438 101.765625 C 60.316406 101.765625 60.277344 101.738281 60.277344 101.683594 C 60.277344 101.644531 60.304688 101.625 60.355469 101.625 L 60.457031 101.636719 C 60.53125 101.636719 60.585938 101.605469 60.617188 101.539062 C 60.648438 101.457031 60.664062 101.304688 60.664062 101.078125 L 60.664062 99.597656 C 60.664062 99.371094 60.652344 99.230469 60.628906 99.171875 C 60.605469 99.109375 60.585938 99.070312 60.558594 99.058594 C 60.53125 99.042969 60.496094 99.039062 60.457031 99.039062 L 60.355469 99.042969 C 60.304688 99.042969 60.277344 99.023438 60.277344 98.984375 C 60.277344 98.929688 60.3125 98.902344 60.390625 98.902344 C 60.464844 98.902344 60.527344 98.90625 60.570312 98.910156 C 60.617188 98.914062 60.667969 98.921875 60.71875 98.921875 C 60.847656 98.933594 60.949219 98.9375 61.023438 98.9375 C 61.097656 98.9375 61.175781 98.9375 61.257812 98.9375 C 61.339844 98.933594 61.433594 98.929688 61.539062 98.921875 C 61.808594 98.910156 61.996094 98.902344 62.105469 98.902344 C 62.210938 98.902344 62.265625 98.910156 62.277344 98.921875 C 62.289062 98.9375 62.296875 98.957031 62.296875 98.976562 C 62.296875 99 62.296875 99.019531 62.296875 99.039062 C 62.296875 99.054688 62.292969 99.078125 62.289062 99.105469 C 62.289062 99.136719 62.285156 99.183594 62.277344 99.242188 C 62.273438 99.308594 62.265625 99.347656 62.25 99.371094 C 62.242188 99.394531 62.226562 99.402344 62.210938 99.402344 C 62.191406 99.402344 62.179688 99.402344 62.171875 99.390625 C 62.164062 99.382812 62.15625 99.363281 62.144531 99.332031 C 62.132812 99.296875 62.113281 99.265625 62.085938 99.238281 C 62.050781 99.207031 62.003906 99.179688 61.945312 99.15625 C 61.820312 99.121094 61.585938 99.105469 61.25 99.105469 L 61.0625 99.105469 C 61.03125 99.105469 61.011719 99.109375 61.003906 99.117188 C 60.992188 99.128906 60.992188 99.148438 60.992188 99.183594 L 60.992188 100.0625 C 61.152344 100.082031 61.289062 100.089844 61.398438 100.089844 C 61.507812 100.089844 61.585938 100.089844 61.628906 100.089844 C 61.679688 100.085938 61.71875 100.082031 61.75 100.078125 C 61.804688 100.070312 61.839844 100.042969 61.863281 100.003906 C 61.914062 99.929688 61.949219 99.890625 61.976562 99.890625 C 62.015625 99.890625 62.039062 99.910156 62.039062 99.949219 L 61.964844 100.242188 L 61.972656 100.402344 C 61.972656 100.507812 61.945312 100.558594 61.898438 100.558594 C 61.855469 100.558594 61.835938 100.53125 61.835938 100.476562 C 61.835938 100.421875 61.835938 100.382812 61.832031 100.355469 C 61.824219 100.332031 61.808594 100.308594 61.777344 100.289062 C 61.730469 100.269531 61.625 100.257812 61.449219 100.257812 C 61.28125 100.257812 61.128906 100.265625 60.992188 100.285156 L 60.992188 100.777344 C 60.992188 101.082031 60.996094 101.335938 61.011719 101.539062 C 61.121094 101.5625 61.242188 101.578125 61.371094 101.578125 C 61.503906 101.578125 61.617188 101.574219 61.710938 101.5625 C 61.808594 101.554688 61.890625 101.542969 61.957031 101.523438 C 62.089844 101.484375 62.191406 101.40625 62.257812 101.289062 C 62.285156 101.242188 62.3125 101.21875 62.335938 101.21875 C 62.363281 101.21875 62.378906 101.238281 62.378906 101.277344 C 62.378906 101.296875 62.371094 101.316406 62.363281 101.34375 C 62.355469 101.378906 62.339844 101.433594 62.316406 101.503906 C 62.292969 101.574219 62.277344 101.628906 62.265625 101.65625 C 62.253906 101.6875 62.242188 101.714844 62.230469 101.730469 C 62.207031 101.757812 62.164062 101.769531 62.105469 101.769531 C 62.046875 101.769531 61.988281 101.769531 61.929688 101.769531 C 61.871094 101.769531 61.8125 101.769531 61.75 101.769531 C 61.679688 101.765625 61.566406 101.757812 61.417969 101.75 C 61.039062 101.730469 60.816406 101.726562 60.75 101.730469 C 60.6875 101.738281 60.640625 101.742188 60.605469 101.742188 C 60.574219 101.746094 60.539062 101.753906 60.503906 101.757812 C 60.472656 101.761719 60.4375 101.765625 60.398438 101.765625 Z M 60.398438 101.765625 "/>
<path style=" stroke:none;fill-rule:nonzero;fill:rgb(0%,0%,0%);fill-opacity:1;" d="M 68.8125 99.542969 C 68.8125 99.597656 68.792969 99.625 68.75 99.625 C 68.71875 99.625 68.695312 99.589844 68.671875 99.523438 C 68.648438 99.453125 68.605469 99.390625 68.546875 99.332031 C 68.488281 99.273438 68.414062 99.222656 68.332031 99.175781 C 68.160156 99.09375 67.972656 99.050781 67.773438 99.050781 C 67.574219 99.050781 67.40625 99.078125 67.257812 99.128906 C 67.113281 99.183594 66.988281 99.261719 66.886719 99.363281 C 66.667969 99.578125 66.558594 99.863281 66.558594 100.222656 C 66.558594 100.625 66.679688 100.953125 66.925781 101.210938 C 67.167969 101.472656 67.480469 101.605469 67.859375 101.605469 C 68.28125 101.605469 68.605469 101.410156 68.839844 101.015625 C 68.851562 100.996094 68.867188 100.980469 68.886719 100.976562 C 68.902344 100.976562 68.917969 100.996094 68.933594 101.03125 C 68.945312 101.0625 68.953125 101.101562 68.953125 101.144531 C 68.953125 101.210938 68.890625 101.300781 68.773438 101.410156 C 68.65625 101.523438 68.511719 101.613281 68.34375 101.683594 C 68.175781 101.75 67.980469 101.785156 67.75 101.785156 C 67.527344 101.785156 67.320312 101.746094 67.117188 101.675781 C 66.917969 101.601562 66.75 101.503906 66.613281 101.378906 C 66.3125 101.109375 66.164062 100.78125 66.164062 100.382812 C 66.164062 99.933594 66.3125 99.574219 66.613281 99.304688 C 66.910156 99.023438 67.300781 98.882812 67.785156 98.882812 C 68.136719 98.882812 68.425781 98.929688 68.652344 99.023438 C 68.695312 99.046875 68.726562 99.066406 68.746094 99.082031 C 68.773438 99.125 68.785156 99.183594 68.792969 99.257812 C 68.796875 99.332031 68.796875 99.386719 68.796875 99.417969 C 68.808594 99.484375 68.8125 99.527344 68.8125 99.542969 Z M 68.8125 99.542969 "/>
<path style=" stroke:none;fill-rule:nonzero;fill:rgb(0%,0%,0%);fill-opacity:1;" d="M 73.324219 101.765625 C 73.234375 101.765625 73.191406 101.738281 73.191406 101.683594 C 73.191406 101.644531 73.214844 101.625 73.265625 101.625 L 73.363281 101.636719 C 73.449219 101.636719 73.503906 101.589844 73.53125 101.496094 C 73.558594 101.417969 73.570312 101.277344 73.570312 101.070312 L 73.570312 99.125 L 73.515625 99.125 C 73.273438 99.125 73.078125 99.148438 72.929688 99.195312 C 72.832031 99.234375 72.765625 99.296875 72.730469 99.382812 C 72.703125 99.445312 72.675781 99.476562 72.644531 99.476562 C 72.605469 99.476562 72.585938 99.457031 72.585938 99.410156 C 72.585938 99.394531 72.585938 99.375 72.589844 99.355469 C 72.597656 99.339844 72.605469 99.320312 72.617188 99.296875 C 72.640625 99.230469 72.652344 99.164062 72.65625 99.089844 C 72.660156 99.015625 72.667969 98.96875 72.675781 98.945312 C 72.691406 98.917969 72.707031 98.902344 72.722656 98.902344 C 72.746094 98.902344 72.765625 98.90625 72.785156 98.910156 C 72.800781 98.914062 72.824219 98.921875 72.855469 98.921875 C 72.941406 98.933594 73.046875 98.9375 73.171875 98.9375 L 74.492188 98.9375 C 74.597656 98.9375 74.671875 98.933594 74.71875 98.921875 C 74.765625 98.910156 74.800781 98.902344 74.816406 98.902344 C 74.867188 98.902344 74.890625 98.925781 74.890625 98.96875 C 74.890625 98.992188 74.886719 99.019531 74.878906 99.050781 C 74.855469 99.117188 74.839844 99.175781 74.832031 99.222656 C 74.824219 99.273438 74.820312 99.3125 74.816406 99.34375 C 74.8125 99.375 74.804688 99.402344 74.796875 99.417969 C 74.789062 99.449219 74.773438 99.464844 74.75 99.464844 C 74.726562 99.464844 74.710938 99.457031 74.703125 99.445312 C 74.699219 99.425781 74.691406 99.394531 74.683594 99.351562 C 74.679688 99.300781 74.667969 99.265625 74.652344 99.238281 C 74.632812 99.207031 74.609375 99.183594 74.585938 99.171875 C 74.535156 99.140625 74.453125 99.125 74.34375 99.125 L 73.898438 99.125 L 73.898438 101.070312 C 73.898438 101.28125 73.90625 101.414062 73.925781 101.476562 C 73.945312 101.535156 73.96875 101.578125 73.996094 101.605469 C 74.023438 101.628906 74.058594 101.636719 74.105469 101.636719 L 74.203125 101.625 C 74.253906 101.625 74.277344 101.644531 74.277344 101.683594 C 74.277344 101.738281 74.230469 101.765625 74.144531 101.765625 C 74.097656 101.765625 74.050781 101.757812 73.996094 101.75 C 73.832031 101.722656 73.691406 101.71875 73.570312 101.738281 C 73.449219 101.753906 73.367188 101.765625 73.324219 101.765625 Z M 73.324219 101.765625 "/>
<path style=" stroke:none;fill-rule:nonzero;fill:rgb(0%,0%,0%);fill-opacity:1;" d="M 78.695312 101.765625 C 78.601562 101.765625 78.554688 101.738281 78.554688 101.683594 C 78.554688 101.644531 78.582031 101.625 78.632812 101.625 L 78.734375 101.636719 C 78.816406 101.636719 78.875 101.589844 78.902344 101.496094 C 78.921875 101.417969 78.933594 101.277344 78.933594 101.070312 L 78.933594 99.597656 C 78.933594 99.394531 78.925781 99.261719 78.90625 99.195312 C 78.890625 99.136719 78.867188 99.09375 78.839844 99.070312 C 78.8125 99.046875 78.777344 99.039062 78.734375 99.039062 L 78.632812 99.042969 C 78.582031 99.042969 78.554688 99.023438 78.554688 98.984375 C 78.554688 98.929688 78.589844 98.902344 78.667969 98.902344 C 78.746094 98.902344 78.820312 98.910156 78.886719 98.921875 C 78.957031 98.933594 79.027344 98.9375 79.101562 98.9375 C 79.175781 98.9375 79.246094 98.933594 79.3125 98.921875 C 79.382812 98.910156 79.472656 98.902344 79.582031 98.902344 C 79.691406 98.902344 79.808594 98.921875 79.925781 98.957031 C 80.050781 98.992188 80.15625 99.042969 80.242188 99.105469 C 80.417969 99.238281 80.507812 99.414062 80.507812 99.628906 C 80.507812 99.871094 80.40625 100.082031 80.207031 100.257812 C 80.144531 100.308594 80.074219 100.355469 80 100.398438 L 80.675781 101.378906 C 80.75 101.492188 80.835938 101.5625 80.925781 101.582031 C 80.953125 101.59375 80.988281 101.601562 81.027344 101.605469 C 81.097656 101.609375 81.132812 101.628906 81.132812 101.671875 C 81.132812 101.710938 81.097656 101.730469 81.019531 101.730469 L 80.621094 101.730469 C 80.523438 101.730469 80.4375 101.667969 80.359375 101.542969 L 79.835938 100.703125 C 79.785156 100.628906 79.738281 100.574219 79.695312 100.542969 C 79.652344 100.515625 79.589844 100.496094 79.5 100.496094 C 79.410156 100.496094 79.335938 100.5 79.269531 100.503906 L 79.269531 101.070312 C 79.269531 101.28125 79.277344 101.414062 79.292969 101.476562 C 79.3125 101.535156 79.335938 101.578125 79.359375 101.605469 C 79.386719 101.628906 79.421875 101.636719 79.46875 101.636719 L 79.566406 101.625 C 79.617188 101.625 79.640625 101.644531 79.640625 101.683594 C 79.640625 101.738281 79.597656 101.765625 79.507812 101.765625 C 79.460938 101.765625 79.414062 101.757812 79.367188 101.75 C 79.199219 101.722656 79.054688 101.71875 78.933594 101.738281 C 78.816406 101.753906 78.738281 101.765625 78.695312 101.765625 Z M 79.269531 100.324219 C 79.355469 100.332031 79.441406 100.335938 79.527344 100.335938 L 79.652344 100.335938 C 79.789062 100.335938 79.90625 100.289062 80 100.195312 C 80.109375 100.089844 80.160156 99.945312 80.160156 99.765625 C 80.160156 99.542969 80.09375 99.367188 79.960938 99.238281 C 79.832031 99.113281 79.667969 99.050781 79.46875 99.050781 C 79.402344 99.050781 79.347656 99.0625 79.3125 99.082031 C 79.28125 99.101562 79.269531 99.132812 79.269531 99.175781 Z M 79.269531 100.324219 "/>
<path style=" stroke:none;fill-rule:nonzero;fill:rgb(0%,0%,0%);fill-opacity:1;" d="M 84.746094 100.316406 C 84.746094 100.109375 84.785156 99.917969 84.867188 99.742188 C 84.945312 99.566406 85.050781 99.414062 85.1875 99.289062 C 85.320312 99.164062 85.472656 99.0625 85.644531 98.992188 C 85.824219 98.921875 86.015625 98.882812 86.21875 98.882812 C 86.421875 98.882812 86.613281 98.921875 86.785156 98.996094 C 86.960938 99.074219 87.113281 99.175781 87.238281 99.304688 C 87.5 99.582031 87.632812 99.929688 87.632812 100.355469 C 87.632812 100.761719 87.496094 101.101562 87.226562 101.371094 C 86.949219 101.648438 86.597656 101.785156 86.171875 101.785156 C 85.753906 101.785156 85.414062 101.644531 85.144531 101.363281 C 84.878906 101.089844 84.746094 100.742188 84.746094 100.316406 Z M 85.105469 100.203125 C 85.105469 100.382812 85.132812 100.558594 85.191406 100.738281 C 85.25 100.910156 85.335938 101.0625 85.445312 101.191406 C 85.675781 101.46875 85.96875 101.609375 86.324219 101.609375 C 86.597656 101.609375 86.820312 101.507812 86.992188 101.304688 C 87.175781 101.089844 87.265625 100.8125 87.265625 100.46875 C 87.265625 100.0625 87.15625 99.722656 86.9375 99.457031 C 86.722656 99.191406 86.449219 99.058594 86.117188 99.058594 C 85.84375 99.058594 85.605469 99.164062 85.414062 99.371094 C 85.207031 99.589844 85.105469 99.867188 85.105469 100.203125 Z M 85.105469 100.203125 "/>
<path style=" stroke:none;fill-rule:nonzero;fill:rgb(0%,0%,0%);fill-opacity:1;" d="M 91.539062 101.765625 C 91.445312 101.765625 91.398438 101.738281 91.398438 101.683594 C 91.398438 101.644531 91.421875 101.625 91.472656 101.625 L 91.578125 101.636719 C 91.664062 101.636719 91.71875 101.589844 91.746094 101.496094 C 91.769531 101.417969 91.78125 101.277344 91.78125 101.070312 L 91.78125 99.605469 C 91.78125 99.402344 91.769531 99.265625 91.753906 99.203125 C 91.734375 99.140625 91.710938 99.101562 91.679688 99.078125 C 91.652344 99.054688 91.621094 99.042969 91.578125 99.042969 L 91.472656 99.050781 C 91.421875 99.050781 91.398438 99.03125 91.398438 98.992188 C 91.398438 98.9375 91.445312 98.910156 91.539062 98.910156 L 91.804688 98.9375 C 91.867188 98.9375 91.921875 98.933594 91.964844 98.921875 L 93.886719 101.15625 L 93.886719 99.597656 C 93.886719 99.398438 93.875 99.265625 93.851562 99.203125 C 93.828125 99.136719 93.804688 99.09375 93.78125 99.070312 C 93.753906 99.046875 93.714844 99.039062 93.671875 99.039062 L 93.566406 99.042969 C 93.515625 99.042969 93.492188 99.023438 93.492188 98.984375 C 93.492188 98.929688 93.535156 98.902344 93.625 98.902344 C 93.660156 98.902344 93.707031 98.910156 93.765625 98.917969 C 93.839844 98.929688 93.910156 98.9375 93.964844 98.9375 C 94.027344 98.9375 94.085938 98.933594 94.140625 98.921875 C 94.195312 98.910156 94.261719 98.902344 94.339844 98.902344 C 94.417969 98.902344 94.460938 98.929688 94.460938 98.984375 C 94.460938 99.023438 94.433594 99.042969 94.378906 99.042969 L 94.28125 99.039062 C 94.195312 99.039062 94.140625 99.082031 94.113281 99.175781 C 94.085938 99.25 94.074219 99.390625 94.074219 99.597656 L 94.074219 101.703125 C 94.074219 101.753906 94.066406 101.785156 94.058594 101.796875 C 94.054688 101.808594 94.042969 101.816406 94.027344 101.816406 C 94 101.816406 93.960938 101.789062 93.90625 101.730469 L 91.988281 99.511719 L 91.988281 101.070312 C 91.988281 101.28125 91.996094 101.414062 92.011719 101.476562 C 92.03125 101.535156 92.054688 101.578125 92.078125 101.605469 C 92.105469 101.628906 92.140625 101.636719 92.1875 101.636719 L 92.285156 101.625 C 92.339844 101.625 92.367188 101.644531 92.367188 101.683594 C 92.367188 101.738281 92.328125 101.765625 92.246094 101.765625 C 92.167969 101.765625 92.09375 101.757812 92.035156 101.742188 C 91.96875 101.734375 91.910156 101.730469 91.851562 101.730469 C 91.792969 101.730469 91.738281 101.734375 91.679688 101.742188 C 91.621094 101.757812 91.574219 101.765625 91.539062 101.765625 Z M 91.539062 101.765625 "/>
<path style=" stroke:none;fill-rule:nonzero;fill:rgb(0%,0%,0%);fill-opacity:1;" d="M 98.210938 101.765625 C 98.117188 101.765625 98.070312 101.738281 98.070312 101.683594 C 98.070312 101.644531 98.097656 101.625 98.152344 101.625 L 98.25 101.636719 C 98.328125 101.636719 98.378906 101.601562 98.40625 101.523438 C 98.441406 101.445312 98.457031 101.292969 98.457031 101.070312 L 98.445312 99.597656 C 98.445312 99.371094 98.429688 99.230469 98.40625 99.171875 C 98.382812 99.109375 98.359375 99.070312 98.332031 99.058594 C 98.304688 99.042969 98.273438 99.039062 98.238281 99.039062 L 98.136719 99.042969 C 98.089844 99.042969 98.066406 99.023438 98.066406 98.984375 C 98.066406 98.929688 98.101562 98.902344 98.179688 98.902344 C 98.253906 98.902344 98.324219 98.910156 98.390625 98.921875 C 98.460938 98.933594 98.535156 98.9375 98.613281 98.9375 C 98.6875 98.9375 98.757812 98.933594 98.824219 98.921875 C 98.890625 98.910156 98.960938 98.902344 99.039062 98.902344 C 99.117188 98.902344 99.160156 98.929688 99.160156 98.984375 C 99.160156 99.023438 99.132812 99.042969 99.078125 99.042969 L 98.976562 99.039062 C 98.902344 99.039062 98.851562 99.074219 98.824219 99.144531 C 98.792969 99.222656 98.777344 99.375 98.777344 99.597656 L 98.785156 101.070312 C 98.785156 101.292969 98.796875 101.433594 98.824219 101.496094 C 98.851562 101.558594 98.878906 101.601562 98.90625 101.617188 C 98.933594 101.628906 98.96875 101.636719 99.003906 101.636719 L 99.105469 101.625 C 99.152344 101.625 99.179688 101.644531 99.179688 101.683594 C 99.179688 101.738281 99.132812 101.765625 99.042969 101.765625 C 99 101.765625 98.953125 101.757812 98.898438 101.75 C 98.726562 101.722656 98.578125 101.71875 98.457031 101.738281 C 98.339844 101.753906 98.253906 101.765625 98.210938 101.765625 Z M 98.210938 101.765625 "/>
<path style=" stroke:none;fill-rule:nonzero;fill:rgb(0%,0%,0%);fill-opacity:1;" d="M 105.582031 99.542969 C 105.582031 99.597656 105.5625 99.625 105.523438 99.625 C 105.492188 99.625 105.464844 99.589844 105.445312 99.523438 C 105.421875 99.453125 105.378906 99.390625 105.316406 99.332031 C 105.257812 99.273438 105.1875 99.222656 105.105469 99.175781 C 104.929688 99.09375 104.742188 99.050781 104.542969 99.050781 C 104.347656 99.050781 104.175781 99.078125 104.03125 99.128906 C 103.882812 99.183594 103.757812 99.261719 103.65625 99.363281 C 103.4375 99.578125 103.332031 99.863281 103.332031 100.222656 C 103.332031 100.625 103.453125 100.953125 103.695312 101.210938 C 103.941406 101.472656 104.25 101.605469 104.628906 101.605469 C 105.050781 101.605469 105.378906 101.410156 105.609375 101.015625 C 105.625 100.996094 105.636719 100.980469 105.65625 100.976562 C 105.671875 100.976562 105.691406 100.996094 105.703125 101.03125 C 105.71875 101.0625 105.722656 101.101562 105.722656 101.144531 C 105.722656 101.210938 105.664062 101.300781 105.542969 101.410156 C 105.425781 101.523438 105.285156 101.613281 105.117188 101.683594 C 104.945312 101.75 104.75 101.785156 104.523438 101.785156 C 104.300781 101.785156 104.089844 101.746094 103.890625 101.675781 C 103.691406 101.601562 103.519531 101.503906 103.382812 101.378906 C 103.085938 101.109375 102.9375 100.78125 102.9375 100.382812 C 102.9375 99.933594 103.085938 99.574219 103.382812 99.304688 C 103.679688 99.023438 104.070312 98.882812 104.558594 98.882812 C 104.90625 98.882812 105.195312 98.929688 105.421875 99.023438 C 105.46875 99.046875 105.5 99.066406 105.515625 99.082031 C 105.542969 99.125 105.558594 99.183594 105.5625 99.257812 C 105.566406 99.332031 105.570312 99.386719 105.570312 99.417969 C 105.578125 99.484375 105.582031 99.527344 105.582031 99.542969 Z M 105.582031 99.542969 "/>
<path style=" stroke:none;fill-rule:nonzero;fill:rgb(0%,0%,0%);fill-opacity:1;" d="M 110.863281 98.96875 L 110.949219 98.957031 C 110.988281 98.957031 111.011719 98.988281 111.015625 99.050781 C 111.019531 99.113281 111.023438 99.167969 111.027344 99.210938 C 111.039062 99.25 111.042969 99.289062 111.050781 99.316406 C 111.058594 99.347656 111.0625 99.375 111.070312 99.398438 C 111.074219 99.421875 111.074219 99.441406 111.074219 99.457031 C 111.074219 99.46875 111.066406 99.484375 111.050781 99.496094 C 111.035156 99.507812 111.019531 99.511719 111.003906 99.511719 C 110.96875 99.511719 110.9375 99.476562 110.910156 99.410156 C 110.851562 99.28125 110.800781 99.199219 110.761719 99.164062 C 110.671875 99.082031 110.539062 99.042969 110.363281 99.042969 C 110.117188 99.042969 109.953125 99.117188 109.867188 99.257812 C 109.84375 99.308594 109.828125 99.367188 109.828125 99.4375 C 109.828125 99.503906 109.84375 99.566406 109.875 99.625 C 109.910156 99.683594 109.960938 99.742188 110.027344 99.804688 C 110.09375 99.867188 110.179688 99.933594 110.28125 100.003906 C 110.390625 100.070312 110.503906 100.148438 110.621094 100.230469 C 110.742188 100.308594 110.835938 100.382812 110.902344 100.449219 C 110.96875 100.515625 111.023438 100.578125 111.0625 100.644531 C 111.140625 100.769531 111.183594 100.890625 111.183594 101.003906 C 111.183594 101.121094 111.164062 101.222656 111.128906 101.316406 C 111.097656 101.40625 111.042969 101.488281 110.96875 101.558594 C 110.808594 101.707031 110.570312 101.785156 110.25 101.785156 C 110.089844 101.785156 109.910156 101.746094 109.714844 101.675781 C 109.671875 101.660156 109.644531 101.640625 109.636719 101.625 C 109.621094 101.601562 109.609375 101.558594 109.601562 101.492188 C 109.59375 101.421875 109.582031 101.367188 109.570312 101.316406 C 109.554688 101.265625 109.542969 101.214844 109.527344 101.171875 L 109.503906 101.0625 C 109.492188 101.035156 109.488281 101.007812 109.488281 100.984375 C 109.488281 100.933594 109.503906 100.910156 109.542969 100.910156 C 109.59375 100.910156 109.632812 100.949219 109.65625 101.023438 C 109.691406 101.164062 109.722656 101.25 109.753906 101.289062 C 109.875 101.445312 110.011719 101.546875 110.167969 101.589844 C 110.210938 101.605469 110.273438 101.609375 110.347656 101.609375 C 110.429688 101.609375 110.503906 101.601562 110.574219 101.578125 C 110.652344 101.554688 110.710938 101.523438 110.761719 101.484375 C 110.855469 101.414062 110.902344 101.324219 110.902344 101.21875 C 110.902344 101.105469 110.867188 101.007812 110.796875 100.921875 C 110.730469 100.835938 110.644531 100.761719 110.550781 100.695312 C 110.449219 100.628906 110.378906 100.582031 110.328125 100.550781 C 110.285156 100.519531 110.238281 100.492188 110.195312 100.464844 C 109.84375 100.230469 109.636719 99.996094 109.574219 99.765625 C 109.558594 99.703125 109.550781 99.632812 109.550781 99.558594 C 109.550781 99.476562 109.570312 99.394531 109.609375 99.308594 C 109.648438 99.226562 109.703125 99.152344 109.777344 99.089844 C 109.9375 98.953125 110.140625 98.882812 110.394531 98.882812 C 110.511719 98.882812 110.601562 98.898438 110.667969 98.921875 C 110.765625 98.957031 110.832031 98.96875 110.863281 98.96875 Z M 110.863281 98.96875 "/>
</g>
</svg>
