<?xml version="1.0" encoding="UTF-8"?>
<svg xmlns="http://www.w3.org/2000/svg" xmlns:xlink="http://www.w3.org/1999/xlink" width="100px" height="100px" viewBox="0 0 100 100" version="1.1">
<g id="surface1">
<path style=" stroke:none;fill-rule:nonzero;fill:rgb(0%,0%,0%);fill-opacity:1;" d="M 18.011719 48.796875 C 18.039062 48.796875 18.054688 48.808594 18.054688 48.824219 C 18.054688 48.855469 18.039062 48.867188 18.011719 48.867188 L 16.539062 48.867188 C 16.742188 48.941406 16.898438 49.066406 17.007812 49.242188 C 17.121094 49.417969 17.179688 49.609375 17.179688 49.816406 C 17.191406 50.011719 17.140625 50.191406 17.023438 50.351562 L 11.808594 58.058594 C 11.773438 58.121094 11.75 58.191406 11.738281 58.269531 C 11.738281 58.371094 11.773438 58.460938 11.851562 58.53125 C 11.921875 58.601562 12.015625 58.636719 12.121094 58.636719 L 14.265625 58.636719 C 14.984375 58.636719 15.539062 58.589844 15.929688 58.492188 C 16.320312 58.398438 16.601562 58.289062 16.773438 58.160156 C 16.949219 58.03125 17.0625 57.917969 17.109375 57.816406 C 17.117188 57.804688 17.128906 57.796875 17.140625 57.785156 C 17.144531 57.785156 17.15625 57.785156 17.164062 57.785156 C 17.175781 57.796875 17.179688 57.804688 17.179688 57.816406 C 17.191406 57.824219 17.191406 57.832031 17.179688 57.84375 L 16.769531 58.6875 C 16.769531 58.707031 16.761719 58.71875 16.742188 58.71875 L 10.265625 58.71875 C 10.257812 58.71875 10.25 58.714844 10.242188 58.707031 C 10.230469 58.695312 10.226562 58.683594 10.226562 58.675781 C 10.226562 58.667969 10.230469 58.660156 10.242188 58.648438 C 10.25 58.640625 10.257812 58.636719 10.265625 58.636719 L 11.738281 58.636719 C 11.539062 58.558594 11.382812 58.4375 11.273438 58.269531 C 11.160156 58.101562 11.101562 57.910156 11.101562 57.703125 C 11.09375 57.503906 11.136719 57.320312 11.242188 57.152344 L 16.457031 49.460938 C 16.507812 49.398438 16.53125 49.320312 16.539062 49.234375 C 16.539062 49.132812 16.503906 49.046875 16.429688 48.976562 C 16.355469 48.902344 16.265625 48.867188 16.164062 48.867188 L 14.015625 48.867188 C 13.296875 48.867188 12.746094 48.917969 12.351562 49.007812 C 11.960938 49.105469 11.679688 49.21875 11.503906 49.351562 C 11.328125 49.480469 11.21875 49.597656 11.175781 49.703125 C 11.164062 49.710938 11.148438 49.714844 11.128906 49.714844 C 11.128906 49.714844 11.125 49.714844 11.117188 49.714844 C 11.109375 49.703125 11.101562 49.699219 11.101562 49.691406 C 11.09375 49.679688 11.09375 49.667969 11.101562 49.660156 L 11.515625 48.8125 C 11.515625 48.800781 11.519531 48.796875 11.539062 48.796875 Z M 18.011719 48.796875 "/>
<path style=" stroke:none;fill-rule:nonzero;fill:rgb(0%,0%,0%);fill-opacity:1;" d="M 20.433594 50.140625 C 20.929688 49.640625 21.488281 49.265625 22.109375 49.019531 C 22.730469 48.765625 23.375 48.640625 24.039062 48.640625 C 24.703125 48.640625 25.347656 48.765625 25.96875 49.019531 C 26.589844 49.265625 27.152344 49.640625 27.652344 50.140625 C 28.132812 50.621094 28.5 51.175781 28.757812 51.800781 C 29.019531 52.425781 29.148438 53.078125 29.148438 53.761719 C 29.148438 54.4375 29.019531 55.089844 28.757812 55.71875 C 28.5 56.34375 28.132812 56.890625 27.652344 57.363281 C 27.171875 57.84375 26.617188 58.214844 25.988281 58.472656 C 25.363281 58.730469 24.710938 58.859375 24.035156 58.859375 C 23.355469 58.859375 22.703125 58.730469 22.082031 58.472656 C 21.460938 58.214844 20.910156 57.84375 20.433594 57.363281 C 19.929688 56.863281 19.554688 56.304688 19.304688 55.679688 C 19.054688 55.058594 18.929688 54.417969 18.929688 53.753906 C 18.929688 53.089844 19.054688 52.445312 19.304688 51.820312 C 19.554688 51.203125 19.929688 50.640625 20.433594 50.140625 Z M 20.472656 50.199219 C 20.09375 50.570312 19.832031 51.023438 19.679688 51.546875 C 19.53125 52.070312 19.488281 52.621094 19.5625 53.199219 C 19.628906 53.78125 19.808594 54.355469 20.09375 54.933594 C 20.382812 55.503906 20.773438 56.039062 21.265625 56.527344 C 21.753906 57.019531 22.285156 57.410156 22.859375 57.699219 C 23.433594 57.984375 24.011719 58.164062 24.589844 58.234375 C 25.167969 58.304688 25.71875 58.265625 26.242188 58.113281 C 26.769531 57.960938 27.21875 57.695312 27.59375 57.320312 C 27.972656 56.941406 28.238281 56.496094 28.394531 55.980469 C 28.550781 55.460938 28.59375 54.90625 28.527344 54.308594 C 28.453125 53.707031 28.269531 53.117188 27.976562 52.542969 C 27.6875 51.96875 27.300781 51.445312 26.820312 50.972656 C 26.253906 50.398438 25.628906 49.964844 24.945312 49.671875 C 24.261719 49.378906 23.59375 49.234375 22.945312 49.234375 C 22.472656 49.234375 22.027344 49.316406 21.601562 49.476562 C 21.175781 49.632812 20.800781 49.875 20.472656 50.199219 Z M 20.472656 50.199219 "/>
<path style=" stroke:none;fill-rule:nonzero;fill:rgb(0%,0%,0%);fill-opacity:1;" d="M 38.617188 48.796875 C 38.644531 48.796875 38.65625 48.808594 38.65625 48.824219 C 38.65625 48.824219 38.65625 48.832031 38.65625 48.835938 C 38.65625 48.839844 38.65625 48.839844 38.65625 48.839844 C 38.65625 48.859375 38.644531 48.867188 38.617188 48.867188 L 38.53125 48.867188 C 38.351562 48.898438 38.199219 48.980469 38.078125 49.113281 C 37.957031 49.25 37.894531 49.414062 37.894531 49.601562 L 37.894531 51.90625 C 37.894531 52.304688 37.765625 52.660156 37.511719 52.96875 C 37.257812 53.277344 36.9375 53.476562 36.554688 53.558594 C 36.9375 53.648438 37.257812 53.84375 37.511719 54.15625 C 37.765625 54.464844 37.894531 54.820312 37.894531 55.226562 L 37.894531 57.023438 C 37.894531 57.390625 37.78125 57.722656 37.5625 58.027344 C 37.339844 58.328125 37.054688 58.539062 36.695312 58.648438 L 38.617188 58.648438 C 38.644531 58.648438 38.65625 58.65625 38.65625 58.675781 C 38.65625 58.703125 38.644531 58.71875 38.617188 58.71875 L 36.199219 58.71875 C 36.171875 58.71875 36.15625 58.703125 36.15625 58.675781 C 36.15625 58.65625 36.171875 58.648438 36.199219 58.648438 C 36.210938 58.648438 36.222656 58.648438 36.238281 58.640625 C 36.25 58.636719 36.261719 58.636719 36.269531 58.636719 C 36.460938 58.617188 36.613281 58.539062 36.734375 58.402344 C 36.859375 58.265625 36.921875 58.101562 36.921875 57.914062 L 36.921875 54.339844 C 36.921875 54.152344 36.859375 53.984375 36.734375 53.84375 C 36.613281 53.703125 36.460938 53.621094 36.269531 53.601562 C 36.261719 53.601562 36.25 53.601562 36.238281 53.601562 C 36.222656 53.601562 36.210938 53.601562 36.199219 53.601562 L 32.820312 53.601562 C 32.8125 53.601562 32.800781 53.601562 32.789062 53.601562 C 32.773438 53.601562 32.761719 53.601562 32.753906 53.601562 C 32.5625 53.621094 32.410156 53.703125 32.289062 53.84375 C 32.164062 53.984375 32.105469 54.152344 32.105469 54.339844 L 32.105469 57.023438 C 32.105469 57.390625 31.992188 57.722656 31.769531 58.015625 C 31.546875 58.316406 31.261719 58.519531 30.914062 58.636719 L 32.820312 58.636719 C 32.851562 58.636719 32.867188 58.648438 32.867188 58.675781 C 32.867188 58.703125 32.851562 58.71875 32.820312 58.71875 L 30.503906 58.71875 C 30.484375 58.71875 30.464844 58.71875 30.453125 58.71875 C 30.441406 58.71875 30.421875 58.71875 30.402344 58.71875 C 30.375 58.71875 30.363281 58.703125 30.363281 58.675781 C 30.363281 58.648438 30.375 58.636719 30.402344 58.636719 L 30.492188 58.636719 C 30.667969 58.617188 30.816406 58.539062 30.941406 58.402344 C 31.0625 58.265625 31.125 58.101562 31.125 57.914062 L 31.125 55.226562 C 31.125 54.820312 31.253906 54.464844 31.507812 54.15625 C 31.761719 53.84375 32.085938 53.648438 32.46875 53.558594 C 32.085938 53.476562 31.761719 53.277344 31.507812 52.96875 C 31.253906 52.660156 31.125 52.304688 31.125 51.90625 L 31.125 50.492188 C 31.125 50.117188 31.234375 49.78125 31.457031 49.484375 C 31.679688 49.1875 31.96875 48.980469 32.328125 48.867188 L 30.402344 48.867188 C 30.375 48.867188 30.363281 48.855469 30.363281 48.824219 C 30.363281 48.808594 30.375 48.796875 30.402344 48.796875 L 32.820312 48.796875 C 32.851562 48.796875 32.867188 48.808594 32.867188 48.824219 C 32.867188 48.855469 32.851562 48.867188 32.820312 48.867188 C 32.8125 48.867188 32.800781 48.867188 32.789062 48.867188 C 32.773438 48.867188 32.761719 48.867188 32.753906 48.867188 C 32.5625 48.890625 32.410156 48.96875 32.289062 49.109375 C 32.164062 49.25 32.105469 49.414062 32.105469 49.601562 L 32.105469 52.796875 C 32.105469 52.984375 32.164062 53.148438 32.289062 53.285156 C 32.410156 53.421875 32.5625 53.5 32.753906 53.519531 C 32.761719 53.519531 32.773438 53.519531 32.789062 53.527344 C 32.800781 53.53125 32.8125 53.53125 32.820312 53.53125 L 36.199219 53.53125 C 36.210938 53.53125 36.222656 53.53125 36.238281 53.527344 C 36.25 53.519531 36.261719 53.519531 36.269531 53.519531 C 36.460938 53.5 36.613281 53.421875 36.734375 53.285156 C 36.859375 53.148438 36.921875 52.984375 36.921875 52.796875 L 36.921875 50.492188 C 36.921875 50.128906 37.03125 49.792969 37.253906 49.492188 C 37.476562 49.191406 37.757812 48.980469 38.109375 48.867188 L 36.199219 48.867188 C 36.171875 48.867188 36.15625 48.859375 36.15625 48.839844 C 36.15625 48.8125 36.171875 48.796875 36.199219 48.796875 L 38.515625 48.796875 C 38.535156 48.796875 38.554688 48.796875 38.574219 48.796875 C 38.59375 48.796875 38.609375 48.796875 38.617188 48.796875 Z M 38.617188 48.796875 "/>
<path style=" stroke:none;fill-rule:nonzero;fill:rgb(0%,0%,0%);fill-opacity:1;" d="M 49.683594 58.636719 C 49.699219 58.636719 49.714844 58.648438 49.722656 58.675781 C 49.722656 58.703125 49.710938 58.71875 49.683594 58.71875 L 47.253906 58.71875 C 47.222656 58.71875 47.207031 58.703125 47.207031 58.675781 C 47.207031 58.648438 47.222656 58.636719 47.253906 58.636719 C 47.394531 58.636719 47.515625 58.585938 47.621094 58.488281 C 47.722656 58.390625 47.773438 58.265625 47.773438 58.109375 C 47.773438 58.015625 47.75 57.929688 47.703125 57.855469 L 46.617188 55.367188 C 46.425781 54.945312 46.136719 54.609375 45.753906 54.359375 C 45.367188 54.109375 44.941406 53.984375 44.480469 53.984375 C 44.058594 53.984375 43.667969 54.089844 43.316406 54.296875 C 42.960938 54.503906 42.679688 54.78125 42.472656 55.140625 C 42.269531 55.492188 42.164062 55.878906 42.164062 56.300781 C 42.164062 56.734375 42.269531 57.128906 42.472656 57.484375 C 42.679688 57.835938 42.960938 58.117188 43.316406 58.328125 C 43.667969 58.53125 44.058594 58.636719 44.480469 58.636719 C 44.507812 58.636719 44.523438 58.648438 44.523438 58.675781 C 44.523438 58.703125 44.507812 58.71875 44.480469 58.71875 L 39.351562 58.71875 C 39.320312 58.71875 39.304688 58.703125 39.304688 58.675781 C 39.304688 58.648438 39.320312 58.636719 39.351562 58.636719 C 39.707031 58.636719 40.035156 58.539062 40.339844 58.339844 C 40.640625 58.140625 40.863281 57.875 41.003906 57.546875 L 44.636719 48.726562 L 44.664062 48.667969 C 44.664062 48.660156 44.671875 48.65625 44.679688 48.65625 C 44.679688 48.65625 44.679688 48.652344 44.679688 48.640625 C 44.6875 48.640625 44.695312 48.640625 44.695312 48.640625 C 44.703125 48.640625 44.710938 48.640625 44.71875 48.640625 C 44.71875 48.640625 44.71875 48.648438 44.71875 48.65625 C 44.730469 48.65625 44.734375 48.660156 44.734375 48.667969 L 48.371094 56.96875 C 48.445312 57.125 48.480469 57.296875 48.480469 57.476562 C 48.480469 57.742188 48.410156 57.980469 48.261719 58.1875 C 48.117188 58.402344 47.917969 58.550781 47.671875 58.636719 Z M 44.480469 53.902344 C 44.859375 53.902344 45.210938 53.984375 45.539062 54.148438 C 45.871094 54.3125 46.148438 54.539062 46.375 54.832031 L 44.230469 49.914062 L 41.074219 57.5625 C 41.074219 57.566406 41.074219 57.574219 41.074219 57.574219 C 41.066406 57.582031 41.066406 57.582031 41.074219 57.574219 L 40.707031 58.433594 C 40.707031 58.453125 40.695312 58.464844 40.679688 58.464844 C 40.667969 58.464844 40.664062 58.464844 40.664062 58.464844 C 40.636719 58.453125 40.628906 58.4375 40.636719 58.410156 L 40.804688 58.015625 C 40.5625 58.324219 40.25 58.53125 39.875 58.636719 L 43.886719 58.636719 C 43.355469 58.5 42.925781 58.21875 42.585938 57.785156 C 42.246094 57.351562 42.078125 56.863281 42.078125 56.316406 C 42.078125 55.875 42.183594 55.46875 42.402344 55.101562 C 42.621094 54.734375 42.90625 54.441406 43.269531 54.226562 C 43.632812 54.007812 44.039062 53.902344 44.480469 53.902344 Z M 44.480469 53.902344 "/>
<path style=" stroke:none;fill-rule:nonzero;fill:rgb(0%,0%,0%);fill-opacity:1;" d="M 57.847656 48.8125 L 58.261719 49.660156 C 58.269531 49.6875 58.257812 49.703125 58.230469 49.714844 C 58.230469 49.714844 58.226562 49.714844 58.214844 49.714844 C 58.199219 49.714844 58.191406 49.710938 58.191406 49.703125 C 58.132812 49.597656 58.015625 49.480469 57.839844 49.351562 C 57.667969 49.21875 57.386719 49.105469 56.996094 49.007812 C 56.601562 48.917969 56.054688 48.867188 55.347656 48.867188 C 55.328125 48.867188 55.3125 48.867188 55.304688 48.867188 C 55.296875 48.867188 55.285156 48.867188 55.277344 48.867188 C 55.089844 48.890625 54.929688 48.96875 54.800781 49.109375 C 54.675781 49.25 54.613281 49.414062 54.613281 49.601562 L 54.613281 57.023438 C 54.613281 57.390625 54.5 57.722656 54.277344 58.027344 C 54.058594 58.328125 53.769531 58.539062 53.410156 58.648438 L 55.347656 58.648438 C 55.367188 58.648438 55.378906 58.65625 55.378906 58.675781 C 55.378906 58.703125 55.367188 58.71875 55.347656 58.71875 L 52.914062 58.71875 C 52.886719 58.71875 52.875 58.703125 52.875 58.675781 C 52.875 58.65625 52.886719 58.648438 52.914062 58.648438 C 52.925781 58.648438 52.9375 58.648438 52.953125 58.648438 C 52.964844 58.648438 52.980469 58.640625 52.984375 58.636719 C 53.171875 58.617188 53.332031 58.539062 53.460938 58.402344 C 53.589844 58.265625 53.652344 58.101562 53.652344 57.914062 L 53.652344 50.492188 C 53.652344 50.117188 53.761719 49.78125 53.980469 49.484375 C 54.203125 49.1875 54.488281 48.980469 54.839844 48.867188 L 52.914062 48.867188 C 52.210938 48.867188 51.65625 48.917969 51.261719 49.007812 C 50.867188 49.105469 50.582031 49.21875 50.40625 49.351562 C 50.234375 49.480469 50.125 49.597656 50.078125 49.703125 C 50.066406 49.710938 50.054688 49.714844 50.046875 49.714844 C 50.035156 49.714844 50.03125 49.714844 50.03125 49.714844 C 50.023438 49.703125 50.015625 49.699219 50.007812 49.691406 C 50.007812 49.679688 50.007812 49.667969 50.007812 49.660156 L 50.414062 48.8125 C 50.421875 48.800781 50.4375 48.796875 50.457031 48.796875 L 57.808594 48.796875 C 57.824219 48.796875 57.839844 48.800781 57.847656 48.8125 Z M 57.847656 48.8125 "/>
<path style=" stroke:none;fill-rule:nonzero;fill:rgb(0%,0%,0%);fill-opacity:1;" d="M 65.453125 57.785156 C 65.480469 57.796875 65.492188 57.816406 65.480469 57.84375 L 65.066406 58.6875 C 65.0625 58.699219 65.054688 58.707031 65.054688 58.707031 C 65.046875 58.714844 65.035156 58.71875 65.027344 58.71875 L 59.117188 58.71875 C 59.097656 58.71875 59.082031 58.71875 59.070312 58.71875 C 59.054688 58.71875 59.039062 58.71875 59.019531 58.71875 C 58.992188 58.71875 58.976562 58.703125 58.976562 58.675781 C 58.976562 58.648438 58.992188 58.636719 59.019531 58.636719 L 59.105469 58.636719 C 59.285156 58.617188 59.433594 58.539062 59.558594 58.402344 C 59.679688 58.265625 59.742188 58.101562 59.742188 57.914062 L 59.742188 55.226562 C 59.742188 54.820312 59.867188 54.464844 60.125 54.15625 C 60.378906 53.84375 60.699219 53.648438 61.085938 53.558594 C 60.699219 53.476562 60.378906 53.277344 60.125 52.96875 C 59.867188 52.660156 59.742188 52.304688 59.742188 51.90625 L 59.742188 50.492188 C 59.742188 50.117188 59.851562 49.78125 60.074219 49.484375 C 60.296875 49.1875 60.585938 48.980469 60.945312 48.867188 L 59.019531 48.867188 C 58.992188 48.867188 58.976562 48.855469 58.976562 48.824219 C 58.976562 48.808594 58.992188 48.796875 59.019531 48.796875 L 64.742188 48.796875 C 64.753906 48.796875 64.753906 48.796875 64.742188 48.796875 C 64.753906 48.796875 64.761719 48.796875 64.761719 48.796875 C 64.761719 48.796875 64.765625 48.800781 64.773438 48.8125 C 64.773438 48.820312 64.773438 48.824219 64.773438 48.824219 C 64.773438 48.824219 64.773438 48.832031 64.773438 48.839844 L 62.710938 56.574219 C 62.710938 56.589844 62.699219 56.597656 62.683594 56.597656 C 62.683594 56.597656 62.679688 56.597656 62.667969 56.597656 C 62.648438 56.597656 62.640625 56.585938 62.640625 56.554688 L 63.433594 53.601562 L 61.4375 53.601562 C 61.429688 53.601562 61.417969 53.601562 61.402344 53.601562 C 61.390625 53.601562 61.378906 53.601562 61.371094 53.601562 C 61.179688 53.621094 61.027344 53.703125 60.902344 53.84375 C 60.777344 53.984375 60.71875 54.152344 60.71875 54.339844 L 60.71875 57.023438 C 60.71875 57.390625 60.609375 57.722656 60.386719 58.015625 C 60.164062 58.316406 59.878906 58.519531 59.53125 58.636719 L 61.734375 58.636719 C 62.339844 58.636719 62.90625 58.597656 63.433594 58.523438 C 63.96875 58.449219 64.410156 58.347656 64.765625 58.226562 C 65.121094 58.101562 65.335938 57.964844 65.410156 57.816406 C 65.410156 57.804688 65.414062 57.796875 65.425781 57.785156 C 65.433594 57.785156 65.441406 57.785156 65.453125 57.785156 Z M 61.4375 53.53125 L 63.445312 53.53125 L 64.476562 49.671875 C 64.515625 49.5625 64.496094 49.457031 64.417969 49.363281 C 64.285156 49.195312 63.980469 49.070312 63.492188 48.988281 C 63.007812 48.910156 62.320312 48.867188 61.4375 48.867188 C 61.429688 48.867188 61.417969 48.867188 61.402344 48.867188 C 61.390625 48.867188 61.378906 48.867188 61.371094 48.867188 C 61.179688 48.890625 61.027344 48.96875 60.902344 49.109375 C 60.777344 49.25 60.71875 49.414062 60.71875 49.601562 L 60.71875 52.796875 C 60.71875 52.984375 60.777344 53.148438 60.902344 53.285156 C 61.027344 53.421875 61.179688 53.5 61.371094 53.519531 C 61.378906 53.519531 61.390625 53.519531 61.402344 53.527344 C 61.417969 53.53125 61.429688 53.53125 61.4375 53.53125 Z M 61.4375 53.53125 "/>
<path style=" stroke:none;fill-rule:nonzero;fill:rgb(0%,0%,0%);fill-opacity:1;" d="M 74.554688 53.039062 C 74.542969 53.03125 74.535156 53.015625 74.523438 53.011719 C 74.523438 53 74.523438 52.988281 74.523438 52.980469 L 75.078125 51.527344 C 74.753906 50.675781 74.285156 50.003906 73.667969 49.507812 C 73.050781 49.007812 72.382812 48.742188 71.65625 48.714844 L 71.628906 48.714844 C 71.609375 48.714844 71.585938 48.714844 71.558594 48.714844 C 71.527344 48.714844 71.496094 48.714844 71.457031 48.714844 C 70.941406 48.730469 70.449219 48.871094 69.984375 49.136719 C 69.515625 49.398438 69.101562 49.761719 68.746094 50.226562 C 68.378906 50.707031 68.097656 51.25 67.902344 51.851562 C 67.710938 52.453125 67.613281 53.089844 67.613281 53.761719 C 67.613281 54.417969 67.710938 55.050781 67.902344 55.660156 C 68.097656 56.265625 68.378906 56.808594 68.746094 57.277344 C 69.101562 57.75 69.515625 58.113281 69.984375 58.371094 C 70.449219 58.628906 70.933594 58.769531 71.445312 58.789062 L 71.472656 58.789062 C 71.507812 58.789062 71.535156 58.789062 71.546875 58.789062 C 71.558594 58.789062 71.578125 58.789062 71.597656 58.789062 C 71.617188 58.789062 71.628906 58.789062 71.640625 58.789062 C 72.382812 58.761719 73.0625 58.496094 73.675781 57.992188 C 74.285156 57.488281 74.757812 56.816406 75.089844 55.976562 C 75.089844 55.957031 75.101562 55.949219 75.121094 55.949219 C 75.140625 55.949219 75.148438 55.957031 75.148438 55.976562 L 75.515625 56.949219 C 75.523438 56.964844 75.523438 56.972656 75.515625 56.980469 C 75.042969 57.5625 74.46875 58.023438 73.789062 58.351562 C 73.113281 58.683594 72.398438 58.851562 71.65625 58.859375 L 71.628906 58.859375 C 71.609375 58.859375 71.585938 58.859375 71.558594 58.859375 C 71.527344 58.859375 71.496094 58.859375 71.457031 58.859375 C 70.785156 58.851562 70.144531 58.714844 69.527344 58.453125 C 68.910156 58.1875 68.371094 57.816406 67.910156 57.335938 C 67.4375 56.855469 67.074219 56.304688 66.820312 55.6875 C 66.566406 55.070312 66.441406 54.425781 66.441406 53.761719 C 66.441406 53.089844 66.566406 52.445312 66.820312 51.820312 C 67.074219 51.203125 67.4375 50.648438 67.910156 50.167969 C 68.371094 49.699219 68.910156 49.328125 69.519531 49.058594 C 70.132812 48.792969 70.773438 48.652344 71.445312 48.640625 L 71.488281 48.640625 C 71.503906 48.640625 71.527344 48.640625 71.558594 48.640625 C 71.574219 48.640625 71.609375 48.640625 71.65625 48.640625 C 72.398438 48.660156 73.113281 48.832031 73.789062 49.160156 C 74.46875 49.484375 75.042969 49.9375 75.515625 50.523438 C 75.503906 50.523438 75.503906 50.523438 75.515625 50.523438 C 75.515625 50.53125 75.515625 50.535156 75.515625 50.535156 C 75.515625 50.535156 75.515625 50.542969 75.515625 50.550781 C 75.515625 50.550781 75.515625 50.558594 75.515625 50.5625 L 75.148438 51.539062 L 74.59375 53.011719 C 74.59375 53.03125 74.585938 53.039062 74.566406 53.039062 C 74.554688 53.039062 74.554688 53.039062 74.554688 53.039062 Z M 74.554688 53.039062 "/>
<path style=" stroke:none;fill-rule:nonzero;fill:rgb(0%,0%,0%);fill-opacity:1;" d="M 84.996094 48.796875 C 85.023438 48.796875 85.035156 48.808594 85.035156 48.824219 C 85.035156 48.824219 85.035156 48.832031 85.035156 48.835938 C 85.035156 48.839844 85.035156 48.839844 85.035156 48.839844 C 85.035156 48.859375 85.023438 48.867188 84.996094 48.867188 L 84.914062 48.867188 C 84.730469 48.898438 84.582031 48.980469 84.457031 49.113281 C 84.332031 49.25 84.273438 49.414062 84.273438 49.601562 L 84.273438 51.90625 C 84.273438 52.304688 84.144531 52.660156 83.890625 52.96875 C 83.636719 53.277344 83.316406 53.476562 82.933594 53.558594 C 83.316406 53.648438 83.636719 53.84375 83.890625 54.15625 C 84.144531 54.464844 84.273438 54.820312 84.273438 55.226562 L 84.273438 57.023438 C 84.273438 57.390625 84.164062 57.722656 83.941406 58.027344 C 83.71875 58.328125 83.433594 58.539062 83.074219 58.648438 L 84.996094 58.648438 C 85.023438 58.648438 85.035156 58.65625 85.035156 58.675781 C 85.035156 58.703125 85.023438 58.71875 84.996094 58.71875 L 82.578125 58.71875 C 82.550781 58.71875 82.535156 58.703125 82.535156 58.675781 C 82.535156 58.65625 82.550781 58.648438 82.578125 58.648438 C 82.585938 58.648438 82.601562 58.648438 82.613281 58.640625 C 82.628906 58.636719 82.640625 58.636719 82.648438 58.636719 C 82.835938 58.617188 82.992188 58.539062 83.117188 58.402344 C 83.238281 58.265625 83.296875 58.101562 83.296875 57.914062 L 83.296875 54.339844 C 83.296875 54.152344 83.238281 53.984375 83.117188 53.84375 C 82.992188 53.703125 82.835938 53.621094 82.648438 53.601562 C 82.640625 53.601562 82.628906 53.601562 82.613281 53.601562 C 82.601562 53.601562 82.585938 53.601562 82.578125 53.601562 L 79.199219 53.601562 C 79.191406 53.601562 79.179688 53.601562 79.164062 53.601562 C 79.152344 53.601562 79.140625 53.601562 79.132812 53.601562 C 78.941406 53.621094 78.785156 53.703125 78.667969 53.84375 C 78.542969 53.984375 78.480469 54.152344 78.480469 54.339844 L 78.480469 57.023438 C 78.480469 57.390625 78.371094 57.722656 78.148438 58.015625 C 77.925781 58.316406 77.640625 58.519531 77.292969 58.636719 L 79.199219 58.636719 C 79.230469 58.636719 79.246094 58.648438 79.246094 58.675781 C 79.246094 58.703125 79.230469 58.71875 79.199219 58.71875 L 76.882812 58.71875 C 76.863281 58.71875 76.847656 58.71875 76.832031 58.71875 C 76.820312 58.71875 76.800781 58.71875 76.78125 58.71875 C 76.753906 58.71875 76.742188 58.703125 76.742188 58.675781 C 76.742188 58.648438 76.753906 58.636719 76.78125 58.636719 L 76.871094 58.636719 C 77.046875 58.617188 77.199219 58.539062 77.320312 58.402344 C 77.441406 58.265625 77.503906 58.101562 77.503906 57.914062 L 77.503906 55.226562 C 77.503906 54.820312 77.628906 54.464844 77.886719 54.15625 C 78.140625 53.84375 78.460938 53.648438 78.851562 53.558594 C 78.460938 53.476562 78.140625 53.277344 77.886719 52.96875 C 77.628906 52.660156 77.503906 52.304688 77.503906 51.90625 L 77.503906 50.492188 C 77.503906 50.117188 77.613281 49.78125 77.835938 49.484375 C 78.058594 49.1875 78.347656 48.980469 78.707031 48.867188 L 76.78125 48.867188 C 76.753906 48.867188 76.742188 48.855469 76.742188 48.824219 C 76.742188 48.808594 76.753906 48.796875 76.78125 48.796875 L 79.199219 48.796875 C 79.230469 48.796875 79.246094 48.808594 79.246094 48.824219 C 79.246094 48.855469 79.230469 48.867188 79.199219 48.867188 C 79.191406 48.867188 79.179688 48.867188 79.164062 48.867188 C 79.152344 48.867188 79.140625 48.867188 79.132812 48.867188 C 78.941406 48.890625 78.785156 48.96875 78.667969 49.109375 C 78.542969 49.25 78.480469 49.414062 78.480469 49.601562 L 78.480469 52.796875 C 78.480469 52.984375 78.542969 53.148438 78.667969 53.285156 C 78.785156 53.421875 78.941406 53.5 79.132812 53.519531 C 79.140625 53.519531 79.152344 53.519531 79.164062 53.527344 C 79.179688 53.53125 79.191406 53.53125 79.199219 53.53125 L 82.578125 53.53125 C 82.585938 53.53125 82.601562 53.53125 82.613281 53.527344 C 82.628906 53.519531 82.640625 53.519531 82.648438 53.519531 C 82.835938 53.5 82.992188 53.421875 83.117188 53.285156 C 83.238281 53.148438 83.296875 52.984375 83.296875 52.796875 L 83.296875 50.492188 C 83.296875 50.128906 83.410156 49.792969 83.632812 49.492188 C 83.855469 49.191406 84.136719 48.980469 84.488281 48.867188 L 82.578125 48.867188 C 82.550781 48.867188 82.535156 48.859375 82.535156 48.839844 C 82.535156 48.8125 82.550781 48.796875 82.578125 48.796875 L 84.894531 48.796875 C 84.914062 48.796875 84.933594 48.796875 84.953125 48.796875 C 84.972656 48.796875 84.988281 48.796875 84.996094 48.796875 Z M 84.996094 48.796875 "/>
<path style=" stroke:none;fill-rule:nonzero;fill:rgb(0%,0%,0%);fill-opacity:1;" d="M 30.554688 63.605469 C 30.503906 63.605469 30.480469 63.585938 30.480469 63.550781 C 30.480469 63.527344 30.496094 63.515625 30.527344 63.515625 L 30.589844 63.523438 C 30.636719 63.523438 30.671875 63.503906 30.691406 63.460938 C 30.710938 63.410156 30.71875 63.316406 30.71875 63.171875 L 30.71875 62.25 C 30.71875 62.105469 30.710938 62.019531 30.699219 61.980469 C 30.683594 61.941406 30.667969 61.917969 30.65625 61.910156 C 30.636719 61.902344 30.617188 61.898438 30.589844 61.898438 L 30.527344 61.902344 C 30.496094 61.902344 30.480469 61.890625 30.480469 61.867188 C 30.480469 61.832031 30.5 61.8125 30.550781 61.8125 C 30.59375 61.8125 30.632812 61.816406 30.660156 61.820312 C 30.691406 61.820312 30.722656 61.828125 30.753906 61.828125 C 30.832031 61.832031 30.894531 61.835938 30.945312 61.835938 C 30.992188 61.835938 31.039062 61.835938 31.089844 61.835938 C 31.144531 61.832031 31.203125 61.832031 31.265625 61.828125 C 31.4375 61.820312 31.554688 61.8125 31.617188 61.8125 C 31.6875 61.8125 31.722656 61.820312 31.730469 61.828125 C 31.734375 61.835938 31.742188 61.847656 31.742188 61.859375 C 31.742188 61.875 31.742188 61.886719 31.742188 61.898438 C 31.742188 61.910156 31.738281 61.921875 31.734375 61.941406 C 31.734375 61.960938 31.734375 61.988281 31.730469 62.027344 C 31.726562 62.066406 31.71875 62.09375 31.710938 62.105469 C 31.703125 62.121094 31.695312 62.125 31.6875 62.125 C 31.675781 62.125 31.667969 62.125 31.664062 62.121094 C 31.65625 62.113281 31.652344 62.101562 31.644531 62.082031 C 31.636719 62.0625 31.625 62.042969 31.605469 62.023438 C 31.585938 62.003906 31.558594 61.988281 31.519531 61.972656 C 31.441406 61.949219 31.296875 61.941406 31.085938 61.941406 L 30.96875 61.941406 C 30.949219 61.941406 30.9375 61.941406 30.933594 61.949219 C 30.925781 61.957031 30.921875 61.96875 30.921875 61.988281 L 30.921875 62.539062 C 31.023438 62.550781 31.109375 62.554688 31.179688 62.554688 C 31.246094 62.554688 31.296875 62.554688 31.324219 62.554688 C 31.355469 62.554688 31.378906 62.550781 31.398438 62.546875 C 31.433594 62.542969 31.457031 62.527344 31.46875 62.503906 C 31.5 62.457031 31.523438 62.433594 31.539062 62.433594 C 31.566406 62.433594 31.578125 62.445312 31.578125 62.46875 L 31.53125 62.652344 L 31.535156 62.75 C 31.535156 62.816406 31.519531 62.847656 31.492188 62.847656 C 31.464844 62.847656 31.453125 62.832031 31.453125 62.796875 C 31.453125 62.765625 31.449219 62.738281 31.449219 62.722656 C 31.445312 62.707031 31.4375 62.691406 31.417969 62.679688 C 31.386719 62.667969 31.320312 62.660156 31.210938 62.660156 C 31.105469 62.660156 31.007812 62.667969 30.921875 62.679688 L 30.921875 62.984375 C 30.921875 63.175781 30.929688 63.335938 30.9375 63.460938 C 31.007812 63.476562 31.078125 63.484375 31.164062 63.484375 C 31.246094 63.484375 31.316406 63.484375 31.375 63.476562 C 31.4375 63.472656 31.488281 63.464844 31.527344 63.453125 C 31.613281 63.429688 31.675781 63.378906 31.714844 63.304688 C 31.734375 63.277344 31.75 63.261719 31.765625 63.261719 C 31.78125 63.261719 31.789062 63.273438 31.789062 63.296875 C 31.789062 63.3125 31.789062 63.324219 31.78125 63.339844 C 31.773438 63.363281 31.769531 63.394531 31.753906 63.441406 C 31.738281 63.484375 31.730469 63.519531 31.71875 63.535156 C 31.714844 63.554688 31.707031 63.570312 31.699219 63.582031 C 31.683594 63.597656 31.65625 63.605469 31.617188 63.605469 C 31.585938 63.605469 31.546875 63.605469 31.511719 63.605469 C 31.476562 63.605469 31.4375 63.605469 31.398438 63.605469 C 31.355469 63.605469 31.285156 63.597656 31.191406 63.59375 C 30.953125 63.582031 30.816406 63.578125 30.773438 63.582031 C 30.734375 63.585938 30.703125 63.589844 30.679688 63.589844 C 30.660156 63.589844 30.640625 63.597656 30.621094 63.597656 C 30.601562 63.601562 30.578125 63.605469 30.554688 63.605469 Z M 30.554688 63.605469 "/>
<path style=" stroke:none;fill-rule:nonzero;fill:rgb(0%,0%,0%);fill-opacity:1;" d="M 34.1875 63.605469 C 34.136719 63.605469 34.117188 63.585938 34.117188 63.550781 C 34.117188 63.527344 34.132812 63.515625 34.167969 63.515625 L 34.230469 63.523438 C 34.28125 63.523438 34.316406 63.492188 34.332031 63.433594 C 34.34375 63.386719 34.351562 63.296875 34.351562 63.167969 L 34.351562 62.25 C 34.351562 62.121094 34.347656 62.039062 34.339844 61.996094 C 34.328125 61.960938 34.3125 61.933594 34.292969 61.917969 C 34.28125 61.90625 34.253906 61.898438 34.230469 61.898438 L 34.167969 61.902344 C 34.132812 61.902344 34.117188 61.890625 34.117188 61.867188 C 34.117188 61.832031 34.136719 61.8125 34.1875 61.8125 C 34.238281 61.8125 34.28125 61.820312 34.324219 61.828125 C 34.367188 61.832031 34.414062 61.835938 34.457031 61.835938 C 34.503906 61.835938 34.550781 61.832031 34.59375 61.828125 C 34.632812 61.820312 34.679688 61.8125 34.722656 61.8125 C 34.769531 61.8125 34.796875 61.832031 34.796875 61.867188 C 34.796875 61.890625 34.78125 61.902344 34.75 61.902344 L 34.6875 61.898438 C 34.632812 61.898438 34.601562 61.925781 34.582031 61.984375 C 34.566406 62.03125 34.5625 62.121094 34.5625 62.25 L 34.5625 62.984375 C 34.5625 63.175781 34.566406 63.332031 34.574219 63.457031 C 34.636719 63.476562 34.703125 63.484375 34.78125 63.484375 C 34.859375 63.484375 34.925781 63.480469 34.984375 63.472656 C 35.042969 63.460938 35.089844 63.449219 35.132812 63.433594 C 35.210938 63.398438 35.269531 63.34375 35.3125 63.269531 C 35.332031 63.238281 35.347656 63.222656 35.367188 63.222656 C 35.382812 63.222656 35.390625 63.234375 35.390625 63.261719 C 35.390625 63.273438 35.386719 63.285156 35.382812 63.296875 C 35.375 63.324219 35.367188 63.359375 35.355469 63.402344 C 35.339844 63.449219 35.328125 63.480469 35.320312 63.503906 C 35.3125 63.53125 35.304688 63.546875 35.289062 63.566406 C 35.269531 63.589844 35.242188 63.605469 35.203125 63.605469 C 35.167969 63.605469 35.132812 63.605469 35.101562 63.605469 C 35.070312 63.605469 35.035156 63.605469 35 63.605469 C 34.964844 63.605469 34.925781 63.601562 34.882812 63.597656 C 34.839844 63.597656 34.792969 63.589844 34.742188 63.589844 C 34.6875 63.589844 34.640625 63.589844 34.601562 63.585938 C 34.5625 63.582031 34.523438 63.582031 34.484375 63.582031 C 34.445312 63.582031 34.414062 63.582031 34.386719 63.585938 C 34.363281 63.589844 34.339844 63.589844 34.316406 63.589844 C 34.296875 63.589844 34.277344 63.597656 34.257812 63.597656 C 34.238281 63.601562 34.214844 63.605469 34.1875 63.605469 Z M 34.1875 63.605469 "/>
<path style=" stroke:none;fill-rule:nonzero;fill:rgb(0%,0%,0%);fill-opacity:1;" d="M 37.75 63.605469 C 37.699219 63.605469 37.671875 63.585938 37.671875 63.550781 C 37.671875 63.527344 37.691406 63.515625 37.722656 63.515625 L 37.785156 63.523438 C 37.832031 63.523438 37.867188 63.503906 37.886719 63.460938 C 37.90625 63.410156 37.914062 63.316406 37.914062 63.171875 L 37.914062 62.25 C 37.914062 62.105469 37.90625 62.019531 37.894531 61.980469 C 37.878906 61.941406 37.867188 61.917969 37.847656 61.910156 C 37.832031 61.902344 37.808594 61.898438 37.785156 61.898438 L 37.722656 61.902344 C 37.691406 61.902344 37.671875 61.890625 37.671875 61.867188 C 37.671875 61.832031 37.695312 61.8125 37.742188 61.8125 C 37.789062 61.8125 37.828125 61.816406 37.855469 61.820312 C 37.886719 61.820312 37.917969 61.828125 37.949219 61.828125 C 38.03125 61.832031 38.09375 61.835938 38.140625 61.835938 C 38.1875 61.835938 38.234375 61.835938 38.285156 61.835938 C 38.335938 61.832031 38.394531 61.832031 38.460938 61.828125 C 38.628906 61.820312 38.746094 61.8125 38.816406 61.8125 C 38.882812 61.8125 38.917969 61.820312 38.921875 61.828125 C 38.929688 61.835938 38.9375 61.847656 38.9375 61.859375 C 38.9375 61.875 38.9375 61.886719 38.9375 61.898438 C 38.9375 61.910156 38.933594 61.921875 38.929688 61.941406 C 38.929688 61.960938 38.929688 61.988281 38.921875 62.027344 C 38.921875 62.066406 38.917969 62.09375 38.90625 62.105469 C 38.902344 62.121094 38.890625 62.125 38.882812 62.125 C 38.871094 62.125 38.863281 62.125 38.859375 62.121094 C 38.851562 62.113281 38.847656 62.101562 38.839844 62.082031 C 38.832031 62.0625 38.820312 62.042969 38.804688 62.023438 C 38.78125 62.003906 38.753906 61.988281 38.714844 61.972656 C 38.636719 61.949219 38.492188 61.941406 38.28125 61.941406 L 38.164062 61.941406 C 38.144531 61.941406 38.132812 61.941406 38.128906 61.949219 C 38.121094 61.957031 38.121094 61.96875 38.121094 61.988281 L 38.121094 62.539062 C 38.21875 62.550781 38.304688 62.554688 38.375 62.554688 C 38.441406 62.554688 38.492188 62.554688 38.519531 62.554688 C 38.550781 62.554688 38.574219 62.550781 38.59375 62.546875 C 38.628906 62.542969 38.648438 62.527344 38.664062 62.503906 C 38.695312 62.457031 38.71875 62.433594 38.734375 62.433594 C 38.757812 62.433594 38.773438 62.445312 38.773438 62.46875 L 38.726562 62.652344 L 38.734375 62.75 C 38.734375 62.816406 38.714844 62.847656 38.6875 62.847656 C 38.660156 62.847656 38.648438 62.832031 38.648438 62.796875 C 38.648438 62.765625 38.648438 62.738281 38.644531 62.722656 C 38.640625 62.707031 38.628906 62.691406 38.609375 62.679688 C 38.582031 62.667969 38.515625 62.660156 38.40625 62.660156 C 38.300781 62.660156 38.207031 62.667969 38.121094 62.679688 L 38.121094 62.984375 C 38.121094 63.175781 38.121094 63.335938 38.132812 63.460938 C 38.199219 63.476562 38.277344 63.484375 38.355469 63.484375 C 38.441406 63.484375 38.511719 63.484375 38.570312 63.476562 C 38.628906 63.472656 38.679688 63.464844 38.722656 63.453125 C 38.804688 63.429688 38.871094 63.378906 38.910156 63.304688 C 38.929688 63.277344 38.945312 63.261719 38.960938 63.261719 C 38.976562 63.261719 38.988281 63.273438 38.988281 63.296875 C 38.988281 63.3125 38.980469 63.324219 38.976562 63.339844 C 38.972656 63.363281 38.960938 63.394531 38.949219 63.441406 C 38.933594 63.484375 38.921875 63.519531 38.917969 63.535156 C 38.910156 63.554688 38.902344 63.570312 38.894531 63.582031 C 38.878906 63.597656 38.851562 63.605469 38.816406 63.605469 C 38.78125 63.605469 38.742188 63.605469 38.707031 63.605469 C 38.667969 63.605469 38.632812 63.605469 38.59375 63.605469 C 38.550781 63.605469 38.480469 63.597656 38.386719 63.59375 C 38.148438 63.582031 38.011719 63.578125 37.96875 63.582031 C 37.929688 63.585938 37.898438 63.589844 37.878906 63.589844 C 37.859375 63.589844 37.835938 63.597656 37.816406 63.597656 C 37.796875 63.601562 37.773438 63.605469 37.75 63.605469 Z M 37.75 63.605469 "/>
<path style=" stroke:none;fill-rule:nonzero;fill:rgb(0%,0%,0%);fill-opacity:1;" d="M 43.007812 62.214844 C 43.007812 62.25 42.996094 62.265625 42.96875 62.265625 C 42.949219 62.265625 42.933594 62.242188 42.917969 62.203125 C 42.90625 62.160156 42.878906 62.121094 42.84375 62.082031 C 42.804688 62.046875 42.757812 62.015625 42.707031 61.984375 C 42.601562 61.933594 42.484375 61.90625 42.359375 61.90625 C 42.234375 61.90625 42.128906 61.921875 42.035156 61.957031 C 41.945312 61.988281 41.867188 62.039062 41.804688 62.101562 C 41.667969 62.234375 41.597656 62.414062 41.597656 62.640625 C 41.597656 62.890625 41.675781 63.097656 41.828125 63.257812 C 41.980469 63.421875 42.175781 63.503906 42.410156 63.503906 C 42.675781 63.503906 42.878906 63.382812 43.023438 63.136719 C 43.03125 63.121094 43.042969 63.113281 43.054688 63.109375 C 43.0625 63.109375 43.074219 63.121094 43.082031 63.144531 C 43.089844 63.164062 43.097656 63.1875 43.097656 63.214844 C 43.097656 63.257812 43.058594 63.3125 42.984375 63.382812 C 42.910156 63.453125 42.820312 63.507812 42.714844 63.550781 C 42.609375 63.59375 42.488281 63.617188 42.34375 63.617188 C 42.203125 63.617188 42.074219 63.589844 41.949219 63.546875 C 41.824219 63.5 41.71875 63.441406 41.632812 63.363281 C 41.445312 63.191406 41.351562 62.988281 41.351562 62.738281 C 41.351562 62.457031 41.445312 62.234375 41.632812 62.066406 C 41.820312 61.890625 42.0625 61.800781 42.367188 61.800781 C 42.585938 61.800781 42.765625 61.832031 42.90625 61.890625 C 42.933594 61.90625 42.953125 61.917969 42.964844 61.925781 C 42.984375 61.953125 42.992188 61.988281 42.996094 62.035156 C 43 62.082031 43 62.117188 43 62.136719 C 43.003906 62.179688 43.007812 62.203125 43.007812 62.214844 Z M 43.007812 62.214844 "/>
<path style=" stroke:none;fill-rule:nonzero;fill:rgb(0%,0%,0%);fill-opacity:1;" d="M 45.828125 63.605469 C 45.773438 63.605469 45.746094 63.585938 45.746094 63.550781 C 45.746094 63.527344 45.757812 63.515625 45.792969 63.515625 L 45.851562 63.523438 C 45.90625 63.523438 45.941406 63.492188 45.957031 63.433594 C 45.972656 63.386719 45.980469 63.296875 45.980469 63.167969 L 45.980469 61.953125 L 45.949219 61.953125 C 45.796875 61.953125 45.671875 61.96875 45.582031 61.996094 C 45.519531 62.023438 45.480469 62.0625 45.457031 62.113281 C 45.441406 62.152344 45.421875 62.171875 45.402344 62.171875 C 45.378906 62.171875 45.367188 62.160156 45.367188 62.132812 C 45.367188 62.121094 45.367188 62.109375 45.367188 62.097656 C 45.375 62.085938 45.378906 62.074219 45.386719 62.0625 C 45.402344 62.019531 45.40625 61.976562 45.410156 61.929688 C 45.414062 61.886719 45.417969 61.855469 45.421875 61.839844 C 45.433594 61.824219 45.441406 61.8125 45.453125 61.8125 C 45.464844 61.8125 45.480469 61.816406 45.492188 61.820312 C 45.5 61.820312 45.515625 61.828125 45.535156 61.828125 C 45.589844 61.832031 45.65625 61.835938 45.730469 61.835938 L 46.558594 61.835938 C 46.625 61.835938 46.667969 61.832031 46.699219 61.828125 C 46.730469 61.820312 46.75 61.8125 46.761719 61.8125 C 46.792969 61.8125 46.808594 61.828125 46.808594 61.855469 C 46.808594 61.871094 46.804688 61.886719 46.800781 61.90625 C 46.785156 61.949219 46.773438 61.984375 46.769531 62.015625 C 46.765625 62.046875 46.761719 62.070312 46.761719 62.089844 C 46.757812 62.109375 46.753906 62.125 46.75 62.136719 C 46.742188 62.15625 46.734375 62.164062 46.71875 62.164062 C 46.703125 62.164062 46.695312 62.160156 46.691406 62.152344 C 46.6875 62.140625 46.683594 62.121094 46.675781 62.09375 C 46.675781 62.0625 46.667969 62.042969 46.65625 62.023438 C 46.644531 62.003906 46.628906 61.988281 46.617188 61.980469 C 46.585938 61.964844 46.535156 61.953125 46.464844 61.953125 L 46.1875 61.953125 L 46.1875 63.167969 C 46.1875 63.300781 46.191406 63.382812 46.203125 63.421875 C 46.214844 63.460938 46.230469 63.484375 46.246094 63.503906 C 46.265625 63.519531 46.285156 63.523438 46.316406 63.523438 L 46.378906 63.515625 C 46.410156 63.515625 46.421875 63.527344 46.421875 63.550781 C 46.421875 63.585938 46.394531 63.605469 46.339844 63.605469 C 46.3125 63.605469 46.28125 63.597656 46.246094 63.59375 C 46.144531 63.578125 46.058594 63.574219 45.980469 63.585938 C 45.90625 63.597656 45.855469 63.605469 45.828125 63.605469 Z M 45.828125 63.605469 "/>
<path style=" stroke:none;fill-rule:nonzero;fill:rgb(0%,0%,0%);fill-opacity:1;" d="M 49.183594 63.605469 C 49.125 63.605469 49.097656 63.585938 49.097656 63.550781 C 49.097656 63.527344 49.113281 63.515625 49.144531 63.515625 L 49.210938 63.523438 C 49.261719 63.523438 49.296875 63.492188 49.3125 63.433594 C 49.328125 63.386719 49.332031 63.296875 49.332031 63.167969 L 49.332031 62.25 C 49.332031 62.121094 49.328125 62.039062 49.316406 61.996094 C 49.308594 61.960938 49.292969 61.933594 49.273438 61.917969 C 49.257812 61.90625 49.234375 61.898438 49.210938 61.898438 L 49.144531 61.902344 C 49.113281 61.902344 49.097656 61.890625 49.097656 61.867188 C 49.097656 61.832031 49.117188 61.8125 49.167969 61.8125 C 49.214844 61.8125 49.261719 61.820312 49.304688 61.828125 C 49.347656 61.832031 49.390625 61.835938 49.4375 61.835938 C 49.484375 61.835938 49.527344 61.832031 49.570312 61.828125 C 49.613281 61.820312 49.671875 61.8125 49.738281 61.8125 C 49.808594 61.8125 49.878906 61.828125 49.953125 61.847656 C 50.03125 61.871094 50.097656 61.902344 50.152344 61.941406 C 50.261719 62.023438 50.316406 62.132812 50.316406 62.269531 C 50.316406 62.417969 50.253906 62.550781 50.128906 62.660156 C 50.089844 62.691406 50.046875 62.722656 50 62.75 L 50.421875 63.363281 C 50.46875 63.433594 50.523438 63.476562 50.578125 63.488281 C 50.597656 63.496094 50.617188 63.5 50.640625 63.503906 C 50.6875 63.503906 50.707031 63.519531 50.707031 63.542969 C 50.707031 63.570312 50.6875 63.582031 50.636719 63.582031 L 50.386719 63.582031 C 50.328125 63.582031 50.273438 63.542969 50.222656 63.464844 L 49.898438 62.941406 C 49.867188 62.894531 49.835938 62.859375 49.808594 62.839844 C 49.78125 62.824219 49.742188 62.808594 49.6875 62.808594 C 49.632812 62.808594 49.585938 62.8125 49.542969 62.816406 L 49.542969 63.167969 C 49.542969 63.300781 49.546875 63.382812 49.558594 63.421875 C 49.570312 63.460938 49.585938 63.484375 49.597656 63.503906 C 49.617188 63.519531 49.640625 63.523438 49.667969 63.523438 L 49.730469 63.515625 C 49.761719 63.515625 49.777344 63.527344 49.777344 63.550781 C 49.777344 63.585938 49.75 63.605469 49.691406 63.605469 C 49.664062 63.605469 49.632812 63.597656 49.605469 63.59375 C 49.5 63.578125 49.410156 63.574219 49.332031 63.585938 C 49.261719 63.597656 49.210938 63.605469 49.183594 63.605469 Z M 49.542969 62.703125 C 49.597656 62.707031 49.652344 62.710938 49.703125 62.710938 L 49.78125 62.710938 C 49.867188 62.710938 49.941406 62.679688 50 62.621094 C 50.066406 62.554688 50.101562 62.464844 50.101562 62.355469 C 50.101562 62.214844 50.058594 62.105469 49.976562 62.023438 C 49.894531 61.945312 49.792969 61.90625 49.667969 61.90625 C 49.625 61.90625 49.59375 61.914062 49.570312 61.925781 C 49.550781 61.9375 49.542969 61.957031 49.542969 61.984375 Z M 49.542969 62.703125 "/>
<path style=" stroke:none;fill-rule:nonzero;fill:rgb(0%,0%,0%);fill-opacity:1;" d="M 52.964844 62.699219 C 52.964844 62.566406 52.992188 62.449219 53.042969 62.339844 C 53.089844 62.230469 53.15625 62.132812 53.242188 62.054688 C 53.324219 61.976562 53.421875 61.914062 53.527344 61.871094 C 53.640625 61.828125 53.761719 61.800781 53.886719 61.800781 C 54.015625 61.800781 54.132812 61.828125 54.242188 61.871094 C 54.351562 61.921875 54.445312 61.984375 54.523438 62.066406 C 54.6875 62.238281 54.769531 62.457031 54.769531 62.722656 C 54.769531 62.976562 54.683594 63.1875 54.515625 63.355469 C 54.34375 63.53125 54.125 63.617188 53.855469 63.617188 C 53.597656 63.617188 53.382812 63.527344 53.214844 63.351562 C 53.050781 63.179688 52.964844 62.964844 52.964844 62.699219 Z M 53.191406 62.628906 C 53.191406 62.738281 53.207031 62.847656 53.246094 62.960938 C 53.28125 63.070312 53.335938 63.164062 53.402344 63.246094 C 53.546875 63.417969 53.730469 63.503906 53.953125 63.503906 C 54.125 63.503906 54.261719 63.441406 54.371094 63.316406 C 54.484375 63.179688 54.542969 63.007812 54.542969 62.792969 C 54.542969 62.539062 54.472656 62.328125 54.335938 62.160156 C 54.203125 61.996094 54.03125 61.910156 53.824219 61.910156 C 53.652344 61.910156 53.503906 61.976562 53.382812 62.105469 C 53.253906 62.242188 53.191406 62.417969 53.191406 62.628906 Z M 53.191406 62.628906 "/>
<path style=" stroke:none;fill-rule:nonzero;fill:rgb(0%,0%,0%);fill-opacity:1;" d="M 57.210938 63.605469 C 57.152344 63.605469 57.125 63.585938 57.125 63.550781 C 57.125 63.527344 57.140625 63.515625 57.171875 63.515625 L 57.234375 63.523438 C 57.289062 63.523438 57.324219 63.492188 57.339844 63.433594 C 57.355469 63.386719 57.363281 63.296875 57.363281 63.167969 L 57.363281 62.253906 C 57.363281 62.125 57.355469 62.042969 57.347656 62.003906 C 57.335938 61.964844 57.320312 61.9375 57.300781 61.921875 C 57.28125 61.910156 57.261719 61.902344 57.234375 61.902344 L 57.171875 61.90625 C 57.140625 61.90625 57.125 61.894531 57.125 61.871094 C 57.125 61.835938 57.152344 61.820312 57.210938 61.820312 L 57.378906 61.835938 C 57.417969 61.835938 57.453125 61.832031 57.476562 61.828125 L 58.679688 63.222656 L 58.679688 62.25 C 58.679688 62.125 58.671875 62.042969 58.65625 62.003906 C 58.640625 61.960938 58.628906 61.933594 58.613281 61.917969 C 58.597656 61.90625 58.570312 61.898438 58.542969 61.898438 L 58.480469 61.902344 C 58.449219 61.902344 58.433594 61.890625 58.433594 61.867188 C 58.433594 61.832031 58.460938 61.8125 58.515625 61.8125 C 58.539062 61.8125 58.566406 61.820312 58.605469 61.824219 C 58.648438 61.832031 58.695312 61.835938 58.726562 61.835938 C 58.765625 61.835938 58.804688 61.832031 58.839844 61.828125 C 58.871094 61.820312 58.914062 61.8125 58.960938 61.8125 C 59.011719 61.8125 59.039062 61.832031 59.039062 61.867188 C 59.039062 61.890625 59.019531 61.902344 58.988281 61.902344 L 58.925781 61.898438 C 58.871094 61.898438 58.839844 61.925781 58.820312 61.984375 C 58.804688 62.03125 58.796875 62.121094 58.796875 62.25 L 58.796875 63.566406 C 58.796875 63.597656 58.792969 63.617188 58.785156 63.625 C 58.785156 63.628906 58.777344 63.636719 58.765625 63.636719 C 58.75 63.636719 58.726562 63.617188 58.691406 63.582031 L 57.492188 62.195312 L 57.492188 63.167969 C 57.492188 63.300781 57.496094 63.382812 57.507812 63.421875 C 57.519531 63.460938 57.535156 63.484375 57.546875 63.503906 C 57.566406 63.519531 57.589844 63.523438 57.617188 63.523438 L 57.679688 63.515625 C 57.710938 63.515625 57.730469 63.527344 57.730469 63.550781 C 57.730469 63.585938 57.703125 63.605469 57.652344 63.605469 C 57.605469 63.605469 57.558594 63.597656 57.523438 63.589844 C 57.480469 63.585938 57.445312 63.582031 57.40625 63.582031 C 57.371094 63.582031 57.335938 63.585938 57.300781 63.589844 C 57.261719 63.597656 57.234375 63.605469 57.210938 63.605469 Z M 57.210938 63.605469 "/>
<path style=" stroke:none;fill-rule:nonzero;fill:rgb(0%,0%,0%);fill-opacity:1;" d="M 61.382812 63.605469 C 61.324219 63.605469 61.292969 63.585938 61.292969 63.550781 C 61.292969 63.527344 61.3125 63.515625 61.34375 63.515625 L 61.40625 63.523438 C 61.453125 63.523438 61.488281 63.5 61.503906 63.453125 C 61.527344 63.402344 61.535156 63.308594 61.535156 63.167969 L 61.527344 62.25 C 61.527344 62.105469 61.519531 62.019531 61.503906 61.980469 C 61.488281 61.941406 61.472656 61.917969 61.457031 61.910156 C 61.441406 61.902344 61.421875 61.898438 61.398438 61.898438 L 61.335938 61.902344 C 61.304688 61.902344 61.292969 61.890625 61.292969 61.867188 C 61.292969 61.832031 61.3125 61.8125 61.363281 61.8125 C 61.410156 61.8125 61.453125 61.820312 61.496094 61.828125 C 61.539062 61.832031 61.585938 61.835938 61.632812 61.835938 C 61.679688 61.835938 61.722656 61.832031 61.765625 61.828125 C 61.808594 61.820312 61.851562 61.8125 61.898438 61.8125 C 61.949219 61.8125 61.976562 61.832031 61.976562 61.867188 C 61.976562 61.890625 61.957031 61.902344 61.921875 61.902344 L 61.859375 61.898438 C 61.8125 61.898438 61.78125 61.921875 61.765625 61.964844 C 61.746094 62.015625 61.734375 62.109375 61.734375 62.25 L 61.742188 63.167969 C 61.742188 63.308594 61.75 63.394531 61.765625 63.433594 C 61.78125 63.472656 61.800781 63.5 61.816406 63.511719 C 61.832031 63.519531 61.855469 63.523438 61.878906 63.523438 L 61.941406 63.515625 C 61.96875 63.515625 61.988281 63.527344 61.988281 63.550781 C 61.988281 63.585938 61.957031 63.605469 61.902344 63.605469 C 61.875 63.605469 61.847656 63.597656 61.8125 63.59375 C 61.703125 63.578125 61.609375 63.574219 61.535156 63.585938 C 61.460938 63.597656 61.410156 63.605469 61.382812 63.605469 Z M 61.382812 63.605469 "/>
<path style=" stroke:none;fill-rule:nonzero;fill:rgb(0%,0%,0%);fill-opacity:1;" d="M 65.988281 62.214844 C 65.988281 62.25 65.976562 62.265625 65.953125 62.265625 C 65.933594 62.265625 65.914062 62.242188 65.902344 62.203125 C 65.890625 62.160156 65.863281 62.121094 65.824219 62.082031 C 65.785156 62.046875 65.742188 62.015625 65.691406 61.984375 C 65.582031 61.933594 65.464844 61.90625 65.339844 61.90625 C 65.21875 61.90625 65.109375 61.921875 65.019531 61.957031 C 64.925781 61.988281 64.847656 62.039062 64.785156 62.101562 C 64.648438 62.234375 64.582031 62.414062 64.582031 62.640625 C 64.582031 62.890625 64.660156 63.097656 64.808594 63.257812 C 64.964844 63.421875 65.15625 63.503906 65.394531 63.503906 C 65.65625 63.503906 65.863281 63.382812 66.003906 63.136719 C 66.015625 63.121094 66.023438 63.113281 66.035156 63.109375 C 66.042969 63.109375 66.058594 63.121094 66.066406 63.144531 C 66.074219 63.164062 66.078125 63.1875 66.078125 63.214844 C 66.078125 63.257812 66.039062 63.3125 65.964844 63.382812 C 65.890625 63.453125 65.804688 63.507812 65.699219 63.550781 C 65.589844 63.59375 65.46875 63.617188 65.328125 63.617188 C 65.1875 63.617188 65.054688 63.589844 64.933594 63.546875 C 64.808594 63.5 64.699219 63.441406 64.613281 63.363281 C 64.429688 63.191406 64.335938 62.988281 64.335938 62.738281 C 64.335938 62.457031 64.429688 62.234375 64.613281 62.066406 C 64.800781 61.890625 65.042969 61.800781 65.347656 61.800781 C 65.566406 61.800781 65.746094 61.832031 65.890625 61.890625 C 65.917969 61.90625 65.9375 61.917969 65.949219 61.925781 C 65.964844 61.953125 65.972656 61.988281 65.976562 62.035156 C 65.980469 62.082031 65.980469 62.117188 65.980469 62.136719 C 65.984375 62.179688 65.988281 62.203125 65.988281 62.214844 Z M 65.988281 62.214844 "/>
<path style=" stroke:none;fill-rule:nonzero;fill:rgb(0%,0%,0%);fill-opacity:1;" d="M 69.289062 61.855469 L 69.34375 61.847656 C 69.367188 61.847656 69.382812 61.867188 69.386719 61.90625 C 69.386719 61.945312 69.390625 61.980469 69.390625 62.007812 C 69.398438 62.03125 69.402344 62.054688 69.40625 62.074219 C 69.410156 62.09375 69.414062 62.109375 69.417969 62.125 C 69.421875 62.140625 69.421875 62.152344 69.421875 62.160156 C 69.421875 62.167969 69.417969 62.179688 69.40625 62.183594 C 69.398438 62.191406 69.386719 62.195312 69.378906 62.195312 C 69.355469 62.195312 69.335938 62.171875 69.320312 62.132812 C 69.28125 62.050781 69.25 62 69.226562 61.976562 C 69.167969 61.925781 69.085938 61.902344 68.976562 61.902344 C 68.824219 61.902344 68.722656 61.949219 68.667969 62.035156 C 68.652344 62.066406 68.640625 62.105469 68.640625 62.148438 C 68.640625 62.191406 68.652344 62.230469 68.671875 62.265625 C 68.695312 62.300781 68.726562 62.339844 68.765625 62.378906 C 68.808594 62.417969 68.863281 62.457031 68.925781 62.503906 C 68.996094 62.542969 69.066406 62.59375 69.136719 62.644531 C 69.214844 62.691406 69.273438 62.738281 69.3125 62.78125 C 69.355469 62.824219 69.390625 62.859375 69.414062 62.902344 C 69.464844 62.980469 69.488281 63.058594 69.488281 63.128906 C 69.488281 63.199219 69.476562 63.265625 69.457031 63.324219 C 69.4375 63.378906 69.402344 63.429688 69.355469 63.472656 C 69.253906 63.566406 69.105469 63.617188 68.90625 63.617188 C 68.804688 63.617188 68.695312 63.589844 68.570312 63.546875 C 68.542969 63.539062 68.527344 63.527344 68.523438 63.515625 C 68.511719 63.5 68.503906 63.472656 68.5 63.433594 C 68.496094 63.390625 68.488281 63.355469 68.480469 63.324219 C 68.472656 63.292969 68.464844 63.257812 68.453125 63.230469 L 68.441406 63.164062 C 68.433594 63.148438 68.429688 63.128906 68.429688 63.117188 C 68.429688 63.082031 68.441406 63.070312 68.464844 63.070312 C 68.496094 63.070312 68.519531 63.09375 68.535156 63.140625 C 68.558594 63.226562 68.578125 63.28125 68.597656 63.304688 C 68.671875 63.402344 68.757812 63.46875 68.855469 63.492188 C 68.882812 63.503906 68.921875 63.503906 68.96875 63.503906 C 69.019531 63.503906 69.066406 63.5 69.109375 63.484375 C 69.15625 63.472656 69.195312 63.453125 69.226562 63.429688 C 69.285156 63.382812 69.3125 63.328125 69.3125 63.261719 C 69.3125 63.191406 69.292969 63.128906 69.25 63.078125 C 69.207031 63.023438 69.152344 62.976562 69.09375 62.933594 C 69.03125 62.894531 68.988281 62.863281 68.953125 62.84375 C 68.929688 62.824219 68.898438 62.808594 68.871094 62.789062 C 68.652344 62.644531 68.523438 62.496094 68.484375 62.355469 C 68.472656 62.316406 68.46875 62.269531 68.46875 62.222656 C 68.46875 62.171875 68.480469 62.121094 68.503906 62.066406 C 68.53125 62.015625 68.566406 61.96875 68.609375 61.929688 C 68.710938 61.847656 68.839844 61.800781 68.996094 61.800781 C 69.070312 61.800781 69.125 61.8125 69.167969 61.828125 C 69.230469 61.847656 69.269531 61.855469 69.289062 61.855469 Z M 69.289062 61.855469 "/>
</g>
</svg>
